<svg width="42" height="42" viewBox="0 0 42 42" fill="none" xmlns="http://www.w3.org/2000/svg">
<g opacity="0.9" filter="url(#filter0_d_59_1750)">
<path d="M3.75195 15.6811C3.75195 11.4947 3.75195 9.40153 4.56668 7.80253C5.28334 6.39601 6.42687 5.25248 7.83339 4.53582C9.43239 3.72109 11.5256 3.72109 15.712 3.72109H24.8394C29.0258 3.72109 31.119 3.72109 32.718 4.53582C34.1245 5.25248 35.2681 6.39601 35.9847 7.80253C36.7995 9.40153 36.7995 11.4947 36.7995 15.6811V24.8086C36.7995 28.995 36.7995 31.0882 35.9847 32.6872C35.2681 34.0937 34.1245 35.2372 32.718 35.9539C31.119 36.7686 29.0258 36.7686 24.8394 36.7686H15.712C11.5256 36.7686 9.43239 36.7686 7.83339 35.9539C6.42687 35.2372 5.28334 34.0937 4.56668 32.6872C3.75195 31.0882 3.75195 28.995 3.75195 24.8086V15.6811Z" fill="white"/>
<path d="M3.75195 15.6811C3.75195 11.4947 3.75195 9.40153 4.56668 7.80253C5.28334 6.39601 6.42687 5.25248 7.83339 4.53582C9.43239 3.72109 11.5256 3.72109 15.712 3.72109H24.8394C29.0258 3.72109 31.119 3.72109 32.718 4.53582C34.1245 5.25248 35.2681 6.39601 35.9847 7.80253C36.7995 9.40153 36.7995 11.4947 36.7995 15.6811V24.8086C36.7995 28.995 36.7995 31.0882 35.9847 32.6872C35.2681 34.0937 34.1245 35.2372 32.718 35.9539C31.119 36.7686 29.0258 36.7686 24.8394 36.7686H15.712C11.5256 36.7686 9.43239 36.7686 7.83339 35.9539C6.42687 35.2372 5.28334 34.0937 4.56668 32.6872C3.75195 31.0882 3.75195 28.995 3.75195 24.8086V15.6811Z" fill="url(#paint0_radial_59_1750)"/>
<path d="M3.75195 15.6811C3.75195 11.4947 3.75195 9.40153 4.56668 7.80253C5.28334 6.39601 6.42687 5.25248 7.83339 4.53582C9.43239 3.72109 11.5256 3.72109 15.712 3.72109H24.8394C29.0258 3.72109 31.119 3.72109 32.718 4.53582C34.1245 5.25248 35.2681 6.39601 35.9847 7.80253C36.7995 9.40153 36.7995 11.4947 36.7995 15.6811V24.8086C36.7995 28.995 36.7995 31.0882 35.9847 32.6872C35.2681 34.0937 34.1245 35.2372 32.718 35.9539C31.119 36.7686 29.0258 36.7686 24.8394 36.7686H15.712C11.5256 36.7686 9.43239 36.7686 7.83339 35.9539C6.42687 35.2372 5.28334 34.0937 4.56668 32.6872C3.75195 31.0882 3.75195 28.995 3.75195 24.8086V15.6811Z" fill="url(#paint1_radial_59_1750)"/>
<path d="M3.75195 15.6811C3.75195 11.4947 3.75195 9.40153 4.56668 7.80253C5.28334 6.39601 6.42687 5.25248 7.83339 4.53582C9.43239 3.72109 11.5256 3.72109 15.712 3.72109H24.8394C29.0258 3.72109 31.119 3.72109 32.718 4.53582C34.1245 5.25248 35.2681 6.39601 35.9847 7.80253C36.7995 9.40153 36.7995 11.4947 36.7995 15.6811V24.8086C36.7995 28.995 36.7995 31.0882 35.9847 32.6872C35.2681 34.0937 34.1245 35.2372 32.718 35.9539C31.119 36.7686 29.0258 36.7686 24.8394 36.7686H15.712C11.5256 36.7686 9.43239 36.7686 7.83339 35.9539C6.42687 35.2372 5.28334 34.0937 4.56668 32.6872C3.75195 31.0882 3.75195 28.995 3.75195 24.8086V15.6811Z" fill="url(#paint2_radial_59_1750)"/>
<path d="M3.75195 15.6811C3.75195 11.4947 3.75195 9.40153 4.56668 7.80253C5.28334 6.39601 6.42687 5.25248 7.83339 4.53582C9.43239 3.72109 11.5256 3.72109 15.712 3.72109H24.8394C29.0258 3.72109 31.119 3.72109 32.718 4.53582C34.1245 5.25248 35.2681 6.39601 35.9847 7.80253C36.7995 9.40153 36.7995 11.4947 36.7995 15.6811V24.8086C36.7995 28.995 36.7995 31.0882 35.9847 32.6872C35.2681 34.0937 34.1245 35.2372 32.718 35.9539C31.119 36.7686 29.0258 36.7686 24.8394 36.7686H15.712C11.5256 36.7686 9.43239 36.7686 7.83339 35.9539C6.42687 35.2372 5.28334 34.0937 4.56668 32.6872C3.75195 31.0882 3.75195 28.995 3.75195 24.8086V15.6811Z" fill="url(#paint3_radial_59_1750)"/>
<path d="M3.75195 15.6811C3.75195 11.4947 3.75195 9.40153 4.56668 7.80253C5.28334 6.39601 6.42687 5.25248 7.83339 4.53582C9.43239 3.72109 11.5256 3.72109 15.712 3.72109H24.8394C29.0258 3.72109 31.119 3.72109 32.718 4.53582C34.1245 5.25248 35.2681 6.39601 35.9847 7.80253C36.7995 9.40153 36.7995 11.4947 36.7995 15.6811V24.8086C36.7995 28.995 36.7995 31.0882 35.9847 32.6872C35.2681 34.0937 34.1245 35.2372 32.718 35.9539C31.119 36.7686 29.0258 36.7686 24.8394 36.7686H15.712C11.5256 36.7686 9.43239 36.7686 7.83339 35.9539C6.42687 35.2372 5.28334 34.0937 4.56668 32.6872C3.75195 31.0882 3.75195 28.995 3.75195 24.8086V15.6811Z" fill="url(#paint4_radial_59_1750)"/>
<path d="M3.75195 15.6811C3.75195 11.4947 3.75195 9.40153 4.56668 7.80253C5.28334 6.39601 6.42687 5.25248 7.83339 4.53582C9.43239 3.72109 11.5256 3.72109 15.712 3.72109H24.8394C29.0258 3.72109 31.119 3.72109 32.718 4.53582C34.1245 5.25248 35.2681 6.39601 35.9847 7.80253C36.7995 9.40153 36.7995 11.4947 36.7995 15.6811V24.8086C36.7995 28.995 36.7995 31.0882 35.9847 32.6872C35.2681 34.0937 34.1245 35.2372 32.718 35.9539C31.119 36.7686 29.0258 36.7686 24.8394 36.7686H15.712C11.5256 36.7686 9.43239 36.7686 7.83339 35.9539C6.42687 35.2372 5.28334 34.0937 4.56668 32.6872C3.75195 31.0882 3.75195 28.995 3.75195 24.8086V15.6811Z" fill="url(#paint5_radial_59_1750)"/>
<path d="M3.75195 15.6811C3.75195 11.4947 3.75195 9.40153 4.56668 7.80253C5.28334 6.39601 6.42687 5.25248 7.83339 4.53582C9.43239 3.72109 11.5256 3.72109 15.712 3.72109H24.8394C29.0258 3.72109 31.119 3.72109 32.718 4.53582C34.1245 5.25248 35.2681 6.39601 35.9847 7.80253C36.7995 9.40153 36.7995 11.4947 36.7995 15.6811V24.8086C36.7995 28.995 36.7995 31.0882 35.9847 32.6872C35.2681 34.0937 34.1245 35.2372 32.718 35.9539C31.119 36.7686 29.0258 36.7686 24.8394 36.7686H15.712C11.5256 36.7686 9.43239 36.7686 7.83339 35.9539C6.42687 35.2372 5.28334 34.0937 4.56668 32.6872C3.75195 31.0882 3.75195 28.995 3.75195 24.8086V15.6811Z" fill="url(#paint6_radial_59_1750)"/>
<path d="M30.13 13.6635C28.3812 11.7286 25.9164 10.6412 23.3552 10.6553C20.8491 10.6553 18.3017 11.7569 16.6631 13.5364C16.3602 13.5081 16.0573 13.4799 15.7681 13.4799C10.8523 13.4799 7.80914 17.7167 7.80914 21.6429C7.82291 23.7613 8.62156 25.795 10.0399 27.3485C11.527 28.9727 13.5925 29.8907 15.7681 29.8907H23.3552C28.5052 29.8907 32.6912 25.5549 32.6912 20.2447C32.6636 17.8015 31.7548 15.4571 30.13 13.6635ZM15.6166 28.5066C11.9676 28.5066 9.02088 25.4702 9.02088 21.7276C9.02088 18.0133 11.9539 14.991 15.5891 14.9628C17.2001 14.9628 18.8938 15.4995 19.9679 16.6717L22.7356 19.581C23.19 20.0611 23.1762 20.8238 22.7081 21.2898C22.2399 21.7559 21.4963 21.7418 21.0419 21.2616L18.343 18.4088C16.5805 16.8552 13.9229 17.053 12.4083 18.8607C11.7473 19.6375 11.3893 20.6402 11.3893 21.6711C11.3893 24.0438 13.3584 26.0492 15.6855 26.0492H16.2225C16.9936 27.1508 19.1555 28.5066 19.1555 28.5066H15.6166ZM29.1386 26.0775C27.6652 27.6592 25.6273 28.549 23.4929 28.5631C21.4688 28.5631 19.4033 27.631 17.8198 26.021L14.2121 22.2926C13.7577 21.8124 13.7715 21.0497 14.2259 20.5837C14.4462 20.3577 14.7354 20.2447 15.0521 20.2447C15.3688 20.2447 15.6717 20.3718 15.892 20.6119L19.4859 24.298C20.6288 25.4702 22.0884 26.134 23.4929 26.134C24.9939 26.134 26.4259 25.4984 27.4586 24.3686C28.5189 23.2529 29.111 21.7559 29.111 20.2024C29.111 17.0106 26.5774 14.4261 23.4654 14.412C22.2812 14.412 21.3035 14.6521 20.3397 15.3441C19.794 14.7845 18.6184 14.2284 18.0814 14.1154C19.5686 12.689 21.4275 11.997 23.4654 11.997C27.8855 11.997 31.4519 15.6689 31.4657 20.2024C31.4657 22.3914 30.6395 24.5098 29.1386 26.0775Z" fill="white"/>
</g>
<defs>
<filter id="filter0_d_59_1750" x="0.919308" y="0.888448" width="40.6013" height="40.6012" filterUnits="userSpaceOnUse" color-interpolation-filters="sRGB">
<feFlood flood-opacity="0" result="BackgroundImageFix"/>
<feColorMatrix in="SourceAlpha" type="matrix" values="0 0 0 0 0 0 0 0 0 0 0 0 0 0 0 0 0 0 127 0" result="hardAlpha"/>
<feOffset dx="0.944215" dy="0.944215"/>
<feGaussianBlur stdDeviation="1.88843"/>
<feComposite in2="hardAlpha" operator="out"/>
<feColorMatrix type="matrix" values="0 0 0 0 0 0 0 0 0 0 0 0 0 0 0 0 0 0 0.3 0"/>
<feBlend mode="normal" in2="BackgroundImageFix" result="effect1_dropShadow_59_1750"/>
<feBlend mode="normal" in="SourceGraphic" in2="effect1_dropShadow_59_1750" result="shape"/>
</filter>
<radialGradient id="paint0_radial_59_1750" cx="0" cy="0" r="1" gradientUnits="userSpaceOnUse" gradientTransform="translate(31.2227 31.9668) rotate(46.87) scale(19.7386 20.2178)">
<stop stop-color="#68E048"/>
<stop offset="1" stop-color="#5CE049" stop-opacity="0"/>
</radialGradient>
<radialGradient id="paint1_radial_59_1750" cx="0" cy="0" r="1" gradientUnits="userSpaceOnUse" gradientTransform="translate(8.98448 31.8256) rotate(137.364) scale(20.121 20.6866)">
<stop stop-color="#308CFE"/>
<stop offset="1" stop-color="#2F8BFF" stop-opacity="0"/>
</radialGradient>
<radialGradient id="paint2_radial_59_1750" cx="0" cy="0" r="1" gradientUnits="userSpaceOnUse" gradientTransform="translate(30.6031 22.2221) rotate(7.9001) scale(11.8165 12.4186)">
<stop stop-color="#FDD511"/>
<stop offset="1" stop-color="#FDD20D" stop-opacity="0"/>
</radialGradient>
<radialGradient id="paint3_radial_59_1750" cx="0" cy="0" r="1" gradientUnits="userSpaceOnUse" gradientTransform="translate(9.39757 15.6549) rotate(-127.134) scale(17.4493 17.7796)">
<stop stop-color="#F928C2"/>
<stop offset="1" stop-color="#F922BC" stop-opacity="0"/>
</radialGradient>
<radialGradient id="paint4_radial_59_1750" cx="0" cy="0" r="1" gradientUnits="userSpaceOnUse" gradientTransform="translate(22.4789 9.22901) rotate(-63.404) scale(17.5315 17.714)">
<stop stop-color="#F90700"/>
<stop offset="1" stop-color="#F90700" stop-opacity="0"/>
</radialGradient>
<radialGradient id="paint5_radial_59_1750" cx="0" cy="0" r="1" gradientUnits="userSpaceOnUse" gradientTransform="translate(35.0094 8.52287) rotate(-65.6935) scale(10.5376 10.6304)">
<stop stop-color="#FB4200"/>
<stop offset="1" stop-color="#FB4300" stop-opacity="0"/>
</radialGradient>
<radialGradient id="paint6_radial_59_1750" cx="0" cy="0" r="1" gradientUnits="userSpaceOnUse" gradientTransform="translate(7.1944 7.74611) rotate(-133.672) scale(9.37224 9.60435)">
<stop stop-color="#FE0D88"/>
<stop offset="1" stop-color="#FE0D88" stop-opacity="0"/>
</radialGradient>
</defs>
</svg>
