<svg width="41" height="42" viewBox="0 0 41 42" fill="none" xmlns="http://www.w3.org/2000/svg">
<g opacity="0.9" filter="url(#filter0_d_59_1754)">
<path d="M3.14868 15.6811C3.14868 11.4947 3.14868 9.40153 3.96341 7.80253C4.68007 6.39601 5.8236 5.25248 7.23012 4.53582C8.82912 3.72109 10.9223 3.72109 15.1087 3.72109H24.2361C28.4226 3.72109 30.5158 3.72109 32.1148 4.53582C33.5213 5.25248 34.6648 6.39601 35.3815 7.80253C36.1962 9.40153 36.1962 11.4947 36.1962 15.6811V24.8086C36.1962 28.995 36.1962 31.0882 35.3815 32.6872C34.6648 34.0937 33.5213 35.2372 32.1148 35.9539C30.5158 36.7686 28.4226 36.7686 24.2361 36.7686H15.1087C10.9223 36.7686 8.82912 36.7686 7.23012 35.9539C5.8236 35.2372 4.68007 34.0937 3.96341 32.6872C3.14868 31.0882 3.14868 28.995 3.14868 24.8086V15.6811Z" fill="#00005B"/>
<path d="M17.0635 24.4512H11.9424L10.9004 27.7772C10.8715 27.9006 10.7579 27.9879 10.6344 27.9819H8.04056C7.89264 27.9819 7.84091 27.8985 7.88537 27.7318L12.3192 14.6889C12.3636 14.5525 12.4079 14.4191 12.4523 14.2447C12.5103 13.9413 12.54 13.633 12.5409 13.3238C12.5282 13.2325 12.6071 13.1516 12.6961 13.1646H16.221C16.3243 13.1646 16.3834 13.2025 16.3984 13.2783L21.4309 27.7545C21.4752 27.9062 21.4308 27.982 21.2978 27.9819H18.4158C18.3147 27.9934 18.2182 27.9241 18.1941 27.8227L17.0635 24.4512ZM12.7404 21.6467H16.2432C15.6677 19.6801 15.0182 17.7394 14.4919 15.7576C13.8953 17.8134 13.3445 19.72 12.7404 21.6467Z" fill="#9999FF"/>
<path d="M25.1737 23.1668C25.3775 24.8557 26.7956 25.6609 28.3661 25.6266C29.2516 25.6092 30.1979 25.4717 31.0254 25.1369C31.0991 25.0765 31.1362 25.1141 31.1362 25.2506V27.4107C31.1432 27.523 31.0963 27.6234 31.0032 27.6835C29.9748 28.1507 28.7942 28.2916 27.6788 28.2737C24.353 28.2737 22.069 25.9303 22.0699 22.521C22.0613 19.2901 24.1573 16.5644 27.4127 16.5644C30.1723 16.4929 32.0828 18.7023 32.0905 21.4523C32.0905 21.9532 32.0625 22.4558 32.0018 22.953C31.99 23.0555 31.9028 23.135 31.8023 23.1349C29.5983 23.1349 27.3836 23.1668 25.1737 23.1668ZM25.1737 21.0955C26.4019 21.0955 27.6373 21.1389 28.8648 21.0841C29.0493 21.0652 29.1863 21.0303 29.1863 20.8384C29.1607 19.8188 28.3003 18.9804 27.3019 19.0194C26.0956 18.9446 25.3236 19.9629 25.1737 21.0955Z" fill="#9999FF"/>
</g>
<defs>
<filter id="filter0_d_59_1754" x="0.316037" y="0.888448" width="40.6013" height="40.6012" filterUnits="userSpaceOnUse" color-interpolation-filters="sRGB">
<feFlood flood-opacity="0" result="BackgroundImageFix"/>
<feColorMatrix in="SourceAlpha" type="matrix" values="0 0 0 0 0 0 0 0 0 0 0 0 0 0 0 0 0 0 127 0" result="hardAlpha"/>
<feOffset dx="0.944215" dy="0.944215"/>
<feGaussianBlur stdDeviation="1.88843"/>
<feComposite in2="hardAlpha" operator="out"/>
<feColorMatrix type="matrix" values="0 0 0 0 0 0 0 0 0 0 0 0 0 0 0 0 0 0 0.3 0"/>
<feBlend mode="normal" in2="BackgroundImageFix" result="effect1_dropShadow_59_1754"/>
<feBlend mode="normal" in="SourceGraphic" in2="effect1_dropShadow_59_1754" result="shape"/>
</filter>
</defs>
</svg>
