<svg width="41" height="13" viewBox="0 0 41 13" fill="none" xmlns="http://www.w3.org/2000/svg">
<g opacity="0.9" filter="url(#filter0_d_59_1778)">
<path d="M19.2533 3.65056V7.53399L18.8301 7.87487V4.64438H18.0334L19.2533 3.65056ZM33.9326 3.05789C34.287 3.05789 34.6161 3.11134 34.9199 3.21823C35.2122 3.31918 35.4643 3.43268 35.6762 3.55872L35.7132 3.5811L35.2744 4.41654C35.2343 4.38377 35.1778 4.3463 35.1048 4.30412L35.0633 4.28064L35.0186 4.25623L34.9706 4.23088C34.8356 4.15775 34.6752 4.09586 34.4896 4.04523C34.3039 3.98897 34.1126 3.96084 33.9157 3.96084C33.3869 3.96084 33.1225 4.10993 33.1225 4.4081C33.1225 4.5825 33.2181 4.70627 33.4094 4.77941L33.453 4.79521L33.4993 4.81127L33.5484 4.82759L33.6002 4.84417L33.6548 4.861L33.7122 4.87809C33.7219 4.88097 33.7319 4.88385 33.7419 4.88674L33.8033 4.90422L33.8676 4.92196L33.9346 4.93995L34.0043 4.95821L34.0768 4.97672L34.1908 5.00498L34.2702 5.02414C34.6021 5.10853 34.889 5.20416 35.1309 5.31106C35.3681 5.41349 35.5511 5.54952 35.6798 5.71912L35.6963 5.74143C35.8313 5.91584 35.8988 6.14648 35.8988 6.4334C35.8988 6.7822 35.8088 7.06351 35.6288 7.27729C35.4544 7.48545 35.2237 7.63735 34.9368 7.73299C34.6499 7.823 34.3405 7.86801 34.0085 7.86801C33.626 7.86801 33.2462 7.81456 32.8693 7.70767C32.5103 7.60587 32.1896 7.46835 31.9072 7.29511L31.8651 7.26885L32.3208 6.38278C32.3939 6.45592 32.5149 6.53749 32.6837 6.62751C32.8581 6.71752 33.0606 6.79347 33.2913 6.85535C33.5219 6.91724 33.7666 6.94818 34.0254 6.94818C34.543 6.94818 34.8018 6.81035 34.8018 6.53468C34.8018 6.34903 34.6808 6.21682 34.4389 6.13806L34.3808 6.11764L34.3197 6.0969L34.2557 6.07584L34.1888 6.05445L34.1189 6.03274L34.0462 6.01071C34.0338 6.00701 34.0213 6.00329 34.0087 5.99957L33.9316 5.97705L33.8515 5.9542L33.7686 5.93103L33.6827 5.90754L33.5484 5.87169L33.5022 5.85958C33.0184 5.73581 32.6583 5.57828 32.4221 5.38701C32.1914 5.1901 32.0761 4.90881 32.0761 4.54312C32.0761 4.21682 32.1576 3.94396 32.3208 3.72456C32.4896 3.50515 32.7146 3.33918 32.9959 3.22667C33.2828 3.11415 33.595 3.05789 33.9326 3.05789ZM26.1067 3.06633C26.4637 3.06633 26.7897 3.13135 27.0843 3.26138L27.1195 3.2773C27.4233 3.41232 27.6821 3.59516 27.8959 3.82582C28.1153 4.05086 28.2839 4.30683 28.402 4.59375C28.5202 4.88068 28.5794 5.17321 28.5794 5.47138C28.5794 5.7808 28.5175 6.07899 28.3938 6.3659C28.27 6.6472 28.0954 6.90036 27.8704 7.1254C27.651 7.3448 27.3896 7.51921 27.0858 7.6486C26.782 7.778 26.45 7.84269 26.09 7.84269C25.7187 7.84269 25.3811 7.778 25.0773 7.6486C24.7735 7.51358 24.5117 7.33355 24.2923 7.10852C24.0729 6.87786 23.9042 6.61907 23.786 6.33215C23.668 6.04523 23.6088 5.74987 23.6088 5.44608C23.6088 5.13665 23.6707 4.83848 23.7945 4.55156C23.9126 4.27768 24.077 4.03456 24.2875 3.82219L24.3178 3.79207C24.5429 3.56703 24.8071 3.38982 25.1109 3.26042C25.4147 3.13103 25.7466 3.06633 26.1067 3.06633ZM5.74582 3.09165L7.79645 7.80894H6.71628L6.24371 6.70346H4.41249L3.93992 7.80894H2.85132L4.91038 3.09165H5.74582ZM11.7861 3.09165L13.0856 4.76253L14.3852 3.09165H15.4907L13.6257 5.47983L15.4316 7.80894H14.3262L13.0856 6.20557L11.8536 7.80894H10.7312L12.5456 5.47983L10.6722 3.09165H11.7861ZM20.0273 3.07004V6.22666H20.8463L19.6049 7.24542V3.36411L20.0273 3.07004ZM26.09 3.97772C25.7806 3.97772 25.516 4.05086 25.2966 4.19713C25.0828 4.3434 24.9196 4.52906 24.8071 4.75409C24.6946 4.97913 24.6383 5.2126 24.6383 5.45452C24.6383 5.70768 24.6976 5.94959 24.8157 6.18025C24.9337 6.40529 25.0997 6.58813 25.3134 6.72877C25.5328 6.86942 25.7944 6.93974 26.0982 6.93974C26.4077 6.93974 26.6693 6.86661 26.883 6.72033C27.097 6.56844 27.26 6.37997 27.3725 6.15492C27.485 5.92426 27.5415 5.68799 27.5415 5.44608C27.5415 5.19291 27.4824 4.9538 27.3642 4.72877C27.2461 4.50374 27.0773 4.32371 26.8577 4.18869C26.6439 4.04804 26.3881 3.97772 26.09 3.97772ZM5.33232 4.33215L4.64034 5.81738H5.99899L5.33232 4.33215Z" fill="#5A29E4"/>
</g>
<defs>
<filter id="filter0_d_59_1778" x="0.0186737" y="0.225247" width="40.6013" height="12.3707" filterUnits="userSpaceOnUse" color-interpolation-filters="sRGB">
<feFlood flood-opacity="0" result="BackgroundImageFix"/>
<feColorMatrix in="SourceAlpha" type="matrix" values="0 0 0 0 0 0 0 0 0 0 0 0 0 0 0 0 0 0 127 0" result="hardAlpha"/>
<feOffset dx="0.944215" dy="0.944215"/>
<feGaussianBlur stdDeviation="1.88843"/>
<feComposite in2="hardAlpha" operator="out"/>
<feColorMatrix type="matrix" values="0 0 0 0 0 0 0 0 0 0 0 0 0 0 0 0 0 0 0.3 0"/>
<feBlend mode="normal" in2="BackgroundImageFix" result="effect1_dropShadow_59_1778"/>
<feBlend mode="normal" in="SourceGraphic" in2="effect1_dropShadow_59_1778" result="shape"/>
</filter>
</defs>
</svg>
