<svg width="42" height="35" viewBox="0 0 42 35" fill="none" xmlns="http://www.w3.org/2000/svg">
<g opacity="0.9" filter="url(#filter0_d_59_1770)">
<path d="M10.5169 3.18184C8.63125 3.18184 7.23597 4.83225 7.29842 6.62214C7.35836 8.34173 7.2805 10.5688 6.71981 12.385C6.15744 14.2065 5.20635 15.3604 3.65283 15.5086V17.1811C5.20635 17.3293 6.15744 18.4831 6.71981 20.3047C7.2805 22.1209 7.35836 24.3479 7.29842 26.0675C7.23597 27.8571 8.63124 29.5078 10.5172 29.5078H29.8388C31.7245 29.5078 33.1195 27.8574 33.057 26.0675C32.9971 24.3479 33.0749 22.1209 33.6356 20.3047C34.1983 18.4831 35.1468 17.3293 36.7004 17.1811V15.5086C35.1468 15.3604 34.1983 14.2065 33.6356 12.385C33.0749 10.5691 32.9971 8.34173 33.057 6.62214C33.1195 4.83253 31.7245 3.18184 29.8388 3.18184H10.5169ZM26.0579 19.3872C26.0579 21.8517 24.2196 23.3464 21.1689 23.3464H15.9756C15.6663 23.3464 15.4155 23.0957 15.4155 22.7863V9.90337C15.4155 9.59402 15.6663 9.34324 15.9756 9.34324H21.1392C23.683 9.34324 25.3524 10.7212 25.3524 12.8368C25.3524 14.3217 24.2294 15.6511 22.7985 15.8838V15.9614C24.7464 16.1751 26.0579 17.5239 26.0579 19.3872ZM20.6026 11.1188H17.6415V15.3013H20.1354C22.0634 15.3013 23.1265 14.525 23.1265 13.1373C23.1265 11.8369 22.2124 11.1188 20.6026 11.1188ZM17.6415 16.961V21.5703H20.7115C22.7187 21.5703 23.7821 20.7648 23.7821 19.2511C23.7821 17.737 22.689 16.9607 20.5824 16.9607L17.6415 16.961Z" fill="#7E13F8"/>
<path d="M26.0579 19.3872C26.0579 21.8517 24.2196 23.3464 21.1689 23.3464H15.9756C15.6663 23.3464 15.4155 23.0957 15.4155 22.7863V9.90337C15.4155 9.59402 15.6663 9.34324 15.9756 9.34324H21.1392C23.683 9.34324 25.3524 10.7212 25.3524 12.8368C25.3524 14.3217 24.2294 15.6511 22.7985 15.8838V15.9614C24.7464 16.1751 26.0579 17.5239 26.0579 19.3872ZM20.6026 11.1188H17.6415V15.3013H20.1354C22.0634 15.3013 23.1265 14.525 23.1265 13.1373C23.1265 11.8369 22.2124 11.1188 20.6026 11.1188ZM17.6415 16.961V21.5703H20.7115C22.7187 21.5703 23.7821 20.7648 23.7821 19.2511C23.7821 17.737 22.689 16.9607 20.5824 16.9607L17.6415 16.961Z" fill="white"/>
</g>
<defs>
<filter id="filter0_d_59_1770" x="0.820187" y="0.349194" width="40.6013" height="33.8797" filterUnits="userSpaceOnUse" color-interpolation-filters="sRGB">
<feFlood flood-opacity="0" result="BackgroundImageFix"/>
<feColorMatrix in="SourceAlpha" type="matrix" values="0 0 0 0 0 0 0 0 0 0 0 0 0 0 0 0 0 0 127 0" result="hardAlpha"/>
<feOffset dx="0.944215" dy="0.944215"/>
<feGaussianBlur stdDeviation="1.88843"/>
<feComposite in2="hardAlpha" operator="out"/>
<feColorMatrix type="matrix" values="0 0 0 0 0 0 0 0 0 0 0 0 0 0 0 0 0 0 0.3 0"/>
<feBlend mode="normal" in2="BackgroundImageFix" result="effect1_dropShadow_59_1770"/>
<feBlend mode="normal" in="SourceGraphic" in2="effect1_dropShadow_59_1770" result="shape"/>
</filter>
</defs>
</svg>
