<svg width="41" height="42" viewBox="0 0 41 42" fill="none" xmlns="http://www.w3.org/2000/svg">
<g opacity="0.9" filter="url(#filter0_d_59_1773)">
<path d="M2.95044 3.40498H35.998V36.4525H2.95044V3.40498Z" fill="#F26522"/>
<path fill-rule="evenodd" clip-rule="evenodd" d="M16.5743 24.0544H21.6291V22.6792H18.1353V20.5482H21.3566V19.173H18.1353V17.1783H21.6291V15.8031H16.5743V24.0544ZM28.3813 21.8119C28.3813 20.1641 28.2698 19.8049 26.0521 19.2721C24.6273 18.9252 24.6026 18.9004 24.6026 17.9588C24.6026 17.2403 24.7884 17.0173 25.8415 17.0173C26.5601 17.0173 27.3654 17.1164 28.0468 17.265L28.2202 15.9518C27.4025 15.7659 26.5353 15.6792 25.8167 15.6792C23.7229 15.6792 23.0415 16.4226 23.0415 17.9217C23.0415 19.6686 23.3141 20.0526 25.3088 20.4987C26.7955 20.8208 26.8203 20.8951 26.8203 21.8119C26.8203 22.6048 26.6344 22.8402 25.507 22.8402C24.6893 22.8402 23.9459 22.6916 23.1778 22.4562L22.9052 23.6827C23.4504 23.9429 24.5406 24.1783 25.4822 24.1783C27.9229 24.1783 28.3813 23.373 28.3813 21.8119ZM31.2556 18.7394C31.2556 17.4757 31.8627 17.2279 33.3246 17.2279C33.5848 17.2279 34.1299 17.265 34.4892 17.3394L34.5883 16.0757C34.2167 15.9889 33.622 15.927 33.1636 15.927C30.9087 15.927 29.7441 16.6208 29.7441 18.8013V21.8119C29.7441 23.2367 30.1654 24.1783 32.2963 24.1783C34.2414 24.1783 34.8361 23.2119 34.8361 21.9234V21.3287C34.8361 19.904 34.2291 19.2845 32.73 19.2845C32.1972 19.2845 31.6892 19.3588 31.2556 19.5075V18.7394ZM32.4946 20.5854C33.0397 20.5854 33.3246 20.7712 33.3246 21.3659V21.973C33.3246 22.6048 33.0769 22.8774 32.2963 22.8774C31.5158 22.8774 31.2556 22.6544 31.2556 21.973V20.8456C31.6025 20.6969 32.0485 20.5854 32.4946 20.5854Z" fill="white"/>
</g>
<defs>
<filter id="filter0_d_59_1773" x="0.117795" y="0.572339" width="40.6013" height="40.6012" filterUnits="userSpaceOnUse" color-interpolation-filters="sRGB">
<feFlood flood-opacity="0" result="BackgroundImageFix"/>
<feColorMatrix in="SourceAlpha" type="matrix" values="0 0 0 0 0 0 0 0 0 0 0 0 0 0 0 0 0 0 127 0" result="hardAlpha"/>
<feOffset dx="0.944215" dy="0.944215"/>
<feGaussianBlur stdDeviation="1.88843"/>
<feComposite in2="hardAlpha" operator="out"/>
<feColorMatrix type="matrix" values="0 0 0 0 0 0 0 0 0 0 0 0 0 0 0 0 0 0 0.3 0"/>
<feBlend mode="normal" in2="BackgroundImageFix" result="effect1_dropShadow_59_1773"/>
<feBlend mode="normal" in="SourceGraphic" in2="effect1_dropShadow_59_1773" result="shape"/>
</filter>
</defs>
</svg>
