<svg width="40" height="37" viewBox="0 0 40 37" fill="none" xmlns="http://www.w3.org/2000/svg">
<g opacity="0.9" filter="url(#filter0_d_59_1772)">
<path d="M12.6284 13.6383L18.7192 10.0184C18.8717 9.92775 19.0596 9.92775 19.212 10.0184L25.303 13.6383C25.4553 13.729 25.5494 13.8964 25.5494 14.0776V21.3176C25.5494 21.4987 25.4553 21.6662 25.303 21.7569L19.212 25.3769C19.0596 25.4675 18.8717 25.4675 18.7192 25.3769L12.6284 21.7569C12.4759 21.6663 12.382 21.4988 12.382 21.3176V14.0776C12.3821 13.8964 12.4761 13.729 12.6284 13.6383Z" fill="#8080F2"/>
<path d="M34.7561 17.1042L27.4709 4.05733C27.2063 3.5856 26.7175 3.23763 26.1883 3.23763H11.6178C11.0885 3.23763 10.5996 3.5856 10.3349 4.05733L3.04979 17.0755C2.78516 17.5473 2.78516 18.1428 3.04979 18.6147L10.3349 31.5547C10.5996 32.0264 11.0885 32.2676 11.6178 32.2676H26.1882C26.7173 32.2676 27.2063 32.0337 27.4708 31.5618L34.7559 18.6007C35.0208 18.1291 35.0208 17.576 34.7561 17.1042ZM28.7236 23.3781C28.7236 23.5699 28.6114 23.7473 28.4499 23.8433L19.1702 29.3548C19.0088 29.4507 18.8066 29.4507 18.6452 29.3548L9.35837 23.8433C9.19697 23.7473 9.08404 23.57 9.08404 23.3781V12.3551C9.08404 12.1632 9.19533 11.9859 9.35685 11.8899L18.6362 6.37844C18.7976 6.2824 18.9995 6.2824 19.1609 6.37844L28.4484 11.8899C28.6099 11.9859 28.7236 12.1632 28.7236 12.3551V23.3781Z" fill="#4B32C3"/>
</g>
<defs>
<filter id="filter0_d_59_1772" x="0.0186737" y="0.40498" width="39.657" height="36.5837" filterUnits="userSpaceOnUse" color-interpolation-filters="sRGB">
<feFlood flood-opacity="0" result="BackgroundImageFix"/>
<feColorMatrix in="SourceAlpha" type="matrix" values="0 0 0 0 0 0 0 0 0 0 0 0 0 0 0 0 0 0 127 0" result="hardAlpha"/>
<feOffset dx="0.944215" dy="0.944215"/>
<feGaussianBlur stdDeviation="1.88843"/>
<feComposite in2="hardAlpha" operator="out"/>
<feColorMatrix type="matrix" values="0 0 0 0 0 0 0 0 0 0 0 0 0 0 0 0 0 0 0.3 0"/>
<feBlend mode="normal" in2="BackgroundImageFix" result="effect1_dropShadow_59_1772"/>
<feBlend mode="normal" in="SourceGraphic" in2="effect1_dropShadow_59_1772" result="shape"/>
</filter>
</defs>
</svg>
