<svg width="31" height="42" viewBox="0 0 31 42" fill="none" xmlns="http://www.w3.org/2000/svg">
<g opacity="0.9" filter="url(#filter0_d_59_1749)">
<path d="M8.82604 36.7686C11.8664 36.7686 14.334 34.3011 14.334 31.2607V25.7528H8.82604C5.78566 25.7528 3.31812 28.2203 3.31812 31.2607C3.31812 34.3011 5.78566 36.7686 8.82604 36.7686Z" fill="#0ACF83"/>
<path d="M3.31812 20.2449C3.31812 17.2045 5.78566 14.7369 8.82604 14.7369H14.334V25.7528H8.82604C5.78566 25.7528 3.31812 23.2852 3.31812 20.2449Z" fill="#A259FF"/>
<path d="M3.31812 9.22901C3.31812 6.18864 5.78566 3.72109 8.82604 3.72109H14.334V14.7369H8.82604C5.78566 14.7369 3.31812 12.2694 3.31812 9.22901Z" fill="#F24E1E"/>
<path d="M14.334 3.72109H19.8419C22.8822 3.72109 25.3498 6.18864 25.3498 9.22901C25.3498 12.2694 22.8822 14.7369 19.8419 14.7369H14.334V3.72109Z" fill="#FF7262"/>
<path d="M25.3498 20.2449C25.3498 23.2852 22.8822 25.7528 19.8419 25.7528C16.8015 25.7528 14.334 23.2852 14.334 20.2449C14.334 17.2045 16.8015 14.7369 19.8419 14.7369C22.8822 14.7369 25.3498 17.2045 25.3498 20.2449Z" fill="#1ABCFE"/>
</g>
<defs>
<filter id="filter0_d_59_1749" x="0.485471" y="0.888448" width="29.5855" height="40.6012" filterUnits="userSpaceOnUse" color-interpolation-filters="sRGB">
<feFlood flood-opacity="0" result="BackgroundImageFix"/>
<feColorMatrix in="SourceAlpha" type="matrix" values="0 0 0 0 0 0 0 0 0 0 0 0 0 0 0 0 0 0 127 0" result="hardAlpha"/>
<feOffset dx="0.944215" dy="0.944215"/>
<feGaussianBlur stdDeviation="1.88843"/>
<feComposite in2="hardAlpha" operator="out"/>
<feColorMatrix type="matrix" values="0 0 0 0 0 0 0 0 0 0 0 0 0 0 0 0 0 0 0.3 0"/>
<feBlend mode="normal" in2="BackgroundImageFix" result="effect1_dropShadow_59_1749"/>
<feBlend mode="normal" in="SourceGraphic" in2="effect1_dropShadow_59_1749" result="shape"/>
</filter>
</defs>
</svg>
