<svg width="42" height="41" viewBox="0 0 42 41" fill="none" xmlns="http://www.w3.org/2000/svg">
<g opacity="0.9" filter="url(#filter0_d_59_1764)">
<path fill-rule="evenodd" clip-rule="evenodd" d="M36.1762 18.3736L21.7471 4.35761C20.9167 3.55025 19.569 3.55025 18.7375 4.35761L15.7413 7.26824L19.5421 10.9605C20.4254 10.6706 21.4382 10.8651 22.1423 11.5491C22.8498 12.2374 23.0485 13.2297 22.7428 14.0906L26.4058 17.649C27.292 17.3524 28.3146 17.5444 29.0224 18.2331C30.0115 19.1936 30.0115 20.7506 29.0224 21.7119C28.0328 22.6732 26.4301 22.6732 25.4402 21.7119C24.6962 20.9884 24.5123 19.9267 24.8891 19.0362L21.473 15.7177L21.4726 24.4506C21.7137 24.5669 21.9415 24.7215 22.1423 24.9159C23.1315 25.8765 23.1315 27.4335 22.1423 28.3955C21.1528 29.3564 19.5494 29.3564 18.5613 28.3955C17.5721 27.4335 17.5721 25.8765 18.5613 24.9159C18.8057 24.6789 19.0885 24.4996 19.3902 24.3791V15.5648C19.0885 15.445 18.806 15.2668 18.5613 15.0279C17.8118 14.3009 17.6316 13.2325 18.0156 12.3385L14.2692 8.69838L4.37554 18.3088C3.54409 19.1169 3.54409 20.4262 4.37554 21.2335L18.8046 35.2499C19.6353 36.0572 20.9827 36.0572 21.8146 35.2499L36.1762 21.2987C37.0072 20.491 37.0072 19.181 36.1762 18.3736Z" fill="#DE4C36"/>
</g>
<defs>
<filter id="filter0_d_59_1764" x="0.919308" y="0.919446" width="40.6013" height="39.657" filterUnits="userSpaceOnUse" color-interpolation-filters="sRGB">
<feFlood flood-opacity="0" result="BackgroundImageFix"/>
<feColorMatrix in="SourceAlpha" type="matrix" values="0 0 0 0 0 0 0 0 0 0 0 0 0 0 0 0 0 0 127 0" result="hardAlpha"/>
<feOffset dx="0.944215" dy="0.944215"/>
<feGaussianBlur stdDeviation="1.88843"/>
<feComposite in2="hardAlpha" operator="out"/>
<feColorMatrix type="matrix" values="0 0 0 0 0 0 0 0 0 0 0 0 0 0 0 0 0 0 0.3 0"/>
<feBlend mode="normal" in2="BackgroundImageFix" result="effect1_dropShadow_59_1764"/>
<feBlend mode="normal" in="SourceGraphic" in2="effect1_dropShadow_59_1764" result="shape"/>
</filter>
</defs>
</svg>
