<svg width="40" height="40" viewBox="0 0 40 40" fill="none" xmlns="http://www.w3.org/2000/svg">
<g opacity="0.9" filter="url(#filter0_d_59_1765)">
<path fill-rule="evenodd" clip-rule="evenodd" d="M18.9879 3.75209C10.0771 3.75209 2.85132 10.7701 2.85132 19.4277C2.85132 26.3535 7.47495 32.2294 13.8865 34.3022C14.693 34.4473 14.9891 33.9621 14.9891 33.5481C14.9891 33.1743 14.9741 31.9395 14.9671 30.6296C10.4779 31.5779 9.53064 28.7801 9.53064 28.7801C8.7966 26.9682 7.73896 26.4864 7.73896 26.4864C6.27488 25.5135 7.84932 25.5335 7.84932 25.5335C9.46972 25.6441 10.3229 27.1489 10.3229 27.1489C11.7622 29.5453 14.0979 28.8525 15.0187 28.452C15.1635 27.4388 15.5817 26.7473 16.0432 26.3559C12.4591 25.9595 8.69132 24.6154 8.69132 18.6089C8.69132 16.8975 9.32168 15.4992 10.3539 14.4014C10.1864 14.0066 9.63405 12.4122 10.5103 10.253C10.5103 10.253 11.8653 9.83174 14.949 11.8598C16.2361 11.5125 17.6166 11.3383 18.9879 11.3324C20.3593 11.3383 21.7408 11.5125 23.0304 11.8598C26.1103 9.83174 27.4635 10.253 27.4635 10.253C28.3418 12.4122 27.7892 14.0066 27.6217 14.4014C28.6563 15.4992 29.2824 16.8975 29.2824 18.6089C29.2824 24.6297 25.5075 25.9553 21.9142 26.3434C22.493 26.8299 23.0087 27.7838 23.0087 29.2463C23.0087 31.3437 22.99 33.0318 22.99 33.5481C22.99 33.9652 23.2805 34.454 24.0984 34.3001C30.5065 32.225 35.1243 26.3512 35.1243 19.4277C35.1243 10.7701 27.8996 3.75209 18.9879 3.75209ZM8.89501 26.0823C8.85947 26.1601 8.73334 26.1835 8.61844 26.13C8.5014 26.0789 8.43566 25.9727 8.47361 25.8946C8.50835 25.8144 8.63474 25.7921 8.75151 25.8458C8.86882 25.8969 8.93562 26.0041 8.89501 26.0823ZM9.68875 26.7703C9.61179 26.8396 9.46135 26.8074 9.35927 26.6979C9.25372 26.5886 9.23395 26.4424 9.31197 26.3721C9.39134 26.3028 9.53724 26.3352 9.64305 26.4445C9.7486 26.5551 9.76918 26.7002 9.68875 26.7703ZM10.2333 27.6506C10.1344 27.7173 9.97275 27.6547 9.87281 27.5153C9.77394 27.3759 9.77394 27.2088 9.87495 27.1418C9.97516 27.0748 10.1344 27.135 10.2357 27.2734C10.3343 27.4151 10.3343 27.5823 10.2333 27.6506ZM11.1542 28.6701C11.0658 28.7648 10.8774 28.7394 10.7395 28.6101C10.5984 28.4837 10.5591 28.3043 10.6478 28.2096C10.7374 28.1146 10.9268 28.1413 11.0658 28.2695C11.2058 28.3957 11.2485 28.5764 11.1542 28.6701ZM12.3444 29.0142C12.3054 29.137 12.124 29.1928 11.9412 29.1406C11.7587 29.0869 11.6392 28.9431 11.6761 28.819C11.7141 28.6955 11.8963 28.6373 12.0804 28.6931C12.2627 28.7466 12.3824 28.8894 12.3444 29.0142ZM13.6989 29.1602C13.7035 29.2895 13.5485 29.3967 13.3566 29.399C13.1637 29.4032 13.0077 29.2986 13.0055 29.1714C13.0055 29.0408 13.157 28.9346 13.35 28.9315C13.5418 28.9279 13.6989 29.0317 13.6989 29.1602ZM15.0296 29.1107C15.0526 29.2368 14.9192 29.3664 14.7287 29.4009C14.5414 29.4341 14.368 29.3562 14.3442 29.2311C14.3209 29.1018 14.4567 28.9723 14.6437 28.9388C14.8345 28.9066 15.0053 28.9824 15.0296 29.1107Z" fill="#161614"/>
</g>
<defs>
<filter id="filter0_d_59_1765" x="0.0186737" y="0.919446" width="39.8267" height="38.1307" filterUnits="userSpaceOnUse" color-interpolation-filters="sRGB">
<feFlood flood-opacity="0" result="BackgroundImageFix"/>
<feColorMatrix in="SourceAlpha" type="matrix" values="0 0 0 0 0 0 0 0 0 0 0 0 0 0 0 0 0 0 127 0" result="hardAlpha"/>
<feOffset dx="0.944215" dy="0.944215"/>
<feGaussianBlur stdDeviation="1.88843"/>
<feComposite in2="hardAlpha" operator="out"/>
<feColorMatrix type="matrix" values="0 0 0 0 0 0 0 0 0 0 0 0 0 0 0 0 0 0 0.3 0"/>
<feBlend mode="normal" in2="BackgroundImageFix" result="effect1_dropShadow_59_1765"/>
<feBlend mode="normal" in="SourceGraphic" in2="effect1_dropShadow_59_1765" result="shape"/>
</filter>
</defs>
</svg>
