<svg width="40" height="42" viewBox="0 0 40 42" fill="none" xmlns="http://www.w3.org/2000/svg">
<g opacity="0.9" filter="url(#filter0_d_59_1752)">
<path d="M2.95044 15.6811C2.95044 11.4947 2.95044 9.40153 3.74189 7.80253C4.43807 6.39601 5.54893 5.25248 6.91527 4.53582C8.46858 3.72109 10.502 3.72109 14.5688 3.72109H23.4354C27.5022 3.72109 29.5356 3.72109 31.0889 4.53582C32.4553 5.25248 33.5661 6.39601 34.2623 7.80253C35.0537 9.40153 35.0537 11.4947 35.0537 15.6811V24.8086C35.0537 28.995 35.0537 31.0882 34.2623 32.6872C33.5661 34.0937 32.4553 35.2372 31.0889 35.9539C29.5356 36.7686 27.5022 36.7686 23.4354 36.7686H14.5688C10.502 36.7686 8.46858 36.7686 6.91527 35.9539C5.54893 35.2372 4.43807 34.0937 3.74189 32.6872C2.95044 31.0882 2.95044 28.995 2.95044 24.8086V15.6811Z" fill="#330000"/>
<path d="M18.5073 24.4894H13.5325L12.5203 27.8091C12.4922 27.9325 12.3818 28.0198 12.2618 28.0138H9.74213C9.59844 28.0138 9.54819 27.9304 9.59138 27.7637L13.8985 14.6667C13.9417 14.5303 13.9847 14.3749 14.0278 14.2005C14.0841 13.8972 14.113 13.5888 14.1139 13.2797C14.1016 13.1884 14.1796 13.1077 14.2647 13.1205H17.6889C17.7892 13.1205 17.8466 13.1584 17.8612 13.2342L22.7499 27.7864C22.7929 27.9381 22.7498 28.0139 22.6206 28.0138H19.8209C19.7227 28.0253 19.629 27.956 19.6056 27.8546L18.5073 24.4894ZM14.3077 21.6245H17.7104C17.1514 19.6579 16.5205 17.7172 16.0091 15.7354C15.4574 17.7206 14.8555 19.6978 14.3077 21.6245Z" fill="#FF9A00"/>
<path d="M25.6569 15.5307C25.4373 15.54 25.2183 15.5002 25.0141 15.414C24.81 15.3278 24.6255 15.1971 24.4725 15.0304C24.3199 14.8565 24.2014 14.6525 24.1238 14.4301C24.0462 14.2076 24.011 13.9712 24.0202 13.7344C24.0123 13.4999 24.0515 13.2663 24.135 13.0488C24.2185 12.8314 24.3445 12.6349 24.5047 12.4724C24.6635 12.3115 24.8508 12.1855 25.056 12.1016C25.2612 12.0177 25.48 11.9776 25.7 11.9836C26.2169 11.9836 26.6225 12.1465 26.9168 12.4724C27.0654 12.6418 27.1808 12.8404 27.2566 13.057C27.3323 13.2735 27.3669 13.5037 27.3583 13.7344C27.3673 13.9721 27.3309 14.2094 27.2514 14.432C27.1718 14.6547 27.0507 14.8582 26.8952 15.0304C26.7327 15.1995 26.5388 15.3313 26.3257 15.4174C26.1126 15.5035 25.8849 15.5421 25.6569 15.5307ZM24.1709 27.7863V16.9176C24.1709 16.7812 24.2281 16.713 24.3432 16.713H26.9922C27.1069 16.713 27.1644 16.7812 27.1645 16.9176V27.7863C27.1645 27.938 27.107 28.0138 26.9922 28.0137H24.3648C24.2356 28.0137 24.171 27.9379 24.1709 27.7863Z" fill="#FF9A00"/>
</g>
<defs>
<filter id="filter0_d_59_1752" x="0.117795" y="0.888448" width="39.657" height="40.6012" filterUnits="userSpaceOnUse" color-interpolation-filters="sRGB">
<feFlood flood-opacity="0" result="BackgroundImageFix"/>
<feColorMatrix in="SourceAlpha" type="matrix" values="0 0 0 0 0 0 0 0 0 0 0 0 0 0 0 0 0 0 127 0" result="hardAlpha"/>
<feOffset dx="0.944215" dy="0.944215"/>
<feGaussianBlur stdDeviation="1.88843"/>
<feComposite in2="hardAlpha" operator="out"/>
<feColorMatrix type="matrix" values="0 0 0 0 0 0 0 0 0 0 0 0 0 0 0 0 0 0 0.3 0"/>
<feBlend mode="normal" in2="BackgroundImageFix" result="effect1_dropShadow_59_1752"/>
<feBlend mode="normal" in="SourceGraphic" in2="effect1_dropShadow_59_1752" result="shape"/>
</filter>
</defs>
</svg>
