<svg width="42" height="41" viewBox="0 0 42 41" fill="none" xmlns="http://www.w3.org/2000/svg">
<g opacity="0.9" filter="url(#filter0_d_59_1757)">
<path fill-rule="evenodd" clip-rule="evenodd" d="M3.75195 3.21077H36.7995V36.2583H3.75195V3.21077Z" fill="#F7DF1E"/>
<path fill-rule="evenodd" clip-rule="evenodd" d="M12.4414 30.8277L14.9704 29.2972C15.4583 30.1622 15.9021 30.8942 16.9667 30.8942C17.9872 30.8942 18.6306 30.495 18.6306 28.9422V18.3828H21.7362V28.9862C21.7362 32.2028 19.8507 33.6669 17.0999 33.6669C14.6155 33.6669 13.1734 32.3805 12.4414 30.8277Z" fill="black"/>
<path fill-rule="evenodd" clip-rule="evenodd" d="M23.4231 30.4949L25.9518 29.0308C26.6175 30.1179 27.4826 30.9164 29.0132 30.9164C30.3 30.9164 31.1206 30.2731 31.1206 29.3857C31.1206 28.3209 30.2777 27.9437 28.8579 27.3228L28.0817 26.9898C25.841 26.0361 24.3547 24.8382 24.3547 22.3092C24.3547 19.98 26.1293 18.2052 28.9024 18.2052C30.8767 18.2052 32.2965 18.893 33.3168 20.6899L30.8988 22.2426C30.3663 21.2888 29.7897 20.9118 28.9024 20.9118C27.9929 20.9118 27.4161 21.4885 27.4161 22.2426C27.4161 23.1744 27.9929 23.5516 29.3238 24.1284L30.1001 24.4611C32.74 25.5925 34.2263 26.746 34.2263 29.3413C34.2263 32.1366 32.0302 33.6672 29.0798 33.6672C26.196 33.6672 24.3325 32.2918 23.4231 30.4949Z" fill="black"/>
</g>
<defs>
<filter id="filter0_d_59_1757" x="0.919308" y="0.378121" width="40.6013" height="40.6012" filterUnits="userSpaceOnUse" color-interpolation-filters="sRGB">
<feFlood flood-opacity="0" result="BackgroundImageFix"/>
<feColorMatrix in="SourceAlpha" type="matrix" values="0 0 0 0 0 0 0 0 0 0 0 0 0 0 0 0 0 0 127 0" result="hardAlpha"/>
<feOffset dx="0.944215" dy="0.944215"/>
<feGaussianBlur stdDeviation="1.88843"/>
<feComposite in2="hardAlpha" operator="out"/>
<feColorMatrix type="matrix" values="0 0 0 0 0 0 0 0 0 0 0 0 0 0 0 0 0 0 0.3 0"/>
<feBlend mode="normal" in2="BackgroundImageFix" result="effect1_dropShadow_59_1757"/>
<feBlend mode="normal" in="SourceGraphic" in2="effect1_dropShadow_59_1757" result="shape"/>
</filter>
</defs>
</svg>
