<svg width="37" height="41" viewBox="0 0 37 41" fill="none" xmlns="http://www.w3.org/2000/svg">
<g opacity="0.9" filter="url(#filter0_d_59_1766)">
<path d="M30.0874 19.5584C30.0874 17.9081 28.7495 16.5703 27.0992 16.5703C26.993 16.5703 26.8883 16.576 26.7851 16.5868L30.8893 4.48184H13.4477L17.5463 16.5763C17.4861 16.5726 17.4257 16.5703 17.3647 16.5703C15.7144 16.5703 14.3765 17.9081 14.3765 19.5584C14.3765 20.8925 15.2507 22.0218 16.4573 22.406C15.82 23.5099 15.0181 24.5041 14.1077 25.3631C12.8697 26.531 11.4529 27.4166 9.92042 27.9623C8.09597 27.025 7.23436 24.9406 8.01183 23.113C8.09955 22.9066 8.18924 22.6974 8.27485 22.4891C9.59668 22.1806 10.5816 20.9957 10.5816 19.5799C10.5816 17.9296 9.24374 16.5918 7.59335 16.5918C5.94304 16.5918 4.60515 17.9296 4.60515 19.5799C4.60515 20.5919 5.10872 21.4858 5.87838 22.0264C5.13879 23.7103 4.0516 25.4727 3.71289 27.5152C3.30697 29.9632 3.71158 32.5616 5.82875 34.029C10.7595 37.4464 16.1117 31.9104 21.755 30.5188C23.8002 30.0145 26.0452 30.0958 27.8471 29.0521C29.2002 28.2684 30.0922 26.9696 30.3454 25.5115C30.5955 24.071 30.2309 22.6368 29.3924 21.4738C29.8261 20.9551 30.0874 20.2874 30.0874 19.5584Z" fill="#99425B"/>
<path d="M29.6264 25.3866C29.4066 26.6525 28.6247 27.7583 27.4813 28.4206C26.4154 29.038 25.1381 29.2222 23.7857 29.4173C23.0613 29.5217 22.3121 29.6298 21.5803 29.8103C19.6452 30.2874 17.7709 31.2184 15.9583 32.1187C12.331 33.9205 9.19834 35.4763 6.24452 33.4292C4.08085 31.9295 4.18076 29.155 4.43284 27.6346C4.66645 26.226 5.29803 24.9288 5.9088 23.6742C6.01433 23.4573 6.11775 23.2444 6.21839 23.0333C6.52111 23.1543 6.8431 23.2368 7.17874 23.2743C6.55702 25.3262 7.53474 27.5572 9.58696 28.6115L9.86779 28.7558L10.1653 28.6499C11.7876 28.0721 13.2826 27.1449 14.6086 25.8939C15.4656 25.0853 16.2026 24.1907 16.8083 23.2348C16.9898 23.2621 17.1756 23.2765 17.3647 23.2765C19.2482 23.2765 20.8079 21.8684 21.0493 20.0498C21.8202 20.0216 22.6391 20.0213 23.4146 20.0495C23.6558 21.8683 25.2156 23.2765 27.0991 23.2765C27.8867 23.2765 28.6172 23.0297 29.219 22.6104C29.6368 23.4657 29.7928 24.428 29.6264 25.3866ZM7.59335 17.3216C8.83869 17.3216 9.85174 18.3347 9.85174 19.5799C9.85174 20.0272 9.72052 20.4443 9.49515 20.7956C9.11967 21.381 8.48174 21.7824 7.7485 21.8324C7.6972 21.8359 7.64553 21.8383 7.59335 21.8383C7.31587 21.8383 7.05 21.7877 6.8042 21.6958C6.30699 21.5097 5.89267 21.153 5.63206 20.6974C5.4434 20.3676 5.33496 19.9863 5.33496 19.5799C5.33496 18.3347 6.34807 17.3216 7.59335 17.3216ZM15.1063 19.5585C15.1063 18.4271 15.9426 17.4876 17.0295 17.3251C17.1389 17.3087 17.2508 17.3001 17.3647 17.3001C18.0886 17.3001 18.7332 17.6431 19.1466 18.1746C19.2494 18.3066 19.3385 18.4498 19.4103 18.6028C19.5465 18.8933 19.6231 19.217 19.6231 19.5585C19.6231 19.739 19.6012 19.9146 19.561 20.0829C19.3408 21.0043 18.5552 21.7085 17.5925 21.8054C17.5176 21.8129 17.4416 21.8169 17.3647 21.8169C16.9138 21.8169 16.4937 21.6835 16.1407 21.455C15.5189 21.0522 15.1063 20.3528 15.1063 19.5585ZM24.532 16.873C24.0482 17.3359 23.6884 17.9274 23.5092 18.5924C22.6729 18.5611 21.7861 18.5611 20.9547 18.5924C20.7637 17.8836 20.3675 17.2582 19.8347 16.7832L22.1716 12.0579L24.532 16.873ZM14.4657 5.21171H29.8712L26.2326 15.9432C26.0749 15.9811 25.9211 16.0288 25.7718 16.0861L22.1773 8.75354L18.5727 16.0423C18.4169 15.9886 18.2564 15.9454 18.092 15.9127L14.4657 5.21171ZM29.3575 19.5585C29.3575 19.785 29.3237 20.0035 29.2614 20.2099C29.1131 20.7009 28.8019 21.1217 28.391 21.4094C28.0246 21.6658 27.5793 21.8169 27.0991 21.8169C26.0564 21.8169 25.1768 21.1063 24.9182 20.1439C24.868 19.9571 24.8408 19.7609 24.8408 19.5585C24.8408 19.2498 24.9032 18.9555 25.0158 18.6872C25.0738 18.549 25.1462 18.4184 25.2293 18.2956C25.6357 17.6958 26.3216 17.3001 27.0991 17.3001C27.1704 17.3001 27.2408 17.3038 27.3104 17.3103C28.457 17.4172 29.3575 18.3844 29.3575 19.5585ZM30.8172 19.5585C30.8172 17.7433 29.5093 16.2288 27.7868 15.9052L31.9073 3.75209H12.4299L16.5567 15.93C14.8939 16.3 13.6467 17.7859 13.6467 19.5585C13.6467 20.8895 14.3501 22.0587 15.4043 22.7157C14.8973 23.4712 14.2959 24.1821 13.6069 24.8322C12.514 25.8632 11.2965 26.6451 9.98398 27.1595C8.66193 26.3291 8.10304 24.763 8.68346 23.3986L8.72893 23.2917C8.75739 23.2249 8.78585 23.158 8.81424 23.0911C10.2663 22.5846 11.3114 21.2025 11.3114 19.5799C11.3114 17.5298 9.64345 15.8619 7.59335 15.8619C5.54324 15.8619 3.87534 17.5298 3.87534 19.5799C3.87534 20.6147 4.30067 21.5518 4.98523 22.2265C4.86116 22.4909 4.73053 22.7599 4.59646 23.0352C3.97058 24.3208 3.26121 25.7778 2.99293 27.3958C2.4601 30.6092 3.31959 33.1779 5.41304 34.6288C6.68342 35.5093 7.97343 35.8554 9.27169 35.8554C11.7163 35.8554 14.1891 34.6273 16.6076 33.4259C18.3495 32.5608 20.1506 31.6662 21.9298 31.2274C22.5917 31.0641 23.2729 30.9659 23.9941 30.8619C25.4242 30.6556 26.903 30.4423 28.2128 29.6837C29.7312 28.8042 30.7706 27.329 31.0645 25.6363C31.3168 24.1832 31.0132 22.7278 30.2726 21.4935C30.6178 20.9294 30.8172 20.2668 30.8172 19.5585Z" fill="white"/>
</g>
<defs>
<filter id="filter0_d_59_1766" x="0.00622255" y="0.919446" width="36.6221" height="39.657" filterUnits="userSpaceOnUse" color-interpolation-filters="sRGB">
<feFlood flood-opacity="0" result="BackgroundImageFix"/>
<feColorMatrix in="SourceAlpha" type="matrix" values="0 0 0 0 0 0 0 0 0 0 0 0 0 0 0 0 0 0 127 0" result="hardAlpha"/>
<feOffset dx="0.944215" dy="0.944215"/>
<feGaussianBlur stdDeviation="1.88843"/>
<feComposite in2="hardAlpha" operator="out"/>
<feColorMatrix type="matrix" values="0 0 0 0 0 0 0 0 0 0 0 0 0 0 0 0 0 0 0.3 0"/>
<feBlend mode="normal" in2="BackgroundImageFix" result="effect1_dropShadow_59_1766"/>
<feBlend mode="normal" in="SourceGraphic" in2="effect1_dropShadow_59_1766" result="shape"/>
</filter>
</defs>
</svg>
