<svg width="42" height="41" viewBox="0 0 42 41" fill="none" xmlns="http://www.w3.org/2000/svg">
<g opacity="0.9" filter="url(#filter0_d_59_1775)">
<path d="M29.6335 29.04C30.8023 28.5364 32.1959 28.3531 33.994 28.3988C33.9434 28.0561 33.3009 27.649 32.8301 27.3507C32.6721 27.2506 32.5335 27.1628 32.4431 27.0938C31.7238 26.5672 30.9595 26.0174 30.1954 25.5368C29.9492 25.3835 29.5948 25.2557 29.2538 25.1326C29.0343 25.0535 28.8204 24.9763 28.6445 24.8957C28.4647 24.821 28.2198 24.7464 27.9554 24.6658C27.3273 24.4744 26.5892 24.2494 26.3518 23.9111C25.7407 23.1017 25.3142 22.1229 24.8882 21.1455C24.8442 21.0445 24.8002 20.9436 24.7561 20.8428C24.5331 20.3236 24.2851 19.7942 24.0357 19.2619C23.7571 18.6672 23.4768 18.0689 23.2277 17.4769C23.1191 17.2358 23.0366 17.0078 22.9554 16.7834C22.8515 16.4965 22.7497 16.2153 22.5984 15.9199C20.9575 12.6914 18.5302 9.98943 15.5856 8.08899C14.619 7.47074 13.5403 6.89816 12.349 6.50902C11.9852 6.39788 11.5821 6.37999 11.1751 6.36192C10.8277 6.3465 10.4775 6.33096 10.1463 6.25721H9.6742C9.40167 6.18008 9.15974 5.95746 8.93468 5.75037C8.82565 5.65005 8.72058 5.55337 8.61791 5.47864C7.92105 4.99786 7.22434 4.67709 6.39268 4.33378C6.10052 4.19645 5.26886 3.87583 4.97669 4.12779C4.79676 4.17361 4.70694 4.24227 4.66196 4.42542C4.48218 4.70022 4.63968 5.11234 4.75192 5.36415C4.97471 5.84835 5.25642 6.20258 5.5451 6.56557C5.69328 6.7519 5.84331 6.94055 5.98814 7.15026C6.05731 7.24973 6.12943 7.35144 6.20276 7.45486C6.53451 7.92276 6.89105 8.42561 7.11197 8.91324C7.4237 9.59735 7.6459 10.3205 7.86729 11.0411C8.06088 11.6712 8.25386 12.2993 8.50554 12.8974C8.70774 13.3784 9.02247 13.9278 9.31464 14.3629C9.40627 14.4902 9.52573 14.605 9.64666 14.7211C9.85195 14.9183 10.0615 15.1195 10.1463 15.3933C10.3649 15.7644 9.96358 16.827 9.71975 17.4727C9.66268 17.6238 9.61423 17.7521 9.58438 17.8433C8.99991 19.7208 9.11229 22.3312 9.78659 23.9568C9.81069 24.0141 9.83461 24.0723 9.8587 24.1309C10.1043 24.7285 10.3679 25.3699 11.0228 25.5368C11.0432 25.516 11.0451 25.5094 11.0495 25.5062C11.0548 25.5023 11.0636 25.5035 11.1128 25.4909C11.1457 25.2278 11.1736 24.9666 11.2012 24.709C11.3057 23.7344 11.4045 22.8123 11.7421 22.0335C11.903 21.6314 12.1683 21.3067 12.427 20.9903C12.566 20.8203 12.7031 20.6526 12.8209 20.4765C12.9636 20.5637 13.0157 20.7615 13.0692 20.9646C13.1 21.0816 13.1313 21.2003 13.1806 21.3008C13.2019 21.3523 13.2232 21.4042 13.2447 21.4564C13.5188 22.1233 13.8136 22.8406 14.1471 23.4989C14.8888 24.9643 15.7206 26.3839 16.6645 27.6662C16.9791 28.1241 17.4288 28.6279 17.8333 29.04C17.8948 29.0949 17.959 29.1417 18.0222 29.1878C18.1436 29.2764 18.2615 29.3624 18.3502 29.498H18.3952V29.5668C17.9685 29.4073 17.6408 29.0645 17.321 28.7298C17.1354 28.5356 16.9524 28.3442 16.7543 28.1929C15.7429 27.4144 14.5292 26.2465 13.8324 25.1246C13.6129 24.6431 13.3808 24.1743 13.1454 23.6992C13.0675 23.5418 12.9892 23.3837 12.9109 23.2242C12.9109 23.2242 12.911 23.2012 12.9109 23.1784C12.825 23.2951 12.8121 23.4117 12.7966 23.5521C12.7877 23.6321 12.778 23.7197 12.7535 23.8195C12.6702 24.1459 12.6289 24.4854 12.589 24.8135C12.489 25.6361 12.3977 26.387 11.6747 26.6816C10.5284 27.1626 9.67421 25.9029 9.31464 25.3306C8.16839 23.4302 7.85366 20.2246 8.66276 17.6372C8.72536 17.4381 8.76891 17.225 8.81233 17.0126C8.89373 16.6145 8.97469 16.2185 9.17984 15.9199C9.13474 15.6447 8.97951 15.5022 8.8278 15.3629C8.7523 15.2935 8.67767 15.225 8.61792 15.1413C8.30319 14.7064 8.03359 14.2026 7.78626 13.7218C7.42689 13.0071 7.14579 12.1862 6.87337 11.3906C6.78793 11.1411 6.70334 10.894 6.61745 10.6535C6.54073 10.4526 6.49076 10.2516 6.44145 10.0533C6.38962 9.84482 6.33853 9.63933 6.25789 9.43999C6.04541 8.97099 5.69358 8.50209 5.36693 8.06676C5.27888 7.94941 5.19266 7.8345 5.1115 7.72269C5.02394 7.59468 4.908 7.44631 4.77876 7.28092C4.14502 6.46989 3.19141 5.24953 3.69551 4.0133C4.63955 1.65491 7.94378 3.44073 9.22468 4.26512C9.35277 4.34901 9.48831 4.47081 9.62827 4.59657C9.83218 4.77981 10.0455 4.97146 10.2587 5.06652C10.5397 5.07802 10.8208 5.09519 11.1018 5.11236C11.3827 5.12952 11.6636 5.14668 11.9444 5.15817C12.0365 5.1801 12.128 5.20169 12.2189 5.22314C13.1719 5.44797 14.0622 5.65799 14.8214 6.0969C18.6874 8.40961 21.2048 10.768 23.5199 14.6606C23.8341 15.1844 24.0486 15.7361 24.267 16.2978C24.3922 16.62 24.5187 16.9454 24.6661 17.2709C25.228 18.5989 25.8576 19.9955 26.5092 21.2549C26.5911 21.4219 26.6678 21.5942 26.7445 21.7669C26.9416 22.2101 27.1396 22.6556 27.4308 23.0181C27.5355 23.1705 27.7697 23.2518 27.9941 23.3297C28.1069 23.3689 28.2172 23.4072 28.3073 23.4532C28.598 23.6057 28.9129 23.7442 29.2303 23.8838C29.7227 24.1004 30.2212 24.3196 30.6449 24.598C31.9485 25.4223 33.2073 26.4067 34.3536 27.4144C34.5853 27.6256 34.7773 27.8839 34.9691 28.1419C35.1308 28.3595 35.2924 28.5768 35.4774 28.7654V28.9714C35.1178 29.0859 34.7581 29.2003 34.3986 29.292C34.0073 29.3944 33.6383 29.4346 33.2722 29.4745C32.9022 29.5147 32.5351 29.5547 32.1509 29.6583C32.1025 29.6724 32.0529 29.687 32.0023 29.7018C31.5599 29.8319 31.0437 29.9836 30.6 30.0247C30.6224 30.0476 30.6449 30.0704 30.6449 30.0704C30.8616 30.6986 31.7828 31.2387 32.5377 31.6814C32.8009 31.8357 33.0439 31.9781 33.2298 32.1083C34.1064 32.7494 34.9155 33.528 35.5674 34.4209C35.6794 34.5351 35.7915 34.6435 35.9036 34.752C36.0163 34.8611 36.129 34.9702 36.2417 35.085C36.3178 35.1958 36.3676 35.3228 36.4166 35.4477C36.4688 35.5807 36.5201 35.7114 36.6012 35.8177V35.8864C36.4046 35.8148 36.2694 35.6718 36.1353 35.5298C36.0548 35.4446 35.9747 35.3598 35.8819 35.2911C35.6702 35.1441 35.4586 34.9844 35.247 34.8247C34.9642 34.6114 34.6814 34.3981 34.3986 34.2149C33.9636 33.9351 33.4937 33.7146 33.0215 33.4931C32.5664 33.2795 32.109 33.065 31.6788 32.7953C31.1844 32.4746 30.7123 32.1083 30.2404 31.742C29.8133 31.4214 29.3415 30.803 29.0716 30.3452C29.0036 30.2364 28.9608 30.119 28.9195 30.0059C28.8654 29.8575 28.814 29.7165 28.7119 29.6125C28.7455 29.2872 29.0557 29.2051 29.351 29.1269C29.4506 29.1006 29.5485 29.0747 29.6335 29.04Z" fill="#00546B"/>
<path d="M10.1462 8.6156C10.4159 8.54694 10.6855 8.50097 11.0677 8.50097C11.1389 8.57359 11.2278 8.6354 11.3176 8.6978C11.4544 8.79289 11.5932 8.88939 11.6746 9.02772C11.7245 9.09895 11.7567 9.17017 11.7888 9.24139C11.8291 9.33048 11.8693 9.41957 11.9443 9.50865C11.9443 10.0581 11.7871 10.4244 11.4722 10.6535C11.4722 10.6535 11.4498 10.6764 11.4274 10.6993C11.3376 10.5164 11.2534 10.3334 11.1692 10.1505C11.0848 9.96703 11.0004 9.78357 10.9103 9.60015C10.8228 9.47536 10.7217 9.36096 10.6202 9.24615C10.4611 9.06612 10.301 8.88509 10.1912 8.66142H10.1462V8.6156Z" fill="#00546B"/>
</g>
<defs>
<filter id="filter0_d_59_1775" x="0.721066" y="0.00622255" width="40.6013" height="40.6012" filterUnits="userSpaceOnUse" color-interpolation-filters="sRGB">
<feFlood flood-opacity="0" result="BackgroundImageFix"/>
<feColorMatrix in="SourceAlpha" type="matrix" values="0 0 0 0 0 0 0 0 0 0 0 0 0 0 0 0 0 0 127 0" result="hardAlpha"/>
<feOffset dx="0.944215" dy="0.944215"/>
<feGaussianBlur stdDeviation="1.88843"/>
<feComposite in2="hardAlpha" operator="out"/>
<feColorMatrix type="matrix" values="0 0 0 0 0 0 0 0 0 0 0 0 0 0 0 0 0 0 0.3 0"/>
<feBlend mode="normal" in2="BackgroundImageFix" result="effect1_dropShadow_59_1775"/>
<feBlend mode="normal" in="SourceGraphic" in2="effect1_dropShadow_59_1775" result="shape"/>
</filter>
</defs>
</svg>
