<svg width="37" height="40" viewBox="0 0 37 40" fill="none" xmlns="http://www.w3.org/2000/svg">
<g opacity="0.9" filter="url(#filter0_d_59_1779)">
<path fill-rule="evenodd" clip-rule="evenodd" d="M17.6685 35.052C17.2372 35.052 16.8348 34.9336 16.461 34.7264L12.6375 32.3885C12.0625 32.063 12.35 31.9446 12.5225 31.8854C13.2987 31.619 13.4424 31.5599 14.2474 31.0864C14.3336 31.0272 14.4486 31.0568 14.5349 31.116L17.4672 32.9212C17.5822 32.9804 17.726 32.9804 17.8122 32.9212L29.2829 26.085C29.3979 26.0258 29.4553 25.9074 29.4553 25.7594V12.1166C29.4553 11.9686 29.3979 11.8502 29.2829 11.7911L17.8122 4.98443C17.6972 4.92525 17.5535 4.92525 17.4672 4.98443L5.99659 11.7911C5.8816 11.8502 5.8241 11.9982 5.8241 12.1166V25.7594C5.8241 25.8778 5.8816 26.0258 5.99659 26.085L9.13018 27.9494C10.8263 28.8372 11.89 27.8014 11.89 26.7656V13.3004C11.89 13.1228 12.0338 12.9452 12.235 12.9452H13.7012C13.8737 12.9452 14.0462 13.0932 14.0462 13.3004V26.7656C14.0462 29.1036 12.81 30.4649 10.6538 30.4649C9.99263 30.4649 9.47516 30.4649 8.00898 29.725L4.99039 27.9494C4.24293 27.5055 3.78296 26.6768 3.78296 25.789V12.1462C3.78296 11.2584 4.24293 10.4297 4.99039 9.98582L16.461 3.1496C17.1797 2.73529 18.1572 2.73529 18.8759 3.1496L30.3465 9.98582C31.094 10.4297 31.554 11.2584 31.554 12.1462V25.789C31.554 26.6768 31.094 27.5055 30.3465 27.9494L18.8759 34.7856C18.5022 34.9632 18.071 35.052 17.6685 35.052ZM21.2045 25.6707C16.1736 25.6707 15.1386 23.3031 15.1386 21.2907C15.1386 21.1132 15.2823 20.9356 15.4836 20.9356H16.9785C17.151 20.9356 17.2947 21.054 17.2947 21.2315C17.5247 22.8 18.1859 23.5695 21.2333 23.5695C23.6482 23.5695 24.6831 23.0072 24.6831 21.6755C24.6831 20.906 24.3956 20.3437 20.6296 19.959C17.496 19.6335 15.5411 18.9232 15.5411 16.3485C15.5411 13.9514 17.496 12.5309 20.7733 12.5309C24.4531 12.5309 26.2643 13.833 26.4943 16.6741C26.4943 16.7629 26.4655 16.8516 26.408 16.9404C26.3505 16.9996 26.2643 17.0588 26.178 17.0588H24.6831C24.5394 17.0588 24.3956 16.9404 24.3669 16.7924C24.0219 15.1648 23.1307 14.6321 20.7733 14.6321C18.1284 14.6321 17.8122 15.5791 17.8122 16.2893C17.8122 17.1476 18.1859 17.4139 21.7508 17.8874C25.2868 18.3609 26.9542 19.0416 26.9542 21.5867C26.9255 24.191 24.8556 25.6707 21.2045 25.6707Z" fill="#539E43"/>
</g>
<defs>
<filter id="filter0_d_59_1779" x="0.950314" y="0.00622255" width="35.3247" height="39.7668" filterUnits="userSpaceOnUse" color-interpolation-filters="sRGB">
<feFlood flood-opacity="0" result="BackgroundImageFix"/>
<feColorMatrix in="SourceAlpha" type="matrix" values="0 0 0 0 0 0 0 0 0 0 0 0 0 0 0 0 0 0 127 0" result="hardAlpha"/>
<feOffset dx="0.944215" dy="0.944215"/>
<feGaussianBlur stdDeviation="1.88843"/>
<feComposite in2="hardAlpha" operator="out"/>
<feColorMatrix type="matrix" values="0 0 0 0 0 0 0 0 0 0 0 0 0 0 0 0 0 0 0.3 0"/>
<feBlend mode="normal" in2="BackgroundImageFix" result="effect1_dropShadow_59_1779"/>
<feBlend mode="normal" in="SourceGraphic" in2="effect1_dropShadow_59_1779" result="shape"/>
</filter>
</defs>
</svg>
