<svg width="41" height="42" viewBox="0 0 41 42" fill="none" xmlns="http://www.w3.org/2000/svg">
<g opacity="0.9" filter="url(#filter0_d_59_1753)">
<path d="M3.04956 15.6811C3.04956 11.4947 3.04956 9.40153 3.86429 7.80253C4.58095 6.39601 5.72448 5.25248 7.131 4.53582C8.73 3.72109 10.8232 3.72109 15.0096 3.72109H24.137C28.3234 3.72109 30.4166 3.72109 32.0156 4.53582C33.4222 5.25248 34.5657 6.39601 35.2824 7.80253C36.0971 9.40153 36.0971 11.4947 36.0971 15.6811V24.8086C36.0971 28.995 36.0971 31.0882 35.2824 32.6872C34.5657 34.0937 33.4222 35.2372 32.0156 35.9539C30.4166 36.7686 28.3234 36.7686 24.137 36.7686H15.0096C10.8232 36.7686 8.73 36.7686 7.131 35.9539C5.72448 35.2372 4.58095 34.0937 3.86429 32.6872C3.04956 31.0882 3.04956 28.995 3.04956 24.8086V15.6811Z" fill="#001E36"/>
<path d="M10.1312 27.9358V13.4033C10.1312 13.3045 10.1725 13.248 10.2689 13.248C11.6918 13.248 13.1142 13.1632 14.5375 13.1632C16.8471 13.1632 19.3479 13.953 20.2244 16.3691C20.431 16.9623 20.5411 17.5696 20.5411 18.2051C20.5411 19.4197 20.2658 20.4224 19.715 21.2133C18.1764 23.4225 15.5097 23.3882 13.1192 23.3882V27.9216C13.1379 28.0559 13.0235 28.1194 12.9127 28.1194H10.2964C10.1863 28.1194 10.1312 28.0629 10.1312 27.9358ZM13.133 15.9737V20.719C14.0808 20.7884 15.0726 20.7959 15.9833 20.493C16.9887 20.203 17.5393 19.3327 17.5393 18.2898C17.5673 17.4012 17.0831 16.5486 16.2587 16.2279C15.359 15.8538 14.1042 15.8314 13.133 15.9737Z" fill="#31A8FF"/>
<path d="M29.1296 19.7815C28.7129 19.5619 28.2692 19.4012 27.8105 19.3039C27.221 19.1652 24.8961 18.6795 24.8952 19.8951C24.9158 20.5738 25.9932 20.9063 26.4692 21.1002C28.1403 21.6739 30.0313 22.6995 29.9941 24.761C30.0452 27.3274 27.5587 28.3534 25.4272 28.3536C24.3176 28.3651 23.1617 28.1932 22.1462 27.7169C22.0492 27.6656 21.9868 27.5559 21.991 27.4441V24.9884C21.9801 24.8899 22.0857 24.8039 22.1683 24.8747C23.1633 25.4764 24.3427 25.7686 25.4937 25.7842C26.0019 25.7842 27.0089 25.735 27.0013 24.9884C27.0013 24.2719 25.7966 23.9426 25.3164 23.7605C24.6203 23.512 23.9603 23.1678 23.3544 22.7374C22.5077 22.1334 21.9765 21.1651 21.991 20.0998C21.986 17.6833 24.2749 16.5987 26.3362 16.5981C27.2998 16.5902 28.3346 16.6616 29.2317 17.0529C29.3607 17.0909 29.3874 17.2267 29.3869 17.3485V19.645C29.3951 19.7876 29.2367 19.8361 29.1296 19.7815Z" fill="#31A8FF"/>
</g>
<defs>
<filter id="filter0_d_59_1753" x="0.216916" y="0.888448" width="40.6013" height="40.6012" filterUnits="userSpaceOnUse" color-interpolation-filters="sRGB">
<feFlood flood-opacity="0" result="BackgroundImageFix"/>
<feColorMatrix in="SourceAlpha" type="matrix" values="0 0 0 0 0 0 0 0 0 0 0 0 0 0 0 0 0 0 127 0" result="hardAlpha"/>
<feOffset dx="0.944215" dy="0.944215"/>
<feGaussianBlur stdDeviation="1.88843"/>
<feComposite in2="hardAlpha" operator="out"/>
<feColorMatrix type="matrix" values="0 0 0 0 0 0 0 0 0 0 0 0 0 0 0 0 0 0 0.3 0"/>
<feBlend mode="normal" in2="BackgroundImageFix" result="effect1_dropShadow_59_1753"/>
<feBlend mode="normal" in="SourceGraphic" in2="effect1_dropShadow_59_1753" result="shape"/>
</filter>
</defs>
</svg>
