<svg width="41" height="40" viewBox="0 0 41 40" fill="none" xmlns="http://www.w3.org/2000/svg">
<g opacity="0.9" filter="url(#filter0_d_59_1777)">
<path d="M35.724 20.8965C36.8474 12.1174 30.6365 4.09133 21.8579 2.96992C13.0792 1.8485 5.00665 8.04831 3.88324 16.8113C2.75982 25.5744 8.97069 33.6165 17.7494 34.7539C26.5441 35.8753 34.5845 29.6755 35.724 20.8965Z" fill="#FF6C37"/>
<path d="M25.5972 13.1267L18.8246 19.8872L16.9148 17.9808C23.5751 11.3324 24.2331 11.9092 25.5972 13.1267Z" fill="white"/>
<path d="M18.8246 20.0474C18.7765 20.0474 18.7444 20.0314 18.7123 19.9993L16.7864 18.0929C16.7222 18.0289 16.7222 17.9327 16.7864 17.8687C23.559 11.1082 24.2652 11.749 25.6935 13.0306C25.7256 13.0626 25.7417 13.0947 25.7417 13.1427C25.7417 13.1908 25.7256 13.2228 25.6935 13.2549L18.9209 19.9993C18.9049 20.0314 18.8567 20.0474 18.8246 20.0474ZM17.1395 17.9808L18.8246 19.6629L25.3565 13.1427C24.1689 12.0854 23.3664 11.765 17.1395 17.9808Z" fill="#FF6C37"/>
<path d="M20.7665 21.8256L18.9209 19.9833L25.6935 13.2228C27.507 15.0491 24.7948 18.0128 20.7665 21.8256Z" fill="white"/>
<path d="M20.7665 21.9858C20.7184 21.9858 20.6863 21.9698 20.6542 21.9378L18.8086 20.0955C18.7765 20.0634 18.7765 20.0314 18.7765 19.9833C18.7765 19.9353 18.7925 19.9032 18.8246 19.8712L25.5972 13.1107C25.6614 13.0466 25.7577 13.0466 25.8219 13.1107C26.2391 13.4952 26.4638 14.0398 26.4478 14.6006C26.4157 16.3788 24.3935 18.6376 20.8949 21.9378C20.8468 21.9698 20.7986 21.9858 20.7665 21.9858ZM19.1456 19.9833C20.1727 21.0246 20.606 21.4412 20.7665 21.6014C23.4627 19.0381 26.0787 16.4108 26.0947 14.6006C26.1108 14.184 25.9503 13.7675 25.6774 13.4471L19.1456 19.9833Z" fill="#FF6C37"/>
<path d="M16.9469 18.0289L18.3111 19.3906C18.3432 19.4226 18.3432 19.4547 18.3111 19.4867C18.295 19.5027 18.295 19.5027 18.279 19.5027L15.4544 20.1115C15.3099 20.1275 15.1816 20.0314 15.1495 19.8872C15.1334 19.8071 15.1655 19.727 15.2136 19.6789L16.8506 18.0449C16.8827 18.0128 16.9309 17.9968 16.9469 18.0289Z" fill="white"/>
<path d="M15.4063 20.2717C15.1655 20.2717 14.989 20.0794 14.989 19.8391C14.989 19.727 15.0371 19.6149 15.1174 19.5348L16.7543 17.9007C16.8506 17.8206 16.979 17.8206 17.0753 17.9007L18.4395 19.2624C18.5358 19.3425 18.5358 19.4867 18.4395 19.5828C18.4074 19.6149 18.3753 19.6309 18.3271 19.6469L15.5025 20.2557C15.4704 20.2557 15.4383 20.2717 15.4063 20.2717ZM16.8988 18.2051L15.326 19.7751C15.2939 19.8071 15.2779 19.8552 15.31 19.9032C15.326 19.9513 15.3742 19.9673 15.4223 19.9513L18.0703 19.3746L16.8988 18.2051Z" fill="#FF6C37"/>
<path d="M29.1761 9.37798C28.149 8.38473 26.4959 8.41677 25.5009 9.45808C24.5059 10.4994 24.538 12.1334 25.5812 13.1267C26.4317 13.9437 27.7156 14.0879 28.7267 13.4791L26.8971 11.6528L29.1761 9.37798Z" fill="white"/>
<path d="M27.3786 14.0078C25.854 14.0078 24.6182 12.7743 24.6182 11.2523C24.6182 9.73042 25.854 8.49687 27.3786 8.49687C28.0848 8.49687 28.7749 8.76921 29.2884 9.26584C29.3205 9.29788 29.3366 9.32992 29.3366 9.37798C29.3366 9.42604 29.3205 9.45808 29.2884 9.49012L27.1218 11.6528L28.823 13.351C28.8872 13.4151 28.8872 13.5112 28.823 13.5753C28.807 13.5913 28.807 13.5913 28.7909 13.6073C28.3736 13.8636 27.8761 14.0078 27.3786 14.0078ZM27.3786 8.83329C26.0305 8.83329 24.9392 9.92266 24.9553 11.2684C24.9553 12.6141 26.0466 13.7034 27.3947 13.6874C27.7638 13.6874 28.1329 13.6073 28.4699 13.4311L26.7848 11.765C26.7527 11.7329 26.7367 11.7009 26.7367 11.6528C26.7367 11.6048 26.7527 11.5727 26.7848 11.5407L28.9354 9.394C28.502 9.02554 27.9564 8.83329 27.3786 8.83329Z" fill="#FF6C37"/>
<path d="M29.2242 9.42604L29.1921 9.394L26.8971 11.6528L28.7107 13.4631C28.8872 13.351 29.0637 13.2228 29.2082 13.0786C30.2353 12.0694 30.2353 10.4353 29.2242 9.42604Z" fill="white"/>
<path d="M28.7267 13.6393C28.6786 13.6393 28.6465 13.6233 28.6144 13.5913L26.7848 11.765C26.7527 11.7329 26.7367 11.7009 26.7367 11.6528C26.7367 11.6048 26.7527 11.5727 26.7848 11.5407L29.0637 9.26584C29.1279 9.20176 29.2242 9.20176 29.2884 9.26584L29.3366 9.29788C30.4118 10.3712 30.4118 12.1014 29.3526 13.1908C29.1921 13.351 29.0156 13.4952 28.823 13.6073C28.7749 13.6233 28.7428 13.6393 28.7267 13.6393ZM27.1218 11.6528L28.7428 13.2709C28.8711 13.1908 28.9995 13.0786 29.0958 12.9825C30.0106 12.0694 30.0588 10.5795 29.1761 9.61828L27.1218 11.6528Z" fill="#FF6C37"/>
<path d="M25.87 13.4151C25.4849 13.0306 24.859 13.0306 24.4738 13.4151L18.4234 19.4547L19.4345 20.4639L25.8379 14.8569C26.2552 14.5044 26.2873 13.8796 25.9342 13.4631C25.9021 13.4471 25.8861 13.4311 25.87 13.4151Z" fill="white"/>
<path d="M19.4184 20.6241C19.3703 20.6241 19.3382 20.6081 19.3061 20.5761L18.295 19.5668C18.2308 19.5027 18.2308 19.4066 18.295 19.3425L24.3454 13.3029C24.7948 12.8544 25.517 12.8544 25.9663 13.3029C26.4157 13.7515 26.4157 14.4724 25.9663 14.921C25.9503 14.937 25.9342 14.953 25.9182 14.969L19.5147 20.5761C19.4987 20.6081 19.4666 20.6241 19.4184 20.6241ZM18.6481 19.4547L19.4345 20.2396L25.7256 14.7287C26.0787 14.4403 26.1108 13.9117 25.8219 13.5592C25.533 13.2068 25.0034 13.1748 24.6503 13.4631C24.6343 13.4791 24.6182 13.4952 24.5861 13.5112L18.6481 19.4547Z" fill="#FF6C37"/>
<path d="M13.7853 26.3273C13.7211 26.3593 13.689 26.4234 13.7051 26.4875L13.9779 27.641C14.0421 27.8012 13.9458 27.9934 13.7693 28.0415C13.6409 28.0895 13.4964 28.0415 13.4162 27.9453L11.6508 26.1991L17.4123 20.4479L19.4024 20.4799L20.7505 21.8256C20.4295 22.098 18.4876 23.9723 13.7853 26.3273Z" fill="white"/>
<path d="M13.6569 28.2017C13.5285 28.2017 13.4002 28.1536 13.3199 28.0575L11.5706 26.3113C11.5385 26.2792 11.5224 26.2472 11.5224 26.1991C11.5224 26.1511 11.5385 26.119 11.5706 26.087L17.3321 20.3358C17.3642 20.3037 17.4123 20.2877 17.4444 20.2877L19.4345 20.3197C19.4826 20.3197 19.5147 20.3358 19.5468 20.3678L20.8949 21.7135C20.927 21.7455 20.9431 21.7936 20.9431 21.8417C20.9431 21.8897 20.927 21.9218 20.8789 21.9538L20.7665 22.0499C19.0654 23.5398 16.7543 25.0297 13.8816 26.4555L14.1544 27.5929C14.2026 27.8012 14.1063 28.0254 13.9137 28.1376C13.8174 28.1856 13.7372 28.2017 13.6569 28.2017ZM11.8916 26.1991L13.5446 27.8332C13.5927 27.9133 13.689 27.9453 13.7693 27.8973C13.8495 27.8492 13.8816 27.7531 13.8335 27.673L13.5606 26.5195C13.5285 26.3754 13.5927 26.2472 13.7211 26.1831C16.5618 24.7573 18.8567 23.2835 20.5419 21.8256L19.3542 20.6401L17.5086 20.6081L11.8916 26.1991Z" fill="#FF6C37"/>
<path d="M10.2867 27.5769L11.6669 26.1991L13.7211 28.2497L10.4472 28.0254C10.3027 28.0094 10.2064 27.8813 10.2225 27.7371C10.2225 27.673 10.2385 27.6089 10.2867 27.5769Z" fill="white"/>
<path d="M13.7211 28.3939L10.4311 28.1696C10.1904 28.1536 10.0299 27.9453 10.046 27.705C10.062 27.6089 10.0941 27.5128 10.1743 27.4487L11.5545 26.071C11.6187 26.0069 11.715 26.0069 11.7792 26.071L13.8335 28.1216C13.8816 28.1696 13.8977 28.2337 13.8656 28.2978C13.8335 28.3619 13.7853 28.3939 13.7211 28.3939ZM11.6669 26.4234L10.399 27.689C10.3509 27.7211 10.3509 27.8012 10.399 27.8332C10.4151 27.8492 10.4311 27.8652 10.4632 27.8652L13.3039 28.0575L11.6669 26.4234Z" fill="#FF6C37"/>
<path d="M16.8506 21.1848C16.7543 21.1848 16.6901 21.1047 16.6901 21.0246C16.6901 20.9766 16.7062 20.9445 16.7383 20.9125L18.295 19.3585C18.3592 19.2945 18.4555 19.2945 18.5197 19.3585L19.5308 20.3678C19.5789 20.4159 19.595 20.4639 19.5789 20.528C19.5629 20.5761 19.5147 20.6241 19.4505 20.6401L16.8827 21.1848C16.8667 21.1848 16.8506 21.1848 16.8506 21.1848ZM18.4074 19.695L17.3481 20.7523L19.0814 20.3838L18.4074 19.695Z" fill="#FF6C37"/>
<path d="M19.4024 20.4799L17.637 20.8644C17.5086 20.8965 17.3802 20.8164 17.3481 20.6882C17.3321 20.6081 17.3481 20.528 17.4123 20.4639L18.3913 19.4867L19.4024 20.4799Z" fill="white"/>
<path d="M17.6049 21.0246C17.3802 21.0246 17.2037 20.8484 17.2037 20.6241C17.2037 20.512 17.2518 20.4159 17.316 20.3358L18.295 19.3585C18.3592 19.2945 18.4555 19.2945 18.5197 19.3585L19.5308 20.3678C19.5789 20.4159 19.595 20.4639 19.5789 20.528C19.5629 20.5761 19.5147 20.6241 19.4505 20.6401L17.6852 21.0246C17.6531 21.0246 17.621 21.0246 17.6049 21.0246ZM18.4074 19.695L17.5407 20.56C17.5086 20.5921 17.5086 20.6241 17.5247 20.6562C17.5407 20.6882 17.5728 20.7042 17.621 20.7042L19.0974 20.3838L18.4074 19.695Z" fill="#FF6C37"/>
<path d="M29.2403 10.964C29.2082 10.8679 29.0958 10.8198 28.9995 10.8518C28.9033 10.8839 28.8551 10.996 28.8872 11.0921C28.8872 11.1082 28.9033 11.1242 28.9033 11.1402C28.9995 11.3324 28.9674 11.5727 28.8391 11.749C28.7749 11.8291 28.7909 11.9412 28.8551 12.0053C28.9354 12.0694 29.0477 12.0533 29.1119 11.9732C29.3526 11.6689 29.4008 11.2844 29.2403 10.964Z" fill="#FF6C37"/>
</g>
<defs>
<filter id="filter0_d_59_1777" x="0.919308" y="0.00622255" width="39.657" height="39.5998" filterUnits="userSpaceOnUse" color-interpolation-filters="sRGB">
<feFlood flood-opacity="0" result="BackgroundImageFix"/>
<feColorMatrix in="SourceAlpha" type="matrix" values="0 0 0 0 0 0 0 0 0 0 0 0 0 0 0 0 0 0 127 0" result="hardAlpha"/>
<feOffset dx="0.944215" dy="0.944215"/>
<feGaussianBlur stdDeviation="1.88843"/>
<feComposite in2="hardAlpha" operator="out"/>
<feColorMatrix type="matrix" values="0 0 0 0 0 0 0 0 0 0 0 0 0 0 0 0 0 0 0.3 0"/>
<feBlend mode="normal" in2="BackgroundImageFix" result="effect1_dropShadow_59_1777"/>
<feBlend mode="normal" in="SourceGraphic" in2="effect1_dropShadow_59_1777" result="shape"/>
</filter>
</defs>
</svg>
