<svg width="42" height="42" viewBox="0 0 42 42" fill="none" xmlns="http://www.w3.org/2000/svg">
<g opacity="0.9" filter="url(#filter0_d_59_1771)">
<path d="M29.8592 9.69975H28.0028C27.6463 9.69975 27.3573 9.98873 27.3573 10.3452V10.628C27.3573 10.9845 27.6463 11.2734 28.0028 11.2734H29.8592C30.2157 11.2734 30.5047 10.9845 30.5047 10.628V10.3452C30.5047 9.98873 30.2157 9.69975 29.8592 9.69975Z" fill="#56B3B4"/>
<path d="M12.5486 34.8788H4.39741C4.04094 34.8788 3.75195 35.1678 3.75195 35.5243V35.807C3.75195 36.1635 4.04094 36.4525 4.39741 36.4525H12.5486C12.9051 36.4525 13.1941 36.1635 13.1941 35.807V35.5243C13.1941 35.1678 12.9051 34.8788 12.5486 34.8788Z" fill="#EA5E5E"/>
<path d="M28.2856 22.2893H23.2817C22.9252 22.2893 22.6362 22.5783 22.6362 22.9347V23.2175C22.6362 23.574 22.9252 23.863 23.2817 23.863H28.2856C28.642 23.863 28.931 23.574 28.931 23.2175V22.9347C28.931 22.5783 28.642 22.2893 28.2856 22.2893Z" fill="#BF85BF"/>
<path d="M20.4171 22.2893H13.8396C13.4831 22.2893 13.1941 22.5783 13.1941 22.9347V23.2175C13.1941 23.574 13.4831 23.863 13.8396 23.863H20.4171C20.7736 23.863 21.0626 23.574 21.0626 23.2175V22.9347C21.0626 22.5783 20.7736 22.2893 20.4171 22.2893Z" fill="#EA5E5E"/>
<path d="M10.975 22.2893H4.39741C4.04094 22.2893 3.75195 22.5783 3.75195 22.9347V23.2175C3.75195 23.574 4.04094 23.863 4.39741 23.863H10.975C11.3314 23.863 11.6204 23.574 11.6204 23.2175V22.9347C11.6204 22.5783 11.3314 22.2893 10.975 22.2893Z" fill="#56B3B4"/>
<path d="M12.5486 28.584H4.39741C4.04094 28.584 3.75195 28.873 3.75195 29.2295V29.5123C3.75195 29.8688 4.04094 30.1577 4.39741 30.1577H12.5486C12.9051 30.1577 13.1941 29.8688 13.1941 29.5123V29.2295C13.1941 28.873 12.9051 28.584 12.5486 28.584Z" fill="#BF85BF"/>
<path d="M12.5486 15.9945H4.39741C4.04094 15.9945 3.75195 16.2835 3.75195 16.64V16.9227C3.75195 17.2792 4.04094 17.5682 4.39741 17.5682H12.5486C12.9051 17.5682 13.1941 17.2792 13.1941 16.9227V16.64C13.1941 16.2835 12.9051 15.9945 12.5486 15.9945Z" fill="#BF85BF"/>
<path d="M28.2856 6.55237H12.2659C11.9094 6.55237 11.6204 6.84135 11.6204 7.19783V7.4806C11.6204 7.83708 11.9094 8.12606 12.2659 8.12606H28.2856C28.642 8.12606 28.931 7.83708 28.931 7.4806V7.19783C28.931 6.84135 28.642 6.55237 28.2856 6.55237Z" fill="#F7BA3E"/>
<path d="M9.40126 6.55237H4.39741C4.04094 6.55237 3.75195 6.84135 3.75195 7.19783V7.4806C3.75195 7.83708 4.04094 8.12606 4.39741 8.12606H9.40126C9.75774 8.12606 10.0467 7.83708 10.0467 7.4806V7.19783C10.0467 6.84135 9.75774 6.55237 9.40126 6.55237Z" fill="#EA5E5E"/>
<path d="M12.5486 31.7314H10.6922C10.3357 31.7314 10.0467 32.0204 10.0467 32.3769V32.6597C10.0467 33.0161 10.3357 33.3051 10.6922 33.3051H12.5486C12.9051 33.3051 13.1941 33.0161 13.1941 32.6597V32.3769C13.1941 32.0204 12.9051 31.7314 12.5486 31.7314Z" fill="#F7BA3E"/>
<path d="M12.5486 12.8471H10.6922C10.3357 12.8471 10.0467 13.1361 10.0467 13.4926V13.7754C10.0467 14.1318 10.3357 14.4208 10.6922 14.4208H12.5486C12.9051 14.4208 13.1941 14.1318 13.1941 13.7754V13.4926C13.1941 13.1361 12.9051 12.8471 12.5486 12.8471Z" fill="#56B3B4"/>
<path d="M7.82757 31.7314H4.39741C4.04094 31.7314 3.75195 32.0204 3.75195 32.3769V32.6597C3.75195 33.0161 4.04094 33.3051 4.39741 33.3051H7.82757C8.18404 33.3051 8.47303 33.0161 8.47303 32.6597V32.3769C8.47303 32.0204 8.18404 31.7314 7.82757 31.7314Z" fill="#56B3B4"/>
<path d="M7.82757 12.8471H4.39741C4.04094 12.8471 3.75195 13.1361 3.75195 13.4926V13.7754C3.75195 14.1318 4.04094 14.4208 4.39741 14.4208H7.82757C8.18404 14.4208 8.47303 14.1318 8.47303 13.7754V13.4926C8.47303 13.1361 8.18404 12.8471 7.82757 12.8471Z" fill="#F7BA3E"/>
<path d="M26.7119 31.7314H24.8554C24.4989 31.7314 24.2099 32.0204 24.2099 32.3769V32.6597C24.2099 33.0161 24.4989 33.3051 24.8554 33.3051H26.7119C27.0683 33.3051 27.3573 33.0161 27.3573 32.6597V32.3769C27.3573 32.0204 27.0683 31.7314 26.7119 31.7314Z" fill="#D0D4D8"/>
<path d="M21.9908 31.7314H15.4133C15.0568 31.7314 14.7678 32.0204 14.7678 32.3769V32.6597C14.7678 33.0161 15.0568 33.3051 15.4133 33.3051H21.9908C22.3473 33.3051 22.6362 33.0161 22.6362 32.6597V32.3769C22.6362 32.0204 22.3473 31.7314 21.9908 31.7314Z" fill="#D0D4D8"/>
<path d="M36.154 31.7314H29.5765C29.22 31.7314 28.931 32.0204 28.931 32.3769V32.6597C28.931 33.0161 29.22 33.3051 29.5765 33.3051H36.154C36.5105 33.3051 36.7995 33.0161 36.7995 32.6597V32.3769C36.7995 32.0204 36.5105 31.7314 36.154 31.7314Z" fill="#D0D4D8"/>
<path d="M29.8592 19.1419H16.9869C16.6305 19.1419 16.3415 19.4309 16.3415 19.7874V20.0701C16.3415 20.4266 16.6305 20.7156 16.9869 20.7156H29.8592C30.2157 20.7156 30.5047 20.4266 30.5047 20.0701V19.7874C30.5047 19.4309 30.2157 19.1419 29.8592 19.1419Z" fill="#56B3B4"/>
<path d="M14.1223 19.1419H9.11849C8.76201 19.1419 8.47303 19.4309 8.47303 19.7874V20.0701C8.47303 20.4266 8.76201 20.7156 9.11849 20.7156H14.1223C14.4788 20.7156 14.7678 20.4266 14.7678 20.0701V19.7874C14.7678 19.4309 14.4788 19.1419 14.1223 19.1419Z" fill="#F7BA3E"/>
<path d="M6.25388 19.1419H4.39741C4.04094 19.1419 3.75195 19.4309 3.75195 19.7874V20.0701C3.75195 20.4266 4.04094 20.7156 4.39741 20.7156H6.25388C6.61035 20.7156 6.89934 20.4266 6.89934 20.0701V19.7874C6.89934 19.4309 6.61035 19.1419 6.25388 19.1419Z" fill="#EA5E5E"/>
<path d="M25.1382 9.69975H18.5606C18.2042 9.69975 17.9152 9.98873 17.9152 10.3452V10.628C17.9152 10.9845 18.2042 11.2734 18.5606 11.2734H25.1382C25.4947 11.2734 25.7836 10.9845 25.7836 10.628V10.3452C25.7836 9.98873 25.4947 9.69975 25.1382 9.69975Z" fill="#BF85BF"/>
<path d="M15.696 9.69975H4.39741C4.04094 9.69975 3.75195 9.98873 3.75195 10.3452V10.628C3.75195 10.9845 4.04094 11.2734 4.39741 11.2734H15.696C16.0525 11.2734 16.3415 10.9845 16.3415 10.628V10.3452C16.3415 9.98873 16.0525 9.69975 15.696 9.69975Z" fill="#56B3B4"/>
<path d="M23.5645 25.4367H9.11849C8.76201 25.4367 8.47303 25.7256 8.47303 26.0821V26.3649C8.47303 26.7214 8.76201 27.0104 9.11849 27.0104H23.5645C23.921 27.0104 24.2099 26.7214 24.2099 26.3649V26.0821C24.2099 25.7256 23.921 25.4367 23.5645 25.4367Z" fill="#F7BA3E"/>
<path d="M6.25388 25.4367H4.39741C4.04094 25.4367 3.75195 25.7256 3.75195 26.0821V26.3649C3.75195 26.7214 4.04094 27.0104 4.39741 27.0104H6.25388C6.61035 27.0104 6.89934 26.7214 6.89934 26.3649V26.0821C6.89934 25.7256 6.61035 25.4367 6.25388 25.4367Z" fill="#BF85BF"/>
<path d="M31.4329 12.8471H23.2817C22.9252 12.8471 22.6362 13.1361 22.6362 13.4926V13.7754C22.6362 14.1318 22.9252 14.4208 23.2817 14.4208H31.4329C31.7894 14.4208 32.0784 14.1318 32.0784 13.7754V13.4926C32.0784 13.1361 31.7894 12.8471 31.4329 12.8471Z" fill="#EA5E5E"/>
<path d="M31.4329 15.9945H23.2817C22.9252 15.9945 22.6362 16.2835 22.6362 16.64V16.9227C22.6362 17.2792 22.9252 17.5682 23.2817 17.5682H31.4329C31.7894 17.5682 32.0784 17.2792 32.0784 16.9227V16.64C32.0784 16.2835 31.7894 15.9945 31.4329 15.9945Z" fill="#F7BA3E"/>
<path d="M23.5645 3.40498H4.39741C4.04094 3.40498 3.75195 3.69397 3.75195 4.05044V4.33322C3.75195 4.68969 4.04094 4.97868 4.39741 4.97868H23.5645C23.921 4.97868 24.2099 4.68969 24.2099 4.33322V4.05044C24.2099 3.69397 23.921 3.40498 23.5645 3.40498Z" fill="#56B3B4"/>
<path d="M36.154 3.40498H26.4291C26.0726 3.40498 25.7836 3.69397 25.7836 4.05044V4.33322C25.7836 4.68969 26.0726 4.97868 26.4291 4.97868H36.154C36.5105 4.97868 36.7995 4.68969 36.7995 4.33322V4.05044C36.7995 3.69397 36.5105 3.40498 36.154 3.40498Z" fill="#D0D4D8"/>
<path d="M29.8592 25.4367H26.4291C26.0726 25.4367 25.7836 25.7256 25.7836 26.0821V26.3649C25.7836 26.7214 26.0726 27.0104 26.4291 27.0104H29.8592C30.2157 27.0104 30.5047 26.7214 30.5047 26.3649V26.0821C30.5047 25.7256 30.2157 25.4367 29.8592 25.4367Z" fill="#D0D4D8"/>
<path d="M36.154 25.4367H32.7239C32.3674 25.4367 32.0784 25.7256 32.0784 26.0821V26.3649C32.0784 26.7214 32.3674 27.0104 32.7239 27.0104H36.154C36.5105 27.0104 36.7995 26.7214 36.7995 26.3649V26.0821C36.7995 25.7256 36.5105 25.4367 36.154 25.4367Z" fill="#D0D4D8"/>
<path d="M36.154 22.2893H31.1502C30.7937 22.2893 30.5047 22.5783 30.5047 22.9347V23.2175C30.5047 23.574 30.7937 23.863 31.1502 23.863H36.154C36.5105 23.863 36.7995 23.574 36.7995 23.2175V22.9347C36.7995 22.5783 36.5105 22.2893 36.154 22.2893Z" fill="#D0D4D8"/>
<path d="M36.154 6.55237H31.1502C30.7937 6.55237 30.5047 6.84135 30.5047 7.19783V7.4806C30.5047 7.83708 30.7937 8.12606 31.1502 8.12606H36.154C36.5105 8.12606 36.7995 7.83708 36.7995 7.4806V7.19783C36.7995 6.84135 36.5105 6.55237 36.154 6.55237Z" fill="#D0D4D8"/>
<path d="M36.154 19.1419H32.7239C32.3674 19.1419 32.0784 19.4309 32.0784 19.7874V20.0701C32.0784 20.4266 32.3674 20.7156 32.7239 20.7156H36.154C36.5105 20.7156 36.7995 20.4266 36.7995 20.0701V19.7874C36.7995 19.4309 36.5105 19.1419 36.154 19.1419Z" fill="#D0D4D8"/>
<path d="M36.154 9.69975H32.7239C32.3674 9.69975 32.0784 9.98873 32.0784 10.3452V10.628C32.0784 10.9845 32.3674 11.2734 32.7239 11.2734H36.154C36.5105 11.2734 36.7995 10.9845 36.7995 10.628V10.3452C36.7995 9.98873 36.5105 9.69975 36.154 9.69975Z" fill="#D0D4D8"/>
<path d="M36.154 12.8471H34.2976C33.9411 12.8471 33.6521 13.1361 33.6521 13.4926V13.7754C33.6521 14.1318 33.9411 14.4208 34.2976 14.4208H36.154C36.5105 14.4208 36.7995 14.1318 36.7995 13.7754V13.4926C36.7995 13.1361 36.5105 12.8471 36.154 12.8471Z" fill="#D0D4D8"/>
<path d="M36.154 15.9945H34.2976C33.9411 15.9945 33.6521 16.2835 33.6521 16.64V16.9227C33.6521 17.2792 33.9411 17.5682 34.2976 17.5682H36.154C36.5105 17.5682 36.7995 17.2792 36.7995 16.9227V16.64C36.7995 16.2835 36.5105 15.9945 36.154 15.9945Z" fill="#D0D4D8"/>
<path d="M36.154 28.584H21.708C21.3515 28.584 21.0626 28.873 21.0626 29.2295V29.5123C21.0626 29.8688 21.3515 30.1577 21.708 30.1577H36.154C36.5105 30.1577 36.7995 29.8688 36.7995 29.5123V29.2295C36.7995 28.873 36.5105 28.584 36.154 28.584Z" fill="#D0D4D8"/>
<path d="M18.8434 28.584H15.4133C15.0568 28.584 14.7678 28.873 14.7678 29.2295V29.5123C14.7678 29.8688 15.0568 30.1577 15.4133 30.1577H18.8434C19.1999 30.1577 19.4889 29.8688 19.4889 29.5123V29.2295C19.4889 28.873 19.1999 28.584 18.8434 28.584Z" fill="#D0D4D8"/>
<path d="M36.154 34.8788H28.0028C27.6463 34.8788 27.3573 35.1678 27.3573 35.5243V35.807C27.3573 36.1635 27.6463 36.4525 28.0028 36.4525H36.154C36.5105 36.4525 36.7995 36.1635 36.7995 35.807V35.5243C36.7995 35.1678 36.5105 34.8788 36.154 34.8788Z" fill="#D0D4D8"/>
<path d="M25.1382 34.8788H15.4133C15.0568 34.8788 14.7678 35.1678 14.7678 35.5243V35.807C14.7678 36.1635 15.0568 36.4525 15.4133 36.4525H25.1382C25.4947 36.4525 25.7836 36.1635 25.7836 35.807V35.5243C25.7836 35.1678 25.4947 34.8788 25.1382 34.8788Z" fill="#D0D4D8"/>
<path d="M20.4171 12.8471H15.4133C15.0568 12.8471 14.7678 13.1361 14.7678 13.4926V13.7754C14.7678 14.1318 15.0568 14.4208 15.4133 14.4208H20.4171C20.7736 14.4208 21.0626 14.1318 21.0626 13.7754V13.4926C21.0626 13.1361 20.7736 12.8471 20.4171 12.8471Z" fill="#D0D4D8"/>
<path d="M20.4171 15.9945H15.4133C15.0568 15.9945 14.7678 16.2835 14.7678 16.64V16.9227C14.7678 17.2792 15.0568 17.5682 15.4133 17.5682H20.4171C20.7736 17.5682 21.0626 17.2792 21.0626 16.9227V16.64C21.0626 16.2835 20.7736 15.9945 20.4171 15.9945Z" fill="#D0D4D8"/>
</g>
<defs>
<filter id="filter0_d_59_1771" x="0.919308" y="0.572339" width="40.6013" height="40.6012" filterUnits="userSpaceOnUse" color-interpolation-filters="sRGB">
<feFlood flood-opacity="0" result="BackgroundImageFix"/>
<feColorMatrix in="SourceAlpha" type="matrix" values="0 0 0 0 0 0 0 0 0 0 0 0 0 0 0 0 0 0 127 0" result="hardAlpha"/>
<feOffset dx="0.944215" dy="0.944215"/>
<feGaussianBlur stdDeviation="1.88843"/>
<feComposite in2="hardAlpha" operator="out"/>
<feColorMatrix type="matrix" values="0 0 0 0 0 0 0 0 0 0 0 0 0 0 0 0 0 0 0.3 0"/>
<feBlend mode="normal" in2="BackgroundImageFix" result="effect1_dropShadow_59_1771"/>
<feBlend mode="normal" in="SourceGraphic" in2="effect1_dropShadow_59_1771" result="shape"/>
</filter>
</defs>
</svg>
