<svg width="41" height="38" viewBox="0 0 41 38" fill="none" xmlns="http://www.w3.org/2000/svg">
<g opacity="0.9" filter="url(#filter0_d_59_1760)">
<path d="M23.4435 21.4931L22.8096 22.5939C22.6186 22.9254 22.2651 23.1298 21.8825 23.1298H17.0264C16.6438 23.1298 16.2902 22.9254 16.0993 22.5939L15.4653 21.4931H23.4435ZM25.2181 18.4117L24.1004 20.3524H14.8084L13.6907 18.4117H25.2181ZM24.1415 15.3984L25.2199 17.2711H13.689L14.7674 15.3984H24.1415ZM21.8825 12.5498C22.2651 12.5498 22.6186 12.7542 22.8096 13.0858L23.4846 14.2577H15.4243L16.0993 13.0858C16.2902 12.7542 16.6438 12.5498 17.0264 12.5498H21.8825Z" fill="#00435B"/>
<path d="M9.95892 12.0391C9.42099 9.43064 9.30554 7.43 9.65326 5.97726C9.86006 5.11325 10.2381 4.40841 10.813 3.89987C11.42 3.36299 12.1874 3.09955 13.0496 3.09955C14.472 3.09955 15.9674 3.74819 17.5654 4.98045C18.2172 5.48306 18.8937 6.08888 19.5962 6.79825C19.6521 6.72626 19.7153 6.65836 19.7858 6.5956C21.772 4.82558 23.4443 3.72584 24.8746 3.30181C25.725 3.04968 26.5235 3.02566 27.2506 3.27036C28.0181 3.52865 28.6297 4.06259 29.0611 4.81045C29.7732 6.0447 29.961 7.66651 29.6955 9.66903C29.5873 10.4853 29.4023 11.3744 29.1409 12.3378C29.2396 12.3497 29.3384 12.3716 29.4363 12.404C31.9564 13.2391 33.7409 14.1372 34.8213 15.1636C35.4641 15.7742 35.8838 16.454 36.0356 17.2066C36.1957 18.0009 36.0396 18.7976 35.6086 19.5449C34.8978 20.7774 33.591 21.7494 31.7292 22.5193C30.9816 22.8285 30.1358 23.1085 29.1907 23.3603C29.2338 23.4576 29.2673 23.561 29.2897 23.6695C29.8276 26.2779 29.943 28.2786 29.5953 29.7313C29.3885 30.5953 29.0104 31.3002 28.4355 31.8087C27.8286 32.3456 27.0612 32.609 26.199 32.609C24.7765 32.609 23.2812 31.9604 21.6832 30.7281C21.0245 30.2201 20.3405 29.6068 19.6299 28.8876C19.5568 29.002 19.467 29.1083 19.3609 29.2029C17.3746 30.9729 15.7024 32.0727 14.2721 32.4967C13.4216 32.7488 12.6232 32.7728 11.896 32.5282C11.1285 32.2699 10.517 31.7359 10.0855 30.9881C9.37341 29.7538 9.18563 28.132 9.45111 26.1295C9.56323 25.2837 9.75779 24.3597 10.0343 23.356C9.92625 23.345 9.81771 23.3221 9.71037 23.2866C7.19025 22.4514 5.40575 21.5534 4.32537 20.527C3.68257 19.9164 3.26281 19.2365 3.11107 18.484C2.95091 17.6897 3.10708 16.893 3.53805 16.1457C4.2488 14.9132 5.55567 13.9412 7.41747 13.1713C8.18732 12.8529 9.06138 12.5655 10.0407 12.3079C10.0058 12.2225 9.97822 12.1327 9.95892 12.0391Z" fill="#002B3B"/>
<path d="M27.5315 23.9259C27.782 23.8815 28.0221 24.0422 28.0781 24.2886L28.0812 24.3032L28.1079 24.4419C28.9741 28.9958 28.3639 31.2728 26.2774 31.2728C24.2359 31.2728 21.6372 29.3299 18.4812 25.444C18.4115 25.3581 18.3738 25.2507 18.3748 25.1401C18.3771 24.8824 18.5838 24.6744 18.8397 24.6688L18.8545 24.6687L19.0207 24.6699C20.3487 24.6771 21.6398 24.6308 22.8939 24.531C24.3743 24.4132 25.9201 24.2115 27.5315 23.9259ZM13.2021 20.4836L13.2101 20.4971L13.2935 20.6426C13.9618 21.8045 14.6581 22.9072 15.3823 23.9508C16.2352 25.1799 17.1944 26.4241 18.2598 27.6835C18.4246 27.8783 18.4058 28.1675 18.2198 28.3395L18.2077 28.3503L18.1005 28.4425C14.5756 31.4629 12.2845 32.0658 11.2272 30.2514C10.1924 28.4754 10.5676 25.246 12.3528 20.5634C12.3921 20.4605 12.4658 20.3744 12.5614 20.3198C12.7849 20.1923 13.0683 20.2659 13.2021 20.4836ZM29.3202 13.7639L29.3346 13.7686L29.4673 13.8144C33.8183 15.3279 35.4714 16.9913 34.4265 18.8044C33.4046 20.5776 30.4337 21.8687 25.5139 22.6777C25.4041 22.6957 25.2916 22.6747 25.1957 22.6184C24.9693 22.4853 24.8937 22.1939 25.0268 21.9675C25.7314 20.7688 26.3661 19.5762 26.9307 18.3895C27.5711 17.0437 28.172 15.5991 28.7336 14.0558C28.8187 13.8218 29.0688 13.6947 29.3057 13.7597L29.3202 13.7639ZM13.9509 13.0018C14.1773 13.1349 14.2529 13.4263 14.1198 13.6527C13.4152 14.8514 12.7805 16.044 12.2159 17.2307C11.5755 18.5765 10.9746 20.0211 10.4131 21.5644C10.3262 21.8032 10.0676 21.9306 9.82644 21.8563L9.812 21.8516L9.67933 21.8058C5.32832 20.2923 3.67525 18.6289 4.72014 16.8158C5.74207 15.0426 8.71295 13.7515 13.6328 12.9425C13.7425 12.9245 13.8551 12.9455 13.9509 13.0018ZM27.9194 5.5471C28.9543 7.32313 28.5791 10.5525 26.7938 15.2351C26.7546 15.338 26.6809 15.4241 26.5852 15.4787C26.3617 15.6062 26.0783 15.5326 25.9445 15.3149L25.9365 15.3014L25.8531 15.1559C25.1849 13.994 24.4886 12.8913 23.7643 11.8477C22.9114 10.6186 21.9523 9.37443 20.8869 8.11506C20.722 7.92023 20.7409 7.63104 20.9268 7.45906L20.9389 7.44824L21.0461 7.35598C24.5711 4.33564 26.8622 3.73268 27.9194 5.5471ZM13.0476 4.46627C15.089 4.46627 17.6877 6.40921 20.8438 10.2951C20.9135 10.3809 20.9511 10.4884 20.9502 10.599C20.9479 10.8567 20.7411 11.0647 20.4853 11.0702L20.4705 11.0703L20.3043 11.0692C18.9762 11.062 17.6851 11.1083 16.4311 11.2081C14.9507 11.3259 13.4048 11.5276 11.7935 11.8132C11.5429 11.8576 11.3028 11.6969 11.2469 11.4505L11.2438 11.4359L11.2171 11.2972C10.3509 6.74324 10.9611 4.46627 13.0476 4.46627Z" fill="#FF4154"/>
<path d="M21.493 12.6093H17.4168C16.8207 12.6093 16.2701 12.9281 15.9733 13.4451L13.9266 17.0114C13.6322 17.5244 13.6322 18.1552 13.9266 18.6682L15.9733 22.2345C16.2701 22.7515 16.8207 23.0704 17.4168 23.0704H21.493C22.0891 23.0704 22.6397 22.7515 22.9364 22.2345L24.9831 18.6682C25.2776 18.1552 25.2776 17.5244 24.9831 17.0114L22.9364 13.4451C22.6397 12.9281 22.0891 12.6093 21.493 12.6093Z" fill="#FFD94C"/>
</g>
<defs>
<filter id="filter0_d_59_1760" x="0.216916" y="0.266553" width="40.6013" height="37.1538" filterUnits="userSpaceOnUse" color-interpolation-filters="sRGB">
<feFlood flood-opacity="0" result="BackgroundImageFix"/>
<feColorMatrix in="SourceAlpha" type="matrix" values="0 0 0 0 0 0 0 0 0 0 0 0 0 0 0 0 0 0 127 0" result="hardAlpha"/>
<feOffset dx="0.944215" dy="0.944215"/>
<feGaussianBlur stdDeviation="1.88843"/>
<feComposite in2="hardAlpha" operator="out"/>
<feColorMatrix type="matrix" values="0 0 0 0 0 0 0 0 0 0 0 0 0 0 0 0 0 0 0.3 0"/>
<feBlend mode="normal" in2="BackgroundImageFix" result="effect1_dropShadow_59_1760"/>
<feBlend mode="normal" in="SourceGraphic" in2="effect1_dropShadow_59_1760" result="shape"/>
</filter>
</defs>
</svg>
