<svg width="41" height="38" viewBox="0 0 41 38" fill="none" xmlns="http://www.w3.org/2000/svg">
<g opacity="0.9" filter="url(#filter0_d_59_1755)">
<path d="M29.8934 12.5481C29.5604 12.4301 29.2153 12.3184 28.86 12.2128C28.9184 11.9675 28.972 11.7253 29.0196 11.4873C29.8019 7.57821 29.2904 4.42906 27.5438 3.39222C25.8691 2.39804 23.1301 3.43464 20.3639 5.91278C20.0979 6.15108 19.8312 6.40337 19.5646 6.66779C19.3869 6.49285 19.2095 6.32379 19.0326 6.16208C16.1335 3.51229 13.2277 2.39563 11.4828 3.43546C9.80966 4.43253 9.31416 7.39303 10.0183 11.0977C10.0863 11.4555 10.1658 11.8209 10.2557 12.1924C9.84446 12.3126 9.44742 12.4407 9.06753 12.577C5.6687 13.7969 3.49805 15.7086 3.49805 17.6917C3.49805 19.7397 5.82824 21.794 9.36839 23.0396C9.64777 23.1379 9.93766 23.2308 10.2364 23.3191C10.1394 23.7209 10.0551 24.1147 9.98429 24.4987C9.31285 28.1391 9.8372 31.0296 11.5059 32.0204C13.2295 33.0436 16.1222 31.9919 18.939 29.4573C19.1616 29.2569 19.3851 29.0444 19.6089 28.8217C19.899 29.1093 20.1887 29.3815 20.4768 29.6368C23.2052 32.0537 25.8999 33.0297 27.567 32.0361C29.2889 31.01 29.8486 27.9048 29.122 24.1269C29.0665 23.8384 29.002 23.5436 28.9295 23.2436C29.1326 23.1818 29.332 23.118 29.5265 23.0516C33.2068 21.7964 35.6014 19.7671 35.6014 17.6917C35.6014 15.7015 33.3607 13.7768 29.8934 12.5481ZM29.0952 21.7115C28.9196 21.7714 28.7395 21.8292 28.556 21.8852C28.1497 20.5612 27.6013 19.1532 26.9303 17.6986C27.5706 16.2785 28.0978 14.8886 28.4927 13.5731C28.8211 13.6709 29.1399 13.7741 29.447 13.883C32.4178 14.9358 34.2299 16.4923 34.2299 17.6917C34.2299 18.9692 32.2729 20.6276 29.0952 21.7115ZM27.7766 24.4011C28.0979 26.0716 28.1438 27.582 27.931 28.7627C27.7398 29.8237 27.3553 30.531 26.8798 30.8143C25.8681 31.4172 23.7045 30.6336 21.3712 28.5666C21.1037 28.3297 20.8343 28.0767 20.564 27.8089C21.4686 26.7905 22.3726 25.6065 23.255 24.2916C24.807 24.1499 26.2732 23.9181 27.6029 23.6017C27.6684 23.8736 27.7265 24.1403 27.7766 24.4011ZM14.4428 30.7102C13.4543 31.0695 12.6671 31.0798 12.1912 30.7973C11.1785 30.1961 10.7576 27.8752 11.3318 24.762C11.3976 24.4055 11.4758 24.0393 11.5661 23.6649C12.8812 23.9643 14.3367 24.1797 15.8923 24.3095C16.7806 25.5962 17.7108 26.7788 18.6482 27.8144C18.4434 28.0179 18.2394 28.2117 18.0365 28.3942C16.791 29.515 15.5428 30.3102 14.4428 30.7102ZM9.81194 21.7037C8.24655 21.1529 6.9538 20.4371 6.06767 19.656C5.27144 18.954 4.86943 18.2571 4.86943 17.6917C4.86943 16.4883 6.61225 14.9534 9.51897 13.9102C9.87166 13.7836 10.2409 13.6643 10.624 13.5522C11.0257 14.8974 11.5527 16.3038 12.1887 17.726C11.5445 19.1693 11.01 20.5982 10.6043 21.9591C10.3312 21.8783 10.0666 21.7932 9.81194 21.7037ZM11.3642 10.8265C10.7609 7.6525 11.1616 5.25813 12.1699 4.6573C13.2439 4.01723 15.6189 4.92983 18.122 7.21779C18.282 7.36403 18.4426 7.51709 18.6037 7.67545C17.6709 8.70646 16.7493 9.88023 15.8689 11.1593C14.359 11.3034 12.9137 11.5348 11.5849 11.8447C11.5014 11.4987 11.4274 11.1588 11.3642 10.8265ZM25.2122 14.3465C24.8945 13.7817 24.5684 13.2302 24.2359 12.6938C25.2602 12.8271 26.2416 13.004 27.1632 13.2206C26.8865 14.1334 26.5417 15.0878 26.1357 16.0662C25.8445 15.4971 25.5365 14.9233 25.2122 14.3465ZM19.565 8.6844C20.1976 9.38988 20.8311 10.1775 21.4542 11.0321C20.8263 11.0016 20.1906 10.9857 19.5497 10.9857C18.9148 10.9857 18.2839 11.0012 17.6599 11.0312C18.2836 10.1846 18.9225 9.39799 19.565 8.6844ZM13.8817 14.3563C13.5644 14.9227 13.2621 15.4934 12.9755 16.0652C12.5761 15.0902 12.2344 14.1314 11.9553 13.2056C12.8713 12.9946 13.848 12.8221 14.8658 12.6913C14.5287 13.2327 14.1999 13.7883 13.8817 14.3563ZM14.8951 22.7927C13.8436 22.672 12.8521 22.5083 11.9364 22.3031C12.22 21.3608 12.5692 20.3816 12.977 19.3856C13.2644 19.9569 13.5679 20.5279 13.8871 21.0955C14.2123 21.6738 14.5493 22.2403 14.8951 22.7927ZM19.603 26.7985C18.953 26.0765 18.3046 25.2779 17.6714 24.4189C18.2861 24.4437 18.9128 24.4564 19.5497 24.4564C20.2041 24.4564 20.8509 24.4413 21.4876 24.4121C20.8625 25.2866 20.2313 26.0864 19.603 26.7985ZM26.1488 19.3348C26.5779 20.3416 26.9396 21.3157 27.2268 22.2419C26.296 22.4605 25.291 22.6366 24.2321 22.7674C24.5654 22.2238 24.8944 21.6628 25.2176 21.0858C25.5447 20.502 25.8552 19.9174 26.1488 19.3348ZM24.0297 20.3805C23.5279 21.2762 23.0126 22.1313 22.4896 22.9384C21.537 23.0085 20.5528 23.0447 19.5497 23.0447C18.5507 23.0447 17.5789 23.0127 16.6431 22.9502C16.099 22.1325 15.5726 21.2749 15.0739 20.3882C14.5766 19.504 14.119 18.6123 13.7043 17.7256C14.1189 16.8368 14.5754 15.9441 15.0699 15.0614C15.5657 14.1764 16.0873 13.3232 16.6264 12.5106C17.5812 12.4363 18.5602 12.3975 19.5496 12.3975C20.5435 12.3975 21.5239 12.4366 22.4784 12.5115C23.0092 13.3182 23.5275 14.1688 24.0252 15.0539C24.5286 15.949 24.991 16.8358 25.4091 17.7055C24.9922 18.5901 24.5308 19.4859 24.0297 20.3805ZM26.8588 4.6153C27.9338 5.25348 28.3519 7.82727 27.6765 11.2023C27.6334 11.4177 27.5849 11.637 27.5322 11.8593C26.2003 11.543 24.754 11.3075 23.2397 11.1613C22.3576 9.86817 21.4435 8.69257 20.5259 7.6748C20.7726 7.4305 21.019 7.19756 21.2643 6.97773C23.6344 4.85448 25.8495 4.01617 26.8588 4.6153ZM19.5497 14.7406C21.1329 14.7406 22.4164 16.0618 22.4164 17.6917C22.4164 19.3214 21.1329 20.6427 19.5497 20.6427C17.9665 20.6427 16.683 19.3214 16.683 17.6917C16.683 16.0618 17.9665 14.7406 19.5497 14.7406Z" fill="#00D8FF"/>
</g>
<defs>
<filter id="filter0_d_59_1755" x="0.665402" y="0.185408" width="39.657" height="36.9566" filterUnits="userSpaceOnUse" color-interpolation-filters="sRGB">
<feFlood flood-opacity="0" result="BackgroundImageFix"/>
<feColorMatrix in="SourceAlpha" type="matrix" values="0 0 0 0 0 0 0 0 0 0 0 0 0 0 0 0 0 0 127 0" result="hardAlpha"/>
<feOffset dx="0.944215" dy="0.944215"/>
<feGaussianBlur stdDeviation="1.88843"/>
<feComposite in2="hardAlpha" operator="out"/>
<feColorMatrix type="matrix" values="0 0 0 0 0 0 0 0 0 0 0 0 0 0 0 0 0 0 0.3 0"/>
<feBlend mode="normal" in2="BackgroundImageFix" result="effect1_dropShadow_59_1755"/>
<feBlend mode="normal" in="SourceGraphic" in2="effect1_dropShadow_59_1755" result="shape"/>
</filter>
</defs>
</svg>
