<svg width="41" height="27" viewBox="0 0 41 27" fill="none" xmlns="http://www.w3.org/2000/svg">
<g opacity="0.9" filter="url(#filter0_d_59_1761)">
<path d="M13.2264 15.7168C14.881 15.7168 16.2224 14.3754 16.2224 12.7207C16.2224 11.066 14.881 9.72466 13.2264 9.72466C11.5717 9.72466 10.2303 11.066 10.2303 12.7207C10.2303 14.3754 11.5717 15.7168 13.2264 15.7168ZM6.14475 21.7089C7.79943 21.7089 9.14081 20.3675 9.14081 18.7129C9.14081 17.0582 7.79943 15.7168 6.14475 15.7168C4.49007 15.7168 3.14868 17.0582 3.14868 18.7129C3.14868 20.3675 4.49007 21.7089 6.14475 21.7089ZM33.2001 21.7089C34.8548 21.7089 36.1962 20.3675 36.1962 18.7129C36.1962 17.0582 34.8548 15.7168 33.2001 15.7168C31.5455 15.7168 30.2041 17.0582 30.2041 18.7129C30.2041 20.3675 31.5455 21.7089 33.2001 21.7089Z" fill="black"/>
<path d="M23.36 12.847C23.2642 11.846 23.2154 11.0129 22.4486 10.4273C21.4775 9.68576 20.3774 10.1669 19.0224 9.67783C17.6909 9.35573 16.7033 8.17356 16.7033 6.76451C16.7033 5.10764 18.0688 3.76448 19.7533 3.76448C21.0009 3.76448 22.0735 4.50127 22.546 5.55661C23.2691 6.93009 22.7991 8.32789 23.7076 9.03197C24.7834 9.86565 26.2337 9.25514 27.852 10.045C28.372 10.284 28.8121 10.663 29.1222 11.1327C29.4324 11.6023 29.6125 12.1628 29.6125 12.7646C29.6125 14.1736 28.6249 15.3558 27.2934 15.6779C25.9384 16.167 24.8384 15.6858 23.8672 16.4274C22.7752 17.2613 23.3598 18.6563 22.4698 20.13C21.9646 21.1004 20.9378 21.7646 19.7533 21.7646C18.0688 21.7646 16.7033 20.4215 16.7033 18.7646C16.7033 17.561 17.4239 16.523 18.4639 16.0451C20.0822 15.2552 21.5325 15.8657 22.6082 15.032C23.2288 14.5511 23.36 13.8092 23.36 12.847Z" fill="#D0021B"/>
</g>
<defs>
<filter id="filter0_d_59_1761" x="0.316037" y="0.93184" width="40.6013" height="25.5539" filterUnits="userSpaceOnUse" color-interpolation-filters="sRGB">
<feFlood flood-opacity="0" result="BackgroundImageFix"/>
<feColorMatrix in="SourceAlpha" type="matrix" values="0 0 0 0 0 0 0 0 0 0 0 0 0 0 0 0 0 0 127 0" result="hardAlpha"/>
<feOffset dx="0.944215" dy="0.944215"/>
<feGaussianBlur stdDeviation="1.88843"/>
<feComposite in2="hardAlpha" operator="out"/>
<feColorMatrix type="matrix" values="0 0 0 0 0 0 0 0 0 0 0 0 0 0 0 0 0 0 0.3 0"/>
<feBlend mode="normal" in2="BackgroundImageFix" result="effect1_dropShadow_59_1761"/>
<feBlend mode="normal" in="SourceGraphic" in2="effect1_dropShadow_59_1761" result="shape"/>
</filter>
</defs>
</svg>
