<svg width="37" height="42" viewBox="0 0 37 42" fill="none" xmlns="http://www.w3.org/2000/svg">
<g opacity="0.9" filter="url(#filter0_d_59_1769)">
<path fill-rule="evenodd" clip-rule="evenodd" d="M12.0913 23.6272C11.5768 23.9557 10.8016 24.4879 10.2019 25.0666C9.2173 26.0158 9.01127 27.3324 9.53066 27.64C10.0111 27.9243 11.1328 27.586 11.9355 26.6922C12.778 25.7537 13.1255 24.5641 12.7666 23.2136C12.7245 23.2392 12.6831 23.265 12.6425 23.2889L12.6434 23.2908L12.5889 23.3223C12.3795 23.4499 12.2083 23.5552 12.0913 23.6272ZM26.5501 23.2012C26.2586 23.8477 26.244 24.0558 26.3326 24.1205C26.7555 23.9654 27.4551 23.5917 27.4606 22.5901C27.4615 22.4401 27.4291 22.2791 27.3771 22.1109C26.925 22.5196 26.6644 22.9475 26.5501 23.2012ZM31.0879 21.2463C29.9581 21.1118 29.0766 21.2736 28.3924 21.5646C28.5191 21.9012 28.6165 22.2518 28.6302 22.605C28.662 23.3802 28.1393 23.9539 27.5945 24.3635C27.2764 24.6023 26.9379 24.7614 26.6538 24.8576C26.4266 24.9554 26.1246 25.0565 25.9103 25.0119C25.4378 24.9138 25.1863 24.4854 25.5078 23.5403C25.6814 23.0288 26.1822 22.2502 26.9906 21.5796C26.8064 21.1924 26.601 20.7978 26.4963 20.4353C26.2901 19.7208 26.2278 19.2888 26.2278 19.2888C26.2278 19.2888 25.5614 20.6991 24.7018 21.9816C24.6522 22.0561 24.6028 22.1292 24.5532 22.2021C24.722 22.6026 24.855 23.0262 24.8731 23.4533C24.9047 24.2284 24.576 24.8145 24.0305 25.2232C23.7352 25.4455 23.4201 25.599 23.1498 25.6967C22.977 25.7737 22.6254 25.9005 22.1255 25.9346C21.8521 25.9537 21.5891 25.9364 21.4423 25.8228C21.2401 25.6669 21.2158 25.4745 21.3204 25.2117C21.409 24.9886 22.0712 24.2169 22.6264 23.5412C22.7798 23.3546 22.9259 23.1639 23.0565 22.9874L23.0533 22.9798C23.0533 22.9798 23.1539 22.8473 23.3171 22.616C23.1142 22.1699 22.8569 21.7055 22.736 21.2844C22.5297 20.5699 22.4673 20.1378 22.4673 20.1378C22.4673 20.1378 21.7919 21.9055 21.0883 23.3165C20.5438 24.4093 20.1801 25.0716 20.0162 25.3618L20.0145 25.3734C20.0145 25.3734 19.9901 25.4158 19.9479 25.4821L19.9164 25.5359L19.9155 25.5309C19.7328 25.8063 19.323 26.3459 18.9156 26.3459C17.7971 26.3459 18.2077 24.027 18.2077 24.027C18.2077 24.027 17.8808 24.8859 17.5122 25.6229C17.212 26.224 16.9385 26.7332 16.3403 26.7332C16.1682 26.7332 15.8955 26.7281 15.669 26.5083C15.1552 26.01 14.7624 24.7448 14.8394 23.7649C14.9052 22.9318 15.031 22.3547 15.203 21.8732C14.8962 22.0438 14.5416 22.2463 14.1804 22.4627L13.6252 22.7967L13.6431 22.8299C14.1024 23.7369 14.225 25.7242 13.2234 27.2496C12.2219 28.7759 10.3575 29.7045 8.54111 29.1888C7.955 29.0221 7.06958 27.7843 7.83328 26.0591C8.50692 24.5377 11.1992 23.0993 11.9086 22.7403L12.1034 22.6309C10.6888 21.3673 7.15644 19.6628 6.66139 17.0446C6.52175 16.3076 6.86023 14.5451 8.98017 12.5189C10.7633 10.8152 13.2437 9.51017 15.5351 8.6786C19.3846 7.28167 23.4519 8.10568 24.0776 10.6112C24.6928 13.0752 22.5989 16.0225 19.9172 17.082C17.5228 18.0279 15.5432 17.8779 14.7299 17.6052C13.8054 17.2952 13.2632 16.6725 13.131 16.3209C13.079 16.1834 12.9896 15.9521 13.131 15.8725C13.2177 15.8236 13.2526 15.8352 13.4847 16.0972C13.7056 16.3459 14.5935 17.0134 16.2801 16.8201C20.7061 16.3136 23.3722 12.8008 22.5297 10.9105C21.9397 9.58732 18.5284 8.99035 14.2664 11.16C9.06371 13.808 8.78133 15.991 8.73674 16.8201C8.61492 19.1008 11.4922 20.3005 13.049 21.9966L13.109 22.0638C13.4003 21.8997 13.708 21.7264 14.0099 21.5573C14.7948 21.117 15.5351 20.7041 15.88 20.5117C16.4279 19.6987 17.5397 18.8014 18.3425 18.8014C19.6257 18.8014 19.185 20.6843 19.185 20.6843C19.185 20.6843 19.211 20.5981 19.2459 20.5973C19.2824 20.5963 19.4237 20.3493 19.8198 20.4968C20.2272 20.6494 20.1346 20.9413 20.1371 20.9711C20.142 21.029 19.6558 22.7029 19.4538 23.7766C19.3571 24.2889 19.413 24.6621 19.4416 24.6621C19.4813 24.6621 19.5625 24.5319 19.638 24.3918L19.6363 24.3877C19.6363 24.3877 19.6931 24.2816 19.7882 24.0909L19.8069 24.0511L19.8076 24.0529C19.9197 23.829 20.0771 23.4998 20.2589 23.0919C20.6152 22.2903 21.9746 19.1953 22.0899 18.853C22.2051 18.5106 22.2652 18.1566 22.322 18.0048C22.378 17.8531 22.8586 17.7386 23.4201 17.7428C23.9818 17.747 24.0388 17.9916 24.0427 18.0422C24.0467 18.0926 23.7757 18.7717 23.7131 19.2517C23.6515 19.7317 23.7108 19.9712 23.7619 20.3742C23.7952 20.6378 23.9567 20.972 24.1475 21.3509C24.7287 20.3808 25.7512 18.5254 25.8495 18.0056C25.9167 17.65 26.0247 17.3092 26.0816 17.1574C26.1384 17.0057 26.6181 16.8914 27.1797 16.8954C27.7414 16.8996 27.7981 17.1442 27.8022 17.1948C27.8063 17.2454 27.5343 17.9243 27.4727 18.4044C27.411 18.8836 27.4704 19.124 27.5214 19.527C27.5653 19.8718 27.8266 20.3353 28.0856 20.8624C28.7924 20.5067 29.6244 20.2681 30.5985 20.2631C31.0018 20.2607 31.4702 20.3021 31.712 20.3791V12.4475C31.712 11.8879 31.4311 11.3722 30.9564 11.0929L18.2818 3.61457C17.8078 3.33512 17.2275 3.33512 16.7535 3.61457L4.11378 11.0893C3.63975 11.3687 3.38647 11.8853 3.38647 12.444V27.4071C3.38647 27.9658 3.6413 28.4823 4.11455 28.7616L16.7746 36.2422C17.2485 36.5226 17.8232 36.5226 18.2971 36.2422L30.9629 28.7616C31.4368 28.4814 31.7129 27.9656 31.7129 27.4071V21.3599C31.5521 21.3115 31.3168 21.2735 31.0879 21.2463ZM17.4522 20.4627C17.1803 20.7735 16.7169 21.5752 16.5002 22.2461C16.0692 23.5783 16.2559 24.9322 16.561 25.0135C16.9173 25.1088 17.5018 23.328 17.7816 22.6315C17.957 22.1954 18.6388 20.2597 18.4894 20.001C18.3728 19.7987 17.8897 19.9621 17.4522 20.4627ZM22.3831 24.9529C22.3831 24.9529 22.2971 25.0359 22.3343 25.0591C22.3847 25.0898 22.4934 25.0499 22.6119 24.9869C22.9472 24.7715 23.6995 24.2342 23.7012 23.4391C23.7012 23.4159 23.7003 23.3935 23.6987 23.3695C23.5243 23.6033 23.3635 23.8114 23.2247 23.9879C22.9877 24.2888 22.3831 24.9529 22.3831 24.9529Z" fill="#8CC84B"/>
</g>
<defs>
<filter id="filter0_d_59_1769" x="0.55383" y="0.572339" width="35.8801" height="40.6012" filterUnits="userSpaceOnUse" color-interpolation-filters="sRGB">
<feFlood flood-opacity="0" result="BackgroundImageFix"/>
<feColorMatrix in="SourceAlpha" type="matrix" values="0 0 0 0 0 0 0 0 0 0 0 0 0 0 0 0 0 0 127 0" result="hardAlpha"/>
<feOffset dx="0.944215" dy="0.944215"/>
<feGaussianBlur stdDeviation="1.88843"/>
<feComposite in2="hardAlpha" operator="out"/>
<feColorMatrix type="matrix" values="0 0 0 0 0 0 0 0 0 0 0 0 0 0 0 0 0 0 0.3 0"/>
<feBlend mode="normal" in2="BackgroundImageFix" result="effect1_dropShadow_59_1769"/>
<feBlend mode="normal" in="SourceGraphic" in2="effect1_dropShadow_59_1769" result="shape"/>
</filter>
</defs>
</svg>
