<svg width="42" height="41" viewBox="0 0 42 41" fill="none" xmlns="http://www.w3.org/2000/svg">
<g opacity="0.9" filter="url(#filter0_d_59_1756)">
<path d="M6.23467 3.21077H34.1185C35.5444 3.21077 36.7004 4.36669 36.7004 5.7926V33.6764C36.7004 35.1024 35.5444 36.2583 34.1185 36.2583H6.23467C4.80876 36.2583 3.65283 35.1024 3.65283 33.6764V5.7926C3.65283 4.36669 4.80876 3.21077 6.23467 3.21077Z" fill="#3178C6"/>
<path d="M23.0835 29.0905V32.656C23.6634 32.9531 24.3492 33.176 25.1409 33.3245C25.9327 33.4731 26.7671 33.5474 27.6444 33.5474C28.4993 33.5474 29.3115 33.4656 30.0809 33.3022C30.8503 33.1388 31.5251 32.8695 32.1048 32.4945C32.6847 32.1193 33.1437 31.629 33.4821 31.0236C33.8203 30.4183 33.9894 29.67 33.9894 28.7786C33.9894 28.1323 33.8927 27.5659 33.6995 27.0793C33.5062 26.5928 33.2274 26.1601 32.8631 25.7813C32.4989 25.4024 32.0621 25.0627 31.5529 24.7617C31.0437 24.461 30.4693 24.1768 29.83 23.9095C29.3616 23.7162 28.9417 23.5288 28.5699 23.3468C28.1982 23.1648 27.8822 22.9791 27.6221 22.7896C27.3618 22.6002 27.1611 22.3996 27.0199 22.1879C26.8787 21.9762 26.808 21.7367 26.808 21.4693C26.808 21.2241 26.8712 21.0032 26.9975 20.8064C27.1239 20.6095 27.3025 20.4405 27.5329 20.2994C27.7633 20.1582 28.0458 20.0487 28.3804 19.9706C28.7149 19.8927 29.0866 19.8537 29.4955 19.8537C29.7929 19.8537 30.107 19.876 30.4377 19.9205C30.7686 19.9651 31.1012 20.0338 31.4359 20.1267C31.7703 20.2195 32.0955 20.3365 32.4115 20.4777C32.7274 20.6188 33.0193 20.7822 33.2869 20.9679V17.6364C32.7442 17.4284 32.1513 17.2743 31.5083 17.174C30.8653 17.0737 30.1274 17.0236 29.2947 17.0236C28.4472 17.0236 27.6444 17.1146 26.8861 17.2966C26.1279 17.4785 25.4606 17.7626 24.8844 18.1489C24.3083 18.5353 23.853 19.0274 23.5184 19.6253C23.1839 20.2233 23.0166 20.9382 23.0166 21.7702C23.0166 22.8323 23.3232 23.7386 23.9366 24.4888C24.55 25.239 25.481 25.8741 26.7299 26.3941C27.2206 26.5947 27.6779 26.7915 28.1015 26.9847C28.5253 27.1778 28.8915 27.3783 29.2 27.5863C29.5085 27.7942 29.752 28.0208 29.9304 28.2659C30.1088 28.5111 30.198 28.7897 30.198 29.1017C30.198 29.3319 30.1422 29.5455 30.0307 29.7424C29.9193 29.9391 29.75 30.11 29.5234 30.2549C29.2967 30.3997 29.0141 30.5129 28.6759 30.5946C28.3377 30.6764 27.9417 30.7173 27.4882 30.7173C26.7151 30.7173 25.9495 30.5817 25.1912 30.3105C24.4328 30.0394 23.7302 29.6328 23.0835 29.0905ZM17.1406 20.2176H21.7257V17.2818H8.9456V20.2176H13.5083V33.2892H17.1406V20.2176Z" fill="white"/>
</g>
<defs>
<filter id="filter0_d_59_1756" x="0.820187" y="0.378121" width="40.6013" height="40.6012" filterUnits="userSpaceOnUse" color-interpolation-filters="sRGB">
<feFlood flood-opacity="0" result="BackgroundImageFix"/>
<feColorMatrix in="SourceAlpha" type="matrix" values="0 0 0 0 0 0 0 0 0 0 0 0 0 0 0 0 0 0 127 0" result="hardAlpha"/>
<feOffset dx="0.944215" dy="0.944215"/>
<feGaussianBlur stdDeviation="1.88843"/>
<feComposite in2="hardAlpha" operator="out"/>
<feColorMatrix type="matrix" values="0 0 0 0 0 0 0 0 0 0 0 0 0 0 0 0 0 0 0.3 0"/>
<feBlend mode="normal" in2="BackgroundImageFix" result="effect1_dropShadow_59_1756"/>
<feBlend mode="normal" in="SourceGraphic" in2="effect1_dropShadow_59_1756" result="shape"/>
</filter>
</defs>
</svg>
