<svg width="44" height="42" viewBox="0 0 44 42" fill="none" xmlns="http://www.w3.org/2000/svg">
<g opacity="0.9" filter="url(#filter0_d_59_1767)">
<path d="M30.1266 13.7466L21.5364 26.1669C21.4454 26.2986 21.3137 26.3972 21.1613 26.4478C21.0089 26.4985 20.8442 26.498 20.6922 26.4471C20.5401 26.396 20.409 26.2969 20.3187 26.165C20.2285 26.0328 20.1839 25.875 20.192 25.7155L20.5358 18.8582L14.9856 17.6811C14.867 17.656 14.7565 17.6021 14.6638 17.5243C14.5712 17.4464 14.4993 17.347 14.4545 17.2349C14.4097 17.1227 14.3935 17.0012 14.4071 16.8812C14.4207 16.7612 14.4639 16.6464 14.5327 16.5468L23.123 4.12655C23.2141 3.99479 23.3458 3.89616 23.4982 3.8456C23.6506 3.79504 23.8153 3.7953 23.9674 3.84639C24.1194 3.89744 24.2505 3.99652 24.3408 4.12859C24.431 4.26063 24.4755 4.41845 24.4675 4.57809L24.1237 11.4354L29.6738 12.6124C29.7924 12.6375 29.9029 12.6914 29.9957 12.7692C30.0884 12.8471 30.1601 12.9465 30.2048 13.0587C30.2498 13.1708 30.2659 13.2923 30.2524 13.4123C30.2388 13.5323 30.1956 13.6471 30.1266 13.7466Z" fill="#FCC72B" shape-rendering="crispEdges"/>
<path d="M21.1307 36.5874C20.9022 36.5876 20.676 36.5429 20.4649 36.4555C20.2538 36.368 20.0621 36.2396 19.9007 36.078L11.784 27.9618C11.4593 27.6354 11.2773 27.1935 11.2779 26.7331C11.2785 26.2726 11.4616 25.831 11.7873 25.5056C12.1128 25.1799 12.5543 24.9966 13.0147 24.9959C13.4752 24.9955 13.9172 25.1773 14.2437 25.502L21.1307 32.3883L36.1343 17.3855C36.4614 17.0637 36.9023 16.8841 37.3611 16.886C37.8201 16.8879 38.2596 17.071 38.5838 17.3954C38.9083 17.7199 39.0916 18.1594 39.0935 18.6182C39.0951 19.0771 38.9157 19.5181 38.5938 19.8451L22.3604 36.078C22.1991 36.2399 22.0074 36.368 21.7964 36.4555C21.5854 36.5429 21.3591 36.5876 21.1307 36.5874Z" fill="#729B1B" shape-rendering="crispEdges"/>
<path d="M21.1238 36.5874C21.3523 36.5876 21.5786 36.5429 21.7896 36.4555C22.0007 36.368 22.1924 36.2396 22.3538 36.078L30.4706 27.9618C30.7953 27.6354 30.9774 27.1935 30.9766 26.7331C30.9762 26.2726 30.7929 25.831 30.4672 25.5056C30.1416 25.1799 29.7002 24.9966 29.2397 24.9959C28.7793 24.9955 28.3374 25.1773 28.0108 25.502L21.1238 32.3883L6.12027 17.3855C5.79319 17.0637 5.3522 16.8841 4.89338 16.886C4.43454 16.8879 3.99502 17.071 3.67058 17.3954C3.34613 17.7199 3.16303 18.1594 3.16115 18.6182C3.15929 19.0771 3.33881 19.5181 3.6606 19.8451L19.8941 36.078C20.0554 36.2399 20.2471 36.368 20.4581 36.4555C20.6692 36.5429 20.8954 36.5876 21.1238 36.5874Z" fill="#729B1B" fill-opacity="0.5" shape-rendering="crispEdges"/>
</g>
<defs>
<filter id="filter0_d_59_1767" x="0.328488" y="0.975232" width="43.4861" height="40.3332" filterUnits="userSpaceOnUse" color-interpolation-filters="sRGB">
<feFlood flood-opacity="0" result="BackgroundImageFix"/>
<feColorMatrix in="SourceAlpha" type="matrix" values="0 0 0 0 0 0 0 0 0 0 0 0 0 0 0 0 0 0 127 0" result="hardAlpha"/>
<feOffset dx="0.944215" dy="0.944215"/>
<feGaussianBlur stdDeviation="1.88843"/>
<feComposite in2="hardAlpha" operator="out"/>
<feColorMatrix type="matrix" values="0 0 0 0 0 0 0 0 0 0 0 0 0 0 0 0 0 0 0.3 0"/>
<feBlend mode="normal" in2="BackgroundImageFix" result="effect1_dropShadow_59_1767"/>
<feBlend mode="normal" in="SourceGraphic" in2="effect1_dropShadow_59_1767" result="shape"/>
</filter>
</defs>
</svg>
