<svg width="38" height="41" viewBox="0 0 38 41" fill="none" xmlns="http://www.w3.org/2000/svg">
<g opacity="0.9" filter="url(#filter0_d_59_1763)">
<path d="M18.1445 3.75209L32.7478 11.7766V27.8309L18.1445 35.8554L3.54126 27.8309V11.7766L18.1445 3.75209Z" fill="white"/>
<path d="M30.1415 27.2742L18.6297 33.607V28.6821L25.8046 24.8438L30.1415 27.2742ZM30.9295 26.5836V13.3504L26.7193 15.7112V24.2228L30.9295 26.5836ZM6.10389 27.2742L17.6157 33.6017V28.6767L10.4408 24.8438L6.10389 27.2742ZM5.31587 26.5836V13.3504L9.52602 15.7112V24.2228L5.31587 26.5836ZM5.80632 12.4939L17.6157 6.00578V10.7702L10.0495 14.8118L9.98892 14.844L5.80632 12.4939ZM30.4335 12.4939L18.6297 6.00578V10.7702L26.1903 14.8172L26.2509 14.8493L30.4335 12.4939Z" fill="#8ED6FB"/>
<path d="M17.6156 27.5579L10.5399 23.7732V16.284L17.6156 20.2508V27.5579ZM18.6295 27.5579L25.7052 23.7785V16.284L18.6295 20.2508V27.5579ZM11.0138 15.4168L18.1225 11.6213L25.2258 15.4168L18.1225 19.3996L11.0138 15.4168Z" fill="#1C78C0"/>
</g>
<defs>
<filter id="filter0_d_59_1763" x="0.708615" y="0.919446" width="36.7603" height="39.657" filterUnits="userSpaceOnUse" color-interpolation-filters="sRGB">
<feFlood flood-opacity="0" result="BackgroundImageFix"/>
<feColorMatrix in="SourceAlpha" type="matrix" values="0 0 0 0 0 0 0 0 0 0 0 0 0 0 0 0 0 0 127 0" result="hardAlpha"/>
<feOffset dx="0.944215" dy="0.944215"/>
<feGaussianBlur stdDeviation="1.88843"/>
<feComposite in2="hardAlpha" operator="out"/>
<feColorMatrix type="matrix" values="0 0 0 0 0 0 0 0 0 0 0 0 0 0 0 0 0 0 0.3 0"/>
<feBlend mode="normal" in2="BackgroundImageFix" result="effect1_dropShadow_59_1763"/>
<feBlend mode="normal" in="SourceGraphic" in2="effect1_dropShadow_59_1763" result="shape"/>
</filter>
</defs>
</svg>
