<svg width="41" height="42" viewBox="0 0 41 42" fill="none" xmlns="http://www.w3.org/2000/svg">
<g opacity="0.9" filter="url(#filter0_d_59_1748)">
<path d="M5.77086 20.1804C5.77086 25.7694 8.92612 30.5995 13.5015 32.8883L6.95842 14.4339C6.19733 16.1899 5.77086 18.1333 5.77086 20.1804ZM28.7474 19.4678C28.7474 17.7228 28.1385 16.5142 27.6162 15.5736C26.9209 14.4105 26.2692 13.4255 26.2692 12.2624C26.2692 10.9644 27.2255 9.75616 28.5726 9.75616C28.6334 9.75616 28.6911 9.76395 28.7503 9.76745C26.3099 7.46594 23.0586 6.06075 19.4876 6.06075C14.6956 6.06075 10.4796 8.59171 8.02696 12.4252C8.34878 12.4352 8.65206 12.4421 8.90967 12.4421C10.3444 12.4421 12.5653 12.2629 12.5653 12.2629C13.3047 12.2181 13.3919 13.336 12.6532 13.426C12.6532 13.426 11.9102 13.5161 11.0833 13.5607L16.0784 28.8552L19.0802 19.5877L16.9431 13.5601C16.2044 13.5155 15.5047 13.4255 15.5047 13.4255C14.7655 13.3809 14.8522 12.2175 15.5913 12.2624C15.5913 12.2624 17.8566 12.4416 19.2044 12.4416C20.6389 12.4416 22.86 12.2624 22.86 12.2624C23.5999 12.2175 23.6869 13.3355 22.948 13.4255C22.948 13.4255 22.2033 13.5155 21.378 13.5601L26.335 28.7389L27.7032 24.0324C28.2962 22.0794 28.7474 20.6766 28.7474 19.4678ZM19.7282 21.4155L15.6127 33.7261C16.8415 34.0979 18.1411 34.3013 19.4876 34.3013C21.0849 34.3013 22.6167 34.0171 24.0426 33.5009C24.0058 33.4405 23.9724 33.3763 23.945 33.3064L19.7282 21.4155ZM31.5234 13.4059C31.5824 13.8557 31.6158 14.3385 31.6158 14.8578C31.6158 16.2907 31.3559 17.9014 30.5729 19.9155L26.383 32.3857C30.4609 29.9377 33.2038 25.3898 33.2038 20.1806C33.204 17.7257 32.5949 15.4172 31.5234 13.4059ZM19.4876 3.72109C10.6712 3.72109 3.49805 11.1047 3.49805 20.1804C3.49805 29.2572 10.6712 36.6405 19.4876 36.6405C28.3037 36.6405 35.4779 29.2572 35.4779 20.1804C35.4776 11.1047 28.3037 3.72109 19.4876 3.72109ZM19.4876 35.886C11.0755 35.886 4.2312 28.8404 4.2312 20.1804C4.2312 11.5208 11.0752 4.47581 19.4876 4.47581C27.8994 4.47581 34.7432 11.5208 34.7432 20.1804C34.7432 28.8404 27.8994 35.886 19.4876 35.886Z" fill="#1E1B1E"/>
</g>
<defs>
<filter id="filter0_d_59_1748" x="0.665402" y="0.888448" width="39.5335" height="40.4731" filterUnits="userSpaceOnUse" color-interpolation-filters="sRGB">
<feFlood flood-opacity="0" result="BackgroundImageFix"/>
<feColorMatrix in="SourceAlpha" type="matrix" values="0 0 0 0 0 0 0 0 0 0 0 0 0 0 0 0 0 0 127 0" result="hardAlpha"/>
<feOffset dx="0.944215" dy="0.944215"/>
<feGaussianBlur stdDeviation="1.88843"/>
<feComposite in2="hardAlpha" operator="out"/>
<feColorMatrix type="matrix" values="0 0 0 0 0 0 0 0 0 0 0 0 0 0 0 0 0 0 0.3 0"/>
<feBlend mode="normal" in2="BackgroundImageFix" result="effect1_dropShadow_59_1748"/>
<feBlend mode="normal" in="SourceGraphic" in2="effect1_dropShadow_59_1748" result="shape"/>
</filter>
</defs>
</svg>
