<svg width="41" height="42" viewBox="0 0 41 42" fill="none" xmlns="http://www.w3.org/2000/svg">
<g opacity="0.9" filter="url(#filter0_d_59_1751)">
<path d="M2.85132 15.6811C2.85132 11.4947 2.85132 9.40153 3.66605 7.80253C4.38271 6.39601 5.52624 5.25248 6.93276 4.53582C8.53176 3.72109 10.625 3.72109 14.8114 3.72109H23.9388C28.1252 3.72109 30.2184 3.72109 31.8174 4.53582C33.2239 5.25248 34.3675 6.39601 35.0841 7.80253C35.8988 9.40153 35.8988 11.4947 35.8988 15.6811V24.8086C35.8988 28.995 35.8988 31.0882 35.0841 32.6872C34.3675 34.0937 33.2239 35.2372 31.8174 35.9539C30.2184 36.7686 28.1252 36.7686 23.9388 36.7686H14.8114C10.625 36.7686 8.53176 36.7686 6.93276 35.9539C5.52624 35.2372 4.38271 34.0937 3.66605 32.6872C2.85132 31.0882 2.85132 28.995 2.85132 24.8086V15.6811Z" fill="#470137"/>
<path d="M20.1381 13.4392L16.0146 20.4197L20.4263 27.8323C20.518 28.0003 20.4263 28.0374 20.2933 28.0374H17.1453C16.9235 28.0374 16.7683 28.0294 16.6797 27.8777C16.3838 27.2866 16.0882 26.6992 15.7929 26.1156C15.4971 25.5322 15.183 24.9372 14.8507 24.3306C14.5182 23.7245 14.1893 23.1106 13.8642 22.4888C13.5683 23.0953 13.2395 23.7017 12.9219 24.3079C12.604 24.9144 12.2899 25.5169 11.9798 26.1156C11.6694 26.7145 11.3517 27.3095 11.0265 27.9005C10.9673 28.0369 10.8637 28.051 10.7161 28.051H7.67894C7.55961 28.051 7.5452 27.9613 7.61244 27.855L11.8911 20.6471L7.72325 13.4164C7.64754 13.3133 7.7127 13.2033 7.83412 13.2118H10.96C11.0953 13.2041 11.2149 13.2552 11.2925 13.371C11.5585 13.9774 11.8541 14.5838 12.1793 15.19C12.5042 15.7965 12.8331 16.3952 13.1658 16.9863C13.4984 17.5775 13.8272 18.1762 14.108 18.7826C14.4035 18.1612 14.7028 17.5549 15.0059 16.9636C15.3087 16.3724 15.619 15.7774 15.937 15.1786C16.2547 14.58 16.5614 13.985 16.857 13.3937C16.8963 13.264 16.9902 13.1983 17.1231 13.2118H20.0272C20.1381 13.2118 20.184 13.3632 20.1381 13.4392Z" fill="#FF61F6"/>
<path d="M26.5005 28.3327C24.5454 28.3632 22.4975 27.5582 21.4681 25.7746C20.9655 24.9184 20.7142 23.8459 20.7143 22.5572C20.706 21.5137 20.966 20.4863 21.4681 19.5786C22.7637 17.2627 25.3737 16.395 27.8528 16.6227V12.1433C27.8528 12.0374 27.8972 11.9842 27.9859 11.9842H30.7792C30.8555 11.973 30.9231 12.0423 30.9123 12.1206V25.5586C30.9123 26.1131 30.9672 26.6656 31.0009 27.2185C31.0064 27.3129 30.9517 27.4063 30.8679 27.4459C29.4877 28.0362 27.9944 28.3258 26.5005 28.3327ZM27.8528 25.5132V19.3057C25.828 18.7431 23.8621 20.2855 23.8624 22.4208C23.8143 24.6285 25.7173 26.1537 27.8528 25.5132Z" fill="#FF61F6"/>
</g>
<defs>
<filter id="filter0_d_59_1751" x="0.0186737" y="0.888448" width="40.6013" height="40.6012" filterUnits="userSpaceOnUse" color-interpolation-filters="sRGB">
<feFlood flood-opacity="0" result="BackgroundImageFix"/>
<feColorMatrix in="SourceAlpha" type="matrix" values="0 0 0 0 0 0 0 0 0 0 0 0 0 0 0 0 0 0 127 0" result="hardAlpha"/>
<feOffset dx="0.944215" dy="0.944215"/>
<feGaussianBlur stdDeviation="1.88843"/>
<feComposite in2="hardAlpha" operator="out"/>
<feColorMatrix type="matrix" values="0 0 0 0 0 0 0 0 0 0 0 0 0 0 0 0 0 0 0.3 0"/>
<feBlend mode="normal" in2="BackgroundImageFix" result="effect1_dropShadow_59_1751"/>
<feBlend mode="normal" in="SourceGraphic" in2="effect1_dropShadow_59_1751" result="shape"/>
</filter>
</defs>
</svg>
