<svg width="199" height="72" viewBox="0 0 199 72" fill="none" xmlns="http://www.w3.org/2000/svg">
<path d="M198.833 5.12017C198.833 7.94796 196.541 10.2403 193.713 10.2403C190.885 10.2403 188.593 7.94796 188.593 5.12017C188.593 2.29238 190.885 0 193.713 0C196.541 0 198.833 2.29238 198.833 5.12017Z" fill="url(#paint0_linear_13_171)" fill-opacity="0.4"/>
<path d="M198.833 20.4807C198.833 23.3085 196.541 25.6009 193.713 25.6009C190.885 25.6009 188.593 23.3085 188.593 20.4807C188.593 17.6529 190.885 15.3605 193.713 15.3605C196.541 15.3605 198.833 17.6529 198.833 20.4807Z" fill="url(#paint1_linear_13_171)" fill-opacity="0.4"/>
<path d="M198.833 35.8412C198.833 38.669 196.541 40.9614 193.713 40.9614C190.885 40.9614 188.593 38.669 188.593 35.8412C188.593 33.0134 190.885 30.721 193.713 30.721C196.541 30.721 198.833 33.0134 198.833 35.8412Z" fill="url(#paint2_linear_13_171)" fill-opacity="0.4"/>
<path d="M198.833 51.2017C198.833 54.0295 196.541 56.3219 193.713 56.3219C190.885 56.3219 188.593 54.0295 188.593 51.2017C188.593 48.3739 190.885 46.0816 193.713 46.0816C196.541 46.0816 198.833 48.3739 198.833 51.2017Z" fill="url(#paint3_linear_13_171)" fill-opacity="0.4"/>
<path d="M198.833 66.5622C198.833 69.39 196.541 71.6824 193.713 71.6824C190.885 71.6824 188.593 69.39 188.593 66.5622C188.593 63.7344 190.885 61.4421 193.713 61.4421C196.541 61.4421 198.833 63.7344 198.833 66.5622Z" fill="url(#paint4_linear_13_171)" fill-opacity="0.4"/>
<path d="M184.326 5.12017C184.326 7.94796 182.034 10.2403 179.206 10.2403C176.378 10.2403 174.086 7.94796 174.086 5.12017C174.086 2.29238 176.378 0 179.206 0C182.034 0 184.326 2.29238 184.326 5.12017Z" fill="url(#paint5_linear_13_171)" fill-opacity="0.4"/>
<path d="M184.326 20.4807C184.326 23.3085 182.034 25.6009 179.206 25.6009C176.378 25.6009 174.086 23.3085 174.086 20.4807C174.086 17.6529 176.378 15.3605 179.206 15.3605C182.034 15.3605 184.326 17.6529 184.326 20.4807Z" fill="url(#paint6_linear_13_171)" fill-opacity="0.4"/>
<path d="M184.326 35.8412C184.326 38.669 182.034 40.9614 179.206 40.9614C176.378 40.9614 174.086 38.669 174.086 35.8412C174.086 33.0134 176.378 30.721 179.206 30.721C182.034 30.721 184.326 33.0134 184.326 35.8412Z" fill="url(#paint7_linear_13_171)" fill-opacity="0.4"/>
<path d="M184.326 51.2017C184.326 54.0295 182.034 56.3219 179.206 56.3219C176.378 56.3219 174.086 54.0295 174.086 51.2017C174.086 48.3739 176.378 46.0816 179.206 46.0816C182.034 46.0816 184.326 48.3739 184.326 51.2017Z" fill="url(#paint8_linear_13_171)" fill-opacity="0.4"/>
<path d="M184.326 66.5622C184.326 69.39 182.034 71.6824 179.206 71.6824C176.378 71.6824 174.086 69.39 174.086 66.5622C174.086 63.7344 176.378 61.4421 179.206 61.4421C182.034 61.4421 184.326 63.7344 184.326 66.5622Z" fill="url(#paint9_linear_13_171)" fill-opacity="0.4"/>
<path d="M169.819 5.12017C169.819 7.94796 167.527 10.2403 164.699 10.2403C161.871 10.2403 159.579 7.94796 159.579 5.12017C159.579 2.29238 161.871 0 164.699 0C167.527 0 169.819 2.29238 169.819 5.12017Z" fill="url(#paint10_linear_13_171)" fill-opacity="0.4"/>
<path d="M169.819 20.4807C169.819 23.3085 167.527 25.6009 164.699 25.6009C161.871 25.6009 159.579 23.3085 159.579 20.4807C159.579 17.6529 161.871 15.3605 164.699 15.3605C167.527 15.3605 169.819 17.6529 169.819 20.4807Z" fill="url(#paint11_linear_13_171)" fill-opacity="0.4"/>
<path d="M169.819 35.8412C169.819 38.669 167.527 40.9614 164.699 40.9614C161.871 40.9614 159.579 38.669 159.579 35.8412C159.579 33.0134 161.871 30.721 164.699 30.721C167.527 30.721 169.819 33.0134 169.819 35.8412Z" fill="url(#paint12_linear_13_171)" fill-opacity="0.4"/>
<path d="M169.819 51.2017C169.819 54.0295 167.527 56.3219 164.699 56.3219C161.871 56.3219 159.579 54.0295 159.579 51.2017C159.579 48.3739 161.871 46.0816 164.699 46.0816C167.527 46.0816 169.819 48.3739 169.819 51.2017Z" fill="url(#paint13_linear_13_171)" fill-opacity="0.4"/>
<path d="M169.819 66.5622C169.819 69.39 167.527 71.6824 164.699 71.6824C161.871 71.6824 159.579 69.39 159.579 66.5622C159.579 63.7344 161.871 61.4421 164.699 61.4421C167.527 61.4421 169.819 63.7344 169.819 66.5622Z" fill="url(#paint14_linear_13_171)" fill-opacity="0.4"/>
<path d="M155.312 5.12017C155.312 7.94796 153.02 10.2403 150.192 10.2403C147.364 10.2403 145.072 7.94796 145.072 5.12017C145.072 2.29238 147.364 0 150.192 0C153.02 0 155.312 2.29238 155.312 5.12017Z" fill="url(#paint15_linear_13_171)" fill-opacity="0.4"/>
<path d="M155.312 20.4807C155.312 23.3085 153.02 25.6009 150.192 25.6009C147.364 25.6009 145.072 23.3085 145.072 20.4807C145.072 17.6529 147.364 15.3605 150.192 15.3605C153.02 15.3605 155.312 17.6529 155.312 20.4807Z" fill="url(#paint16_linear_13_171)" fill-opacity="0.4"/>
<path d="M155.312 35.8412C155.312 38.669 153.02 40.9614 150.192 40.9614C147.364 40.9614 145.072 38.669 145.072 35.8412C145.072 33.0134 147.364 30.721 150.192 30.721C153.02 30.721 155.312 33.0134 155.312 35.8412Z" fill="url(#paint17_linear_13_171)" fill-opacity="0.4"/>
<path d="M155.312 51.2017C155.312 54.0295 153.02 56.3219 150.192 56.3219C147.364 56.3219 145.072 54.0295 145.072 51.2017C145.072 48.3739 147.364 46.0816 150.192 46.0816C153.02 46.0816 155.312 48.3739 155.312 51.2017Z" fill="url(#paint18_linear_13_171)" fill-opacity="0.4"/>
<path d="M155.312 66.5622C155.312 69.39 153.02 71.6824 150.192 71.6824C147.364 71.6824 145.072 69.39 145.072 66.5622C145.072 63.7344 147.364 61.4421 150.192 61.4421C153.02 61.4421 155.312 63.7344 155.312 66.5622Z" fill="url(#paint19_linear_13_171)" fill-opacity="0.4"/>
<path d="M140.805 5.12017C140.805 7.94796 138.512 10.2403 135.685 10.2403C132.857 10.2403 130.564 7.94796 130.564 5.12017C130.564 2.29238 132.857 0 135.685 0C138.512 0 140.805 2.29238 140.805 5.12017Z" fill="url(#paint20_linear_13_171)" fill-opacity="0.4"/>
<path d="M140.805 20.4807C140.805 23.3085 138.512 25.6009 135.685 25.6009C132.857 25.6009 130.564 23.3085 130.564 20.4807C130.564 17.6529 132.857 15.3605 135.685 15.3605C138.512 15.3605 140.805 17.6529 140.805 20.4807Z" fill="url(#paint21_linear_13_171)" fill-opacity="0.4"/>
<path d="M140.805 35.8412C140.805 38.669 138.512 40.9614 135.685 40.9614C132.857 40.9614 130.564 38.669 130.564 35.8412C130.564 33.0134 132.857 30.721 135.685 30.721C138.512 30.721 140.805 33.0134 140.805 35.8412Z" fill="url(#paint22_linear_13_171)" fill-opacity="0.4"/>
<path d="M140.805 51.2017C140.805 54.0295 138.512 56.3219 135.685 56.3219C132.857 56.3219 130.564 54.0295 130.564 51.2017C130.564 48.3739 132.857 46.0816 135.685 46.0816C138.512 46.0816 140.805 48.3739 140.805 51.2017Z" fill="url(#paint23_linear_13_171)" fill-opacity="0.4"/>
<path d="M140.805 66.5622C140.805 69.39 138.512 71.6824 135.685 71.6824C132.857 71.6824 130.564 69.39 130.564 66.5622C130.564 63.7344 132.857 61.4421 135.685 61.4421C138.512 61.4421 140.805 63.7344 140.805 66.5622Z" fill="url(#paint24_linear_13_171)" fill-opacity="0.4"/>
<path d="M126.298 5.12017C126.298 7.94796 124.005 10.2403 121.177 10.2403C118.35 10.2403 116.057 7.94796 116.057 5.12017C116.057 2.29238 118.35 0 121.177 0C124.005 0 126.298 2.29238 126.298 5.12017Z" fill="url(#paint25_linear_13_171)" fill-opacity="0.4"/>
<path d="M126.298 20.4807C126.298 23.3085 124.005 25.6009 121.177 25.6009C118.35 25.6009 116.057 23.3085 116.057 20.4807C116.057 17.6529 118.35 15.3605 121.177 15.3605C124.005 15.3605 126.298 17.6529 126.298 20.4807Z" fill="url(#paint26_linear_13_171)" fill-opacity="0.4"/>
<path d="M126.298 35.8412C126.298 38.669 124.005 40.9614 121.177 40.9614C118.35 40.9614 116.057 38.669 116.057 35.8412C116.057 33.0134 118.35 30.721 121.177 30.721C124.005 30.721 126.298 33.0134 126.298 35.8412Z" fill="url(#paint27_linear_13_171)" fill-opacity="0.4"/>
<path d="M126.298 51.2017C126.298 54.0295 124.005 56.3219 121.177 56.3219C118.35 56.3219 116.057 54.0295 116.057 51.2017C116.057 48.3739 118.35 46.0816 121.177 46.0816C124.005 46.0816 126.298 48.3739 126.298 51.2017Z" fill="url(#paint28_linear_13_171)" fill-opacity="0.4"/>
<path d="M126.298 66.5622C126.298 69.39 124.005 71.6824 121.177 71.6824C118.35 71.6824 116.057 69.39 116.057 66.5622C116.057 63.7344 118.35 61.4421 121.177 61.4421C124.005 61.4421 126.298 63.7344 126.298 66.5622Z" fill="url(#paint29_linear_13_171)" fill-opacity="0.4"/>
<path d="M111.79 5.12017C111.79 7.94796 109.498 10.2403 106.67 10.2403C103.842 10.2403 101.55 7.94796 101.55 5.12017C101.55 2.29238 103.842 0 106.67 0C109.498 0 111.79 2.29238 111.79 5.12017Z" fill="url(#paint30_linear_13_171)" fill-opacity="0.4"/>
<path d="M111.79 20.4807C111.79 23.3085 109.498 25.6009 106.67 25.6009C103.842 25.6009 101.55 23.3085 101.55 20.4807C101.55 17.6529 103.842 15.3605 106.67 15.3605C109.498 15.3605 111.79 17.6529 111.79 20.4807Z" fill="url(#paint31_linear_13_171)" fill-opacity="0.4"/>
<path d="M111.79 35.8412C111.79 38.669 109.498 40.9614 106.67 40.9614C103.842 40.9614 101.55 38.669 101.55 35.8412C101.55 33.0134 103.842 30.721 106.67 30.721C109.498 30.721 111.79 33.0134 111.79 35.8412Z" fill="url(#paint32_linear_13_171)" fill-opacity="0.4"/>
<path d="M111.79 51.2017C111.79 54.0295 109.498 56.3219 106.67 56.3219C103.842 56.3219 101.55 54.0295 101.55 51.2017C101.55 48.3739 103.842 46.0816 106.67 46.0816C109.498 46.0816 111.79 48.3739 111.79 51.2017Z" fill="url(#paint33_linear_13_171)" fill-opacity="0.4"/>
<path d="M111.79 66.5622C111.79 69.39 109.498 71.6824 106.67 71.6824C103.842 71.6824 101.55 69.39 101.55 66.5622C101.55 63.7344 103.842 61.4421 106.67 61.4421C109.498 61.4421 111.79 63.7344 111.79 66.5622Z" fill="url(#paint34_linear_13_171)" fill-opacity="0.4"/>
<path d="M97.2832 5.12017C97.2832 7.94796 94.9909 10.2403 92.1631 10.2403C89.3353 10.2403 87.0429 7.94796 87.0429 5.12017C87.0429 2.29238 89.3353 0 92.1631 0C94.9909 0 97.2832 2.29238 97.2832 5.12017Z" fill="url(#paint35_linear_13_171)" fill-opacity="0.4"/>
<path d="M97.2832 20.4807C97.2832 23.3085 94.9909 25.6009 92.1631 25.6009C89.3353 25.6009 87.0429 23.3085 87.0429 20.4807C87.0429 17.6529 89.3353 15.3605 92.1631 15.3605C94.9909 15.3605 97.2832 17.6529 97.2832 20.4807Z" fill="url(#paint36_linear_13_171)" fill-opacity="0.4"/>
<path d="M97.2832 35.8412C97.2832 38.669 94.9909 40.9614 92.1631 40.9614C89.3353 40.9614 87.0429 38.669 87.0429 35.8412C87.0429 33.0134 89.3353 30.721 92.1631 30.721C94.9909 30.721 97.2832 33.0134 97.2832 35.8412Z" fill="url(#paint37_linear_13_171)" fill-opacity="0.4"/>
<path d="M97.2832 51.2017C97.2832 54.0295 94.9909 56.3219 92.1631 56.3219C89.3353 56.3219 87.0429 54.0295 87.0429 51.2017C87.0429 48.3739 89.3353 46.0816 92.1631 46.0816C94.9909 46.0816 97.2832 48.3739 97.2832 51.2017Z" fill="url(#paint38_linear_13_171)" fill-opacity="0.4"/>
<path d="M97.2832 66.5622C97.2832 69.39 94.9909 71.6824 92.1631 71.6824C89.3353 71.6824 87.0429 69.39 87.0429 66.5622C87.0429 63.7344 89.3353 61.4421 92.1631 61.4421C94.9909 61.4421 97.2832 63.7344 97.2832 66.5622Z" fill="url(#paint39_linear_13_171)" fill-opacity="0.4"/>
<path d="M82.7761 5.12017C82.7761 7.94796 80.4837 10.2403 77.656 10.2403C74.8282 10.2403 72.5358 7.94796 72.5358 5.12017C72.5358 2.29238 74.8282 0 77.656 0C80.4837 0 82.7761 2.29238 82.7761 5.12017Z" fill="url(#paint40_linear_13_171)" fill-opacity="0.4"/>
<path d="M82.7761 20.4807C82.7761 23.3085 80.4837 25.6009 77.656 25.6009C74.8282 25.6009 72.5358 23.3085 72.5358 20.4807C72.5358 17.6529 74.8282 15.3605 77.656 15.3605C80.4837 15.3605 82.7761 17.6529 82.7761 20.4807Z" fill="url(#paint41_linear_13_171)" fill-opacity="0.4"/>
<path d="M82.7761 35.8412C82.7761 38.669 80.4837 40.9614 77.656 40.9614C74.8282 40.9614 72.5358 38.669 72.5358 35.8412C72.5358 33.0134 74.8282 30.721 77.656 30.721C80.4837 30.721 82.7761 33.0134 82.7761 35.8412Z" fill="url(#paint42_linear_13_171)" fill-opacity="0.4"/>
<path d="M82.7761 51.2017C82.7761 54.0295 80.4837 56.3219 77.656 56.3219C74.8282 56.3219 72.5358 54.0295 72.5358 51.2017C72.5358 48.3739 74.8282 46.0816 77.656 46.0816C80.4837 46.0816 82.7761 48.3739 82.7761 51.2017Z" fill="url(#paint43_linear_13_171)" fill-opacity="0.4"/>
<path d="M82.7761 66.5622C82.7761 69.39 80.4837 71.6824 77.656 71.6824C74.8282 71.6824 72.5358 69.39 72.5358 66.5622C72.5358 63.7344 74.8282 61.4421 77.656 61.4421C80.4837 61.4421 82.7761 63.7344 82.7761 66.5622Z" fill="url(#paint44_linear_13_171)" fill-opacity="0.4"/>
<path d="M68.269 5.12017C68.269 7.94796 65.9766 10.2403 63.1488 10.2403C60.321 10.2403 58.0286 7.94796 58.0286 5.12017C58.0286 2.29238 60.321 0 63.1488 0C65.9766 0 68.269 2.29238 68.269 5.12017Z" fill="url(#paint45_linear_13_171)" fill-opacity="0.4"/>
<path d="M68.269 20.4807C68.269 23.3085 65.9766 25.6009 63.1488 25.6009C60.321 25.6009 58.0286 23.3085 58.0286 20.4807C58.0286 17.6529 60.321 15.3605 63.1488 15.3605C65.9766 15.3605 68.269 17.6529 68.269 20.4807Z" fill="url(#paint46_linear_13_171)" fill-opacity="0.4"/>
<path d="M68.269 35.8412C68.269 38.669 65.9766 40.9614 63.1488 40.9614C60.321 40.9614 58.0286 38.669 58.0286 35.8412C58.0286 33.0134 60.321 30.721 63.1488 30.721C65.9766 30.721 68.269 33.0134 68.269 35.8412Z" fill="url(#paint47_linear_13_171)" fill-opacity="0.4"/>
<path d="M68.269 51.2017C68.269 54.0295 65.9766 56.3219 63.1488 56.3219C60.321 56.3219 58.0286 54.0295 58.0286 51.2017C58.0286 48.3739 60.321 46.0816 63.1488 46.0816C65.9766 46.0816 68.269 48.3739 68.269 51.2017Z" fill="url(#paint48_linear_13_171)" fill-opacity="0.4"/>
<path d="M68.269 66.5622C68.269 69.39 65.9766 71.6824 63.1488 71.6824C60.321 71.6824 58.0286 69.39 58.0286 66.5622C58.0286 63.7344 60.321 61.4421 63.1488 61.4421C65.9766 61.4421 68.269 63.7344 68.269 66.5622Z" fill="url(#paint49_linear_13_171)" fill-opacity="0.4"/>
<path d="M53.7618 5.12017C53.7618 7.94796 51.4695 10.2403 48.6417 10.2403C45.8139 10.2403 43.5215 7.94796 43.5215 5.12017C43.5215 2.29238 45.8139 0 48.6417 0C51.4695 0 53.7618 2.29238 53.7618 5.12017Z" fill="url(#paint50_linear_13_171)" fill-opacity="0.4"/>
<path d="M53.7618 20.4807C53.7618 23.3085 51.4695 25.6009 48.6417 25.6009C45.8139 25.6009 43.5215 23.3085 43.5215 20.4807C43.5215 17.6529 45.8139 15.3605 48.6417 15.3605C51.4695 15.3605 53.7618 17.6529 53.7618 20.4807Z" fill="url(#paint51_linear_13_171)" fill-opacity="0.4"/>
<path d="M53.7618 35.8412C53.7618 38.669 51.4695 40.9614 48.6417 40.9614C45.8139 40.9614 43.5215 38.669 43.5215 35.8412C43.5215 33.0134 45.8139 30.721 48.6417 30.721C51.4695 30.721 53.7618 33.0134 53.7618 35.8412Z" fill="url(#paint52_linear_13_171)" fill-opacity="0.4"/>
<path d="M53.7618 51.2017C53.7618 54.0295 51.4695 56.3219 48.6417 56.3219C45.8139 56.3219 43.5215 54.0295 43.5215 51.2017C43.5215 48.3739 45.8139 46.0816 48.6417 46.0816C51.4695 46.0816 53.7618 48.3739 53.7618 51.2017Z" fill="url(#paint53_linear_13_171)" fill-opacity="0.4"/>
<path d="M53.7618 66.5622C53.7618 69.39 51.4695 71.6824 48.6417 71.6824C45.8139 71.6824 43.5215 69.39 43.5215 66.5622C43.5215 63.7344 45.8139 61.4421 48.6417 61.4421C51.4695 61.4421 53.7618 63.7344 53.7618 66.5622Z" fill="url(#paint54_linear_13_171)" fill-opacity="0.4"/>
<path d="M39.2546 5.12017C39.2546 7.94796 36.9623 10.2403 34.1345 10.2403C31.3067 10.2403 29.0143 7.94796 29.0143 5.12017C29.0143 2.29238 31.3067 0 34.1345 0C36.9623 0 39.2546 2.29238 39.2546 5.12017Z" fill="url(#paint55_linear_13_171)" fill-opacity="0.4"/>
<path d="M39.2546 20.4807C39.2546 23.3085 36.9623 25.6009 34.1345 25.6009C31.3067 25.6009 29.0143 23.3085 29.0143 20.4807C29.0143 17.6529 31.3067 15.3605 34.1345 15.3605C36.9623 15.3605 39.2546 17.6529 39.2546 20.4807Z" fill="url(#paint56_linear_13_171)" fill-opacity="0.4"/>
<path d="M39.2546 35.8412C39.2546 38.669 36.9623 40.9614 34.1345 40.9614C31.3067 40.9614 29.0143 38.669 29.0143 35.8412C29.0143 33.0134 31.3067 30.721 34.1345 30.721C36.9623 30.721 39.2546 33.0134 39.2546 35.8412Z" fill="url(#paint57_linear_13_171)" fill-opacity="0.4"/>
<path d="M39.2546 51.2017C39.2546 54.0295 36.9623 56.3219 34.1345 56.3219C31.3067 56.3219 29.0143 54.0295 29.0143 51.2017C29.0143 48.3739 31.3067 46.0816 34.1345 46.0816C36.9623 46.0816 39.2546 48.3739 39.2546 51.2017Z" fill="url(#paint58_linear_13_171)" fill-opacity="0.4"/>
<path d="M39.2546 66.5622C39.2546 69.39 36.9623 71.6824 34.1345 71.6824C31.3067 71.6824 29.0143 69.39 29.0143 66.5622C29.0143 63.7344 31.3067 61.4421 34.1345 61.4421C36.9623 61.4421 39.2546 63.7344 39.2546 66.5622Z" fill="url(#paint59_linear_13_171)" fill-opacity="0.4"/>
<path d="M24.7475 5.12017C24.7475 7.94796 22.4551 10.2403 19.6273 10.2403C16.7995 10.2403 14.5071 7.94796 14.5071 5.12017C14.5071 2.29238 16.7995 0 19.6273 0C22.4551 0 24.7475 2.29238 24.7475 5.12017Z" fill="url(#paint60_linear_13_171)" fill-opacity="0.4"/>
<path d="M24.7475 20.4807C24.7475 23.3085 22.4551 25.6009 19.6273 25.6009C16.7995 25.6009 14.5071 23.3085 14.5071 20.4807C14.5071 17.6529 16.7995 15.3605 19.6273 15.3605C22.4551 15.3605 24.7475 17.6529 24.7475 20.4807Z" fill="url(#paint61_linear_13_171)" fill-opacity="0.4"/>
<path d="M24.7475 35.8412C24.7475 38.669 22.4551 40.9614 19.6273 40.9614C16.7995 40.9614 14.5071 38.669 14.5071 35.8412C14.5071 33.0134 16.7995 30.721 19.6273 30.721C22.4551 30.721 24.7475 33.0134 24.7475 35.8412Z" fill="url(#paint62_linear_13_171)" fill-opacity="0.4"/>
<path d="M24.7475 51.2017C24.7475 54.0295 22.4551 56.3219 19.6273 56.3219C16.7995 56.3219 14.5071 54.0295 14.5071 51.2017C14.5071 48.3739 16.7995 46.0816 19.6273 46.0816C22.4551 46.0816 24.7475 48.3739 24.7475 51.2017Z" fill="url(#paint63_linear_13_171)" fill-opacity="0.4"/>
<path d="M24.7475 66.5622C24.7475 69.39 22.4551 71.6824 19.6273 71.6824C16.7995 71.6824 14.5071 69.39 14.5071 66.5622C14.5071 63.7344 16.7995 61.4421 19.6273 61.4421C22.4551 61.4421 24.7475 63.7344 24.7475 66.5622Z" fill="url(#paint64_linear_13_171)" fill-opacity="0.4"/>
<path d="M10.2403 5.12017C10.2403 7.94796 7.94796 10.2403 5.12017 10.2403C2.29238 10.2403 0 7.94796 0 5.12017C0 2.29238 2.29238 0 5.12017 0C7.94796 0 10.2403 2.29238 10.2403 5.12017Z" fill="url(#paint65_linear_13_171)" fill-opacity="0.4"/>
<path d="M10.2403 20.4807C10.2403 23.3085 7.94796 25.6009 5.12017 25.6009C2.29238 25.6009 0 23.3085 0 20.4807C0 17.6529 2.29238 15.3605 5.12017 15.3605C7.94796 15.3605 10.2403 17.6529 10.2403 20.4807Z" fill="url(#paint66_linear_13_171)" fill-opacity="0.4"/>
<path d="M10.2403 35.8412C10.2403 38.669 7.94796 40.9614 5.12017 40.9614C2.29238 40.9614 0 38.669 0 35.8412C0 33.0134 2.29238 30.721 5.12017 30.721C7.94796 30.721 10.2403 33.0134 10.2403 35.8412Z" fill="url(#paint67_linear_13_171)" fill-opacity="0.4"/>
<path d="M10.2403 51.2017C10.2403 54.0295 7.94796 56.3219 5.12017 56.3219C2.29238 56.3219 0 54.0295 0 51.2017C0 48.3739 2.29238 46.0816 5.12017 46.0816C7.94796 46.0816 10.2403 48.3739 10.2403 51.2017Z" fill="url(#paint68_linear_13_171)" fill-opacity="0.4"/>
<path d="M10.2403 66.5622C10.2403 69.39 7.94796 71.6824 5.12017 71.6824C2.29238 71.6824 0 69.39 0 66.5622C0 63.7344 2.29238 61.4421 5.12017 61.4421C7.94796 61.4421 10.2403 63.7344 10.2403 66.5622Z" fill="url(#paint69_linear_13_171)" fill-opacity="0.4"/>
<defs>
<linearGradient id="paint0_linear_13_171" x1="99.4167" y1="0" x2="99.4167" y2="71.6824" gradientUnits="userSpaceOnUse">
<stop stop-color="#D9D9D9"/>
<stop offset="1" stop-color="#D9D9D9" stop-opacity="0"/>
</linearGradient>
<linearGradient id="paint1_linear_13_171" x1="99.4167" y1="0" x2="99.4167" y2="71.6824" gradientUnits="userSpaceOnUse">
<stop stop-color="#D9D9D9"/>
<stop offset="1" stop-color="#D9D9D9" stop-opacity="0"/>
</linearGradient>
<linearGradient id="paint2_linear_13_171" x1="99.4167" y1="0" x2="99.4167" y2="71.6824" gradientUnits="userSpaceOnUse">
<stop stop-color="#D9D9D9"/>
<stop offset="1" stop-color="#D9D9D9" stop-opacity="0"/>
</linearGradient>
<linearGradient id="paint3_linear_13_171" x1="99.4167" y1="0" x2="99.4167" y2="71.6824" gradientUnits="userSpaceOnUse">
<stop stop-color="#D9D9D9"/>
<stop offset="1" stop-color="#D9D9D9" stop-opacity="0"/>
</linearGradient>
<linearGradient id="paint4_linear_13_171" x1="99.4167" y1="0" x2="99.4167" y2="71.6824" gradientUnits="userSpaceOnUse">
<stop stop-color="#D9D9D9"/>
<stop offset="1" stop-color="#D9D9D9" stop-opacity="0"/>
</linearGradient>
<linearGradient id="paint5_linear_13_171" x1="99.4167" y1="0" x2="99.4167" y2="71.6824" gradientUnits="userSpaceOnUse">
<stop stop-color="#D9D9D9"/>
<stop offset="1" stop-color="#D9D9D9" stop-opacity="0"/>
</linearGradient>
<linearGradient id="paint6_linear_13_171" x1="99.4167" y1="0" x2="99.4167" y2="71.6824" gradientUnits="userSpaceOnUse">
<stop stop-color="#D9D9D9"/>
<stop offset="1" stop-color="#D9D9D9" stop-opacity="0"/>
</linearGradient>
<linearGradient id="paint7_linear_13_171" x1="99.4167" y1="0" x2="99.4167" y2="71.6824" gradientUnits="userSpaceOnUse">
<stop stop-color="#D9D9D9"/>
<stop offset="1" stop-color="#D9D9D9" stop-opacity="0"/>
</linearGradient>
<linearGradient id="paint8_linear_13_171" x1="99.4167" y1="0" x2="99.4167" y2="71.6824" gradientUnits="userSpaceOnUse">
<stop stop-color="#D9D9D9"/>
<stop offset="1" stop-color="#D9D9D9" stop-opacity="0"/>
</linearGradient>
<linearGradient id="paint9_linear_13_171" x1="99.4167" y1="0" x2="99.4167" y2="71.6824" gradientUnits="userSpaceOnUse">
<stop stop-color="#D9D9D9"/>
<stop offset="1" stop-color="#D9D9D9" stop-opacity="0"/>
</linearGradient>
<linearGradient id="paint10_linear_13_171" x1="99.4167" y1="0" x2="99.4167" y2="71.6824" gradientUnits="userSpaceOnUse">
<stop stop-color="#D9D9D9"/>
<stop offset="1" stop-color="#D9D9D9" stop-opacity="0"/>
</linearGradient>
<linearGradient id="paint11_linear_13_171" x1="99.4167" y1="0" x2="99.4167" y2="71.6824" gradientUnits="userSpaceOnUse">
<stop stop-color="#D9D9D9"/>
<stop offset="1" stop-color="#D9D9D9" stop-opacity="0"/>
</linearGradient>
<linearGradient id="paint12_linear_13_171" x1="99.4167" y1="0" x2="99.4167" y2="71.6824" gradientUnits="userSpaceOnUse">
<stop stop-color="#D9D9D9"/>
<stop offset="1" stop-color="#D9D9D9" stop-opacity="0"/>
</linearGradient>
<linearGradient id="paint13_linear_13_171" x1="99.4167" y1="0" x2="99.4167" y2="71.6824" gradientUnits="userSpaceOnUse">
<stop stop-color="#D9D9D9"/>
<stop offset="1" stop-color="#D9D9D9" stop-opacity="0"/>
</linearGradient>
<linearGradient id="paint14_linear_13_171" x1="99.4167" y1="0" x2="99.4167" y2="71.6824" gradientUnits="userSpaceOnUse">
<stop stop-color="#D9D9D9"/>
<stop offset="1" stop-color="#D9D9D9" stop-opacity="0"/>
</linearGradient>
<linearGradient id="paint15_linear_13_171" x1="99.4167" y1="0" x2="99.4167" y2="71.6824" gradientUnits="userSpaceOnUse">
<stop stop-color="#D9D9D9"/>
<stop offset="1" stop-color="#D9D9D9" stop-opacity="0"/>
</linearGradient>
<linearGradient id="paint16_linear_13_171" x1="99.4167" y1="0" x2="99.4167" y2="71.6824" gradientUnits="userSpaceOnUse">
<stop stop-color="#D9D9D9"/>
<stop offset="1" stop-color="#D9D9D9" stop-opacity="0"/>
</linearGradient>
<linearGradient id="paint17_linear_13_171" x1="99.4167" y1="0" x2="99.4167" y2="71.6824" gradientUnits="userSpaceOnUse">
<stop stop-color="#D9D9D9"/>
<stop offset="1" stop-color="#D9D9D9" stop-opacity="0"/>
</linearGradient>
<linearGradient id="paint18_linear_13_171" x1="99.4167" y1="0" x2="99.4167" y2="71.6824" gradientUnits="userSpaceOnUse">
<stop stop-color="#D9D9D9"/>
<stop offset="1" stop-color="#D9D9D9" stop-opacity="0"/>
</linearGradient>
<linearGradient id="paint19_linear_13_171" x1="99.4167" y1="0" x2="99.4167" y2="71.6824" gradientUnits="userSpaceOnUse">
<stop stop-color="#D9D9D9"/>
<stop offset="1" stop-color="#D9D9D9" stop-opacity="0"/>
</linearGradient>
<linearGradient id="paint20_linear_13_171" x1="99.4167" y1="0" x2="99.4167" y2="71.6824" gradientUnits="userSpaceOnUse">
<stop stop-color="#D9D9D9"/>
<stop offset="1" stop-color="#D9D9D9" stop-opacity="0"/>
</linearGradient>
<linearGradient id="paint21_linear_13_171" x1="99.4167" y1="0" x2="99.4167" y2="71.6824" gradientUnits="userSpaceOnUse">
<stop stop-color="#D9D9D9"/>
<stop offset="1" stop-color="#D9D9D9" stop-opacity="0"/>
</linearGradient>
<linearGradient id="paint22_linear_13_171" x1="99.4167" y1="0" x2="99.4167" y2="71.6824" gradientUnits="userSpaceOnUse">
<stop stop-color="#D9D9D9"/>
<stop offset="1" stop-color="#D9D9D9" stop-opacity="0"/>
</linearGradient>
<linearGradient id="paint23_linear_13_171" x1="99.4167" y1="0" x2="99.4167" y2="71.6824" gradientUnits="userSpaceOnUse">
<stop stop-color="#D9D9D9"/>
<stop offset="1" stop-color="#D9D9D9" stop-opacity="0"/>
</linearGradient>
<linearGradient id="paint24_linear_13_171" x1="99.4167" y1="0" x2="99.4167" y2="71.6824" gradientUnits="userSpaceOnUse">
<stop stop-color="#D9D9D9"/>
<stop offset="1" stop-color="#D9D9D9" stop-opacity="0"/>
</linearGradient>
<linearGradient id="paint25_linear_13_171" x1="99.4167" y1="0" x2="99.4167" y2="71.6824" gradientUnits="userSpaceOnUse">
<stop stop-color="#D9D9D9"/>
<stop offset="1" stop-color="#D9D9D9" stop-opacity="0"/>
</linearGradient>
<linearGradient id="paint26_linear_13_171" x1="99.4167" y1="0" x2="99.4167" y2="71.6824" gradientUnits="userSpaceOnUse">
<stop stop-color="#D9D9D9"/>
<stop offset="1" stop-color="#D9D9D9" stop-opacity="0"/>
</linearGradient>
<linearGradient id="paint27_linear_13_171" x1="99.4167" y1="0" x2="99.4167" y2="71.6824" gradientUnits="userSpaceOnUse">
<stop stop-color="#D9D9D9"/>
<stop offset="1" stop-color="#D9D9D9" stop-opacity="0"/>
</linearGradient>
<linearGradient id="paint28_linear_13_171" x1="99.4167" y1="0" x2="99.4167" y2="71.6824" gradientUnits="userSpaceOnUse">
<stop stop-color="#D9D9D9"/>
<stop offset="1" stop-color="#D9D9D9" stop-opacity="0"/>
</linearGradient>
<linearGradient id="paint29_linear_13_171" x1="99.4167" y1="0" x2="99.4167" y2="71.6824" gradientUnits="userSpaceOnUse">
<stop stop-color="#D9D9D9"/>
<stop offset="1" stop-color="#D9D9D9" stop-opacity="0"/>
</linearGradient>
<linearGradient id="paint30_linear_13_171" x1="99.4167" y1="0" x2="99.4167" y2="71.6824" gradientUnits="userSpaceOnUse">
<stop stop-color="#D9D9D9"/>
<stop offset="1" stop-color="#D9D9D9" stop-opacity="0"/>
</linearGradient>
<linearGradient id="paint31_linear_13_171" x1="99.4167" y1="0" x2="99.4167" y2="71.6824" gradientUnits="userSpaceOnUse">
<stop stop-color="#D9D9D9"/>
<stop offset="1" stop-color="#D9D9D9" stop-opacity="0"/>
</linearGradient>
<linearGradient id="paint32_linear_13_171" x1="99.4167" y1="0" x2="99.4167" y2="71.6824" gradientUnits="userSpaceOnUse">
<stop stop-color="#D9D9D9"/>
<stop offset="1" stop-color="#D9D9D9" stop-opacity="0"/>
</linearGradient>
<linearGradient id="paint33_linear_13_171" x1="99.4167" y1="0" x2="99.4167" y2="71.6824" gradientUnits="userSpaceOnUse">
<stop stop-color="#D9D9D9"/>
<stop offset="1" stop-color="#D9D9D9" stop-opacity="0"/>
</linearGradient>
<linearGradient id="paint34_linear_13_171" x1="99.4167" y1="0" x2="99.4167" y2="71.6824" gradientUnits="userSpaceOnUse">
<stop stop-color="#D9D9D9"/>
<stop offset="1" stop-color="#D9D9D9" stop-opacity="0"/>
</linearGradient>
<linearGradient id="paint35_linear_13_171" x1="99.4167" y1="0" x2="99.4167" y2="71.6824" gradientUnits="userSpaceOnUse">
<stop stop-color="#D9D9D9"/>
<stop offset="1" stop-color="#D9D9D9" stop-opacity="0"/>
</linearGradient>
<linearGradient id="paint36_linear_13_171" x1="99.4167" y1="0" x2="99.4167" y2="71.6824" gradientUnits="userSpaceOnUse">
<stop stop-color="#D9D9D9"/>
<stop offset="1" stop-color="#D9D9D9" stop-opacity="0"/>
</linearGradient>
<linearGradient id="paint37_linear_13_171" x1="99.4167" y1="0" x2="99.4167" y2="71.6824" gradientUnits="userSpaceOnUse">
<stop stop-color="#D9D9D9"/>
<stop offset="1" stop-color="#D9D9D9" stop-opacity="0"/>
</linearGradient>
<linearGradient id="paint38_linear_13_171" x1="99.4167" y1="0" x2="99.4167" y2="71.6824" gradientUnits="userSpaceOnUse">
<stop stop-color="#D9D9D9"/>
<stop offset="1" stop-color="#D9D9D9" stop-opacity="0"/>
</linearGradient>
<linearGradient id="paint39_linear_13_171" x1="99.4167" y1="0" x2="99.4167" y2="71.6824" gradientUnits="userSpaceOnUse">
<stop stop-color="#D9D9D9"/>
<stop offset="1" stop-color="#D9D9D9" stop-opacity="0"/>
</linearGradient>
<linearGradient id="paint40_linear_13_171" x1="99.4167" y1="0" x2="99.4167" y2="71.6824" gradientUnits="userSpaceOnUse">
<stop stop-color="#D9D9D9"/>
<stop offset="1" stop-color="#D9D9D9" stop-opacity="0"/>
</linearGradient>
<linearGradient id="paint41_linear_13_171" x1="99.4167" y1="0" x2="99.4167" y2="71.6824" gradientUnits="userSpaceOnUse">
<stop stop-color="#D9D9D9"/>
<stop offset="1" stop-color="#D9D9D9" stop-opacity="0"/>
</linearGradient>
<linearGradient id="paint42_linear_13_171" x1="99.4167" y1="0" x2="99.4167" y2="71.6824" gradientUnits="userSpaceOnUse">
<stop stop-color="#D9D9D9"/>
<stop offset="1" stop-color="#D9D9D9" stop-opacity="0"/>
</linearGradient>
<linearGradient id="paint43_linear_13_171" x1="99.4167" y1="0" x2="99.4167" y2="71.6824" gradientUnits="userSpaceOnUse">
<stop stop-color="#D9D9D9"/>
<stop offset="1" stop-color="#D9D9D9" stop-opacity="0"/>
</linearGradient>
<linearGradient id="paint44_linear_13_171" x1="99.4167" y1="0" x2="99.4167" y2="71.6824" gradientUnits="userSpaceOnUse">
<stop stop-color="#D9D9D9"/>
<stop offset="1" stop-color="#D9D9D9" stop-opacity="0"/>
</linearGradient>
<linearGradient id="paint45_linear_13_171" x1="99.4167" y1="0" x2="99.4167" y2="71.6824" gradientUnits="userSpaceOnUse">
<stop stop-color="#D9D9D9"/>
<stop offset="1" stop-color="#D9D9D9" stop-opacity="0"/>
</linearGradient>
<linearGradient id="paint46_linear_13_171" x1="99.4167" y1="0" x2="99.4167" y2="71.6824" gradientUnits="userSpaceOnUse">
<stop stop-color="#D9D9D9"/>
<stop offset="1" stop-color="#D9D9D9" stop-opacity="0"/>
</linearGradient>
<linearGradient id="paint47_linear_13_171" x1="99.4167" y1="0" x2="99.4167" y2="71.6824" gradientUnits="userSpaceOnUse">
<stop stop-color="#D9D9D9"/>
<stop offset="1" stop-color="#D9D9D9" stop-opacity="0"/>
</linearGradient>
<linearGradient id="paint48_linear_13_171" x1="99.4167" y1="0" x2="99.4167" y2="71.6824" gradientUnits="userSpaceOnUse">
<stop stop-color="#D9D9D9"/>
<stop offset="1" stop-color="#D9D9D9" stop-opacity="0"/>
</linearGradient>
<linearGradient id="paint49_linear_13_171" x1="99.4167" y1="0" x2="99.4167" y2="71.6824" gradientUnits="userSpaceOnUse">
<stop stop-color="#D9D9D9"/>
<stop offset="1" stop-color="#D9D9D9" stop-opacity="0"/>
</linearGradient>
<linearGradient id="paint50_linear_13_171" x1="99.4167" y1="0" x2="99.4167" y2="71.6824" gradientUnits="userSpaceOnUse">
<stop stop-color="#D9D9D9"/>
<stop offset="1" stop-color="#D9D9D9" stop-opacity="0"/>
</linearGradient>
<linearGradient id="paint51_linear_13_171" x1="99.4167" y1="0" x2="99.4167" y2="71.6824" gradientUnits="userSpaceOnUse">
<stop stop-color="#D9D9D9"/>
<stop offset="1" stop-color="#D9D9D9" stop-opacity="0"/>
</linearGradient>
<linearGradient id="paint52_linear_13_171" x1="99.4167" y1="0" x2="99.4167" y2="71.6824" gradientUnits="userSpaceOnUse">
<stop stop-color="#D9D9D9"/>
<stop offset="1" stop-color="#D9D9D9" stop-opacity="0"/>
</linearGradient>
<linearGradient id="paint53_linear_13_171" x1="99.4167" y1="0" x2="99.4167" y2="71.6824" gradientUnits="userSpaceOnUse">
<stop stop-color="#D9D9D9"/>
<stop offset="1" stop-color="#D9D9D9" stop-opacity="0"/>
</linearGradient>
<linearGradient id="paint54_linear_13_171" x1="99.4167" y1="0" x2="99.4167" y2="71.6824" gradientUnits="userSpaceOnUse">
<stop stop-color="#D9D9D9"/>
<stop offset="1" stop-color="#D9D9D9" stop-opacity="0"/>
</linearGradient>
<linearGradient id="paint55_linear_13_171" x1="99.4167" y1="0" x2="99.4167" y2="71.6824" gradientUnits="userSpaceOnUse">
<stop stop-color="#D9D9D9"/>
<stop offset="1" stop-color="#D9D9D9" stop-opacity="0"/>
</linearGradient>
<linearGradient id="paint56_linear_13_171" x1="99.4167" y1="0" x2="99.4167" y2="71.6824" gradientUnits="userSpaceOnUse">
<stop stop-color="#D9D9D9"/>
<stop offset="1" stop-color="#D9D9D9" stop-opacity="0"/>
</linearGradient>
<linearGradient id="paint57_linear_13_171" x1="99.4167" y1="0" x2="99.4167" y2="71.6824" gradientUnits="userSpaceOnUse">
<stop stop-color="#D9D9D9"/>
<stop offset="1" stop-color="#D9D9D9" stop-opacity="0"/>
</linearGradient>
<linearGradient id="paint58_linear_13_171" x1="99.4167" y1="0" x2="99.4167" y2="71.6824" gradientUnits="userSpaceOnUse">
<stop stop-color="#D9D9D9"/>
<stop offset="1" stop-color="#D9D9D9" stop-opacity="0"/>
</linearGradient>
<linearGradient id="paint59_linear_13_171" x1="99.4167" y1="0" x2="99.4167" y2="71.6824" gradientUnits="userSpaceOnUse">
<stop stop-color="#D9D9D9"/>
<stop offset="1" stop-color="#D9D9D9" stop-opacity="0"/>
</linearGradient>
<linearGradient id="paint60_linear_13_171" x1="99.4167" y1="0" x2="99.4167" y2="71.6824" gradientUnits="userSpaceOnUse">
<stop stop-color="#D9D9D9"/>
<stop offset="1" stop-color="#D9D9D9" stop-opacity="0"/>
</linearGradient>
<linearGradient id="paint61_linear_13_171" x1="99.4167" y1="0" x2="99.4167" y2="71.6824" gradientUnits="userSpaceOnUse">
<stop stop-color="#D9D9D9"/>
<stop offset="1" stop-color="#D9D9D9" stop-opacity="0"/>
</linearGradient>
<linearGradient id="paint62_linear_13_171" x1="99.4167" y1="0" x2="99.4167" y2="71.6824" gradientUnits="userSpaceOnUse">
<stop stop-color="#D9D9D9"/>
<stop offset="1" stop-color="#D9D9D9" stop-opacity="0"/>
</linearGradient>
<linearGradient id="paint63_linear_13_171" x1="99.4167" y1="0" x2="99.4167" y2="71.6824" gradientUnits="userSpaceOnUse">
<stop stop-color="#D9D9D9"/>
<stop offset="1" stop-color="#D9D9D9" stop-opacity="0"/>
</linearGradient>
<linearGradient id="paint64_linear_13_171" x1="99.4167" y1="0" x2="99.4167" y2="71.6824" gradientUnits="userSpaceOnUse">
<stop stop-color="#D9D9D9"/>
<stop offset="1" stop-color="#D9D9D9" stop-opacity="0"/>
</linearGradient>
<linearGradient id="paint65_linear_13_171" x1="99.4167" y1="0" x2="99.4167" y2="71.6824" gradientUnits="userSpaceOnUse">
<stop stop-color="#D9D9D9"/>
<stop offset="1" stop-color="#D9D9D9" stop-opacity="0"/>
</linearGradient>
<linearGradient id="paint66_linear_13_171" x1="99.4167" y1="0" x2="99.4167" y2="71.6824" gradientUnits="userSpaceOnUse">
<stop stop-color="#D9D9D9"/>
<stop offset="1" stop-color="#D9D9D9" stop-opacity="0"/>
</linearGradient>
<linearGradient id="paint67_linear_13_171" x1="99.4167" y1="0" x2="99.4167" y2="71.6824" gradientUnits="userSpaceOnUse">
<stop stop-color="#D9D9D9"/>
<stop offset="1" stop-color="#D9D9D9" stop-opacity="0"/>
</linearGradient>
<linearGradient id="paint68_linear_13_171" x1="99.4167" y1="0" x2="99.4167" y2="71.6824" gradientUnits="userSpaceOnUse">
<stop stop-color="#D9D9D9"/>
<stop offset="1" stop-color="#D9D9D9" stop-opacity="0"/>
</linearGradient>
<linearGradient id="paint69_linear_13_171" x1="99.4167" y1="0" x2="99.4167" y2="71.6824" gradientUnits="userSpaceOnUse">
<stop stop-color="#D9D9D9"/>
<stop offset="1" stop-color="#D9D9D9" stop-opacity="0"/>
</linearGradient>
</defs>
</svg>
