<?xml version="1.0" encoding="UTF-8"?>
<svg id="Layer_1" data-name="Layer 1" xmlns="http://www.w3.org/2000/svg" xmlns:xlink="http://www.w3.org/1999/xlink" viewBox="0 0 864.17 343.27">
  <defs>
    <style>
      .cls-1 {
        fill: url(#linear-gradient);
      }
    </style>
    <linearGradient id="linear-gradient" x1="0" y1="171.64" x2="864.17" y2="171.64" gradientUnits="userSpaceOnUse">
      <stop offset="0" stop-color="#cfff93" stop-opacity=".9"/>
      <stop offset="1" stop-color="#cfff93" stop-opacity=".3"/>
    </linearGradient>
  </defs>
  <path class="cls-1" d="m73.01,4.72c-22.16,0-36.33,10.17-36.33,31.24s14.17,31.24,36.33,31.24,37.42-9.81,37.42-31.24-15.26-31.24-37.42-31.24Zm307.31,74.83c-36.33,0-57.03,18.16-67.2,40.68-7.27-24.34-22.52-40.68-53.03-40.68-34.51,0-52.31,19.98-61.03,42.86v-39.23h-62.12v183.8h62.12v-61.75c0-45.77,5.45-70.83,37.42-70.83,19.25,0,24.7,9.08,24.7,43.59v87.91l-.36,1.09h62.48v-61.75c0-45.77,5.45-70.83,37.41-70.83,19.25,0,24.7,9.08,24.7,43.59v89h62.12v-92.63c0-53.4-13.44-94.81-67.2-94.81Zm-305.86,3.63H0v54.85h44.68v105.71c0,15.98-1.09,22.16-7.63,35.6l-32.33,63.93h67.93l27.24-57.03c6.17-13.44,7.26-19.25,7.26-34.87V115.15c0-21.43-11.99-31.97-32.69-31.97ZM802.05,0v117.69c-10.17-18.89-29.79-38.14-69.74-38.14-59.57,0-84.64,43.59-84.64,95.17s25.06,95.9,84.64,95.9c38.14,0,58.48-17.8,69.74-38.5v34.87h62.12V0h-62.12Zm-45.77,215.77c-29.42,0-46.5-13.44-46.5-41.05s17.07-40.32,46.5-40.32,45.41,13.8,45.41,40.32-17.07,41.05-45.41,41.05ZM584.83,30.51c0-19.98-11.26-30.51-31.24-30.51h-75.56v54.49h44.32v157.65h-50.86v54.85h164.19v-54.85h-50.85V30.51Z"/>
</svg>