<svg width="32" height="32" viewBox="0 0 32 32" fill="none" xmlns="http://www.w3.org/2000/svg">
<g clip-path="url(#clip0_146_6247)">
<path d="M26.4098 13.8812C27.6495 14.7411 28.1115 16.477 27.2983 17.7291C26.4852 18.9813 24.8478 19.3239 23.5957 18.5107L20.9854 16.8156L20.9854 28.3935C20.9854 29.8499 19.8048 31.0305 18.3484 31.0305C16.8921 31.0305 15.7114 29.7492 15.7114 27.7336L15.7114 23.0614C15.2937 23.8534 14.4621 24.3932 13.5044 24.3932C12.4138 24.3932 11.4867 23.693 11.1481 22.7177C10.653 23.2295 9.95901 23.5477 9.1907 23.5477C8.04338 23.5477 7.0618 22.8381 6.66086 21.8338C6.18493 22.2411 5.56685 22.4871 4.89131 22.4871C3.38746 22.4871 2.16835 21.268 2.16835 19.7642C2.16835 17.0757 2.34375 14.2187 2.625 11.6987C2.80499 10.0859 3.01855 7.8208 4.6801 5.67602C6.34948 3.45728 9.02904 2.01843 12.0498 2.01843C15.1988 2.01843 17.9768 3.58174 19.6267 5.96293C20.23 6.79585 20.5185 7.4694 20.8051 8.13862C21.0247 8.65149 21.2433 9.16181 21.6016 9.73939C22.1681 10.6524 23.0011 11.3299 23.4665 11.7084C23.5015 11.7369 23.5344 11.7637 23.565 11.7888L23.5628 11.7892L26.4098 13.8812Z" fill="url(#paint0_radial_146_6247)"/>
<path d="M26.4098 13.8812C27.6495 14.7411 28.1115 16.477 27.2983 17.7291C26.4852 18.9813 24.8478 19.3239 23.5957 18.5107L20.9854 16.8156L20.9854 28.3935C20.9854 29.8499 19.8048 31.0305 18.3484 31.0305C16.8921 31.0305 15.7114 29.7492 15.7114 27.7336L15.7114 23.0614C15.2937 23.8534 14.4621 24.3932 13.5044 24.3932C12.4138 24.3932 11.4867 23.693 11.1481 22.7177C10.653 23.2295 9.95901 23.5477 9.1907 23.5477C8.04338 23.5477 7.0618 22.8381 6.66086 21.8338C6.18493 22.2411 5.56685 22.4871 4.89131 22.4871C3.38746 22.4871 2.16835 21.268 2.16835 19.7642C2.16835 17.0757 2.34375 14.2187 2.625 11.6987C2.80499 10.0859 3.01855 7.8208 4.6801 5.67602C6.34948 3.45728 9.02904 2.01843 12.0498 2.01843C15.1988 2.01843 17.9768 3.58174 19.6267 5.96293C20.23 6.79585 20.5185 7.4694 20.8051 8.13862C21.0247 8.65149 21.2433 9.16181 21.6016 9.73939C22.1681 10.6524 23.0011 11.3299 23.4665 11.7084C23.5015 11.7369 23.5344 11.7637 23.565 11.7888L23.5628 11.7892L26.4098 13.8812Z" fill="url(#paint1_radial_146_6247)"/>
<path d="M26.4098 13.8812C27.6495 14.7411 28.1115 16.477 27.2983 17.7291C26.4852 18.9813 24.8478 19.3239 23.5957 18.5107L20.9854 16.8156L20.9854 28.3935C20.9854 29.8499 19.8048 31.0305 18.3484 31.0305C16.8921 31.0305 15.7114 29.7492 15.7114 27.7336L15.7114 23.0614C15.2937 23.8534 14.4621 24.3932 13.5044 24.3932C12.4138 24.3932 11.4867 23.693 11.1481 22.7177C10.653 23.2295 9.95901 23.5477 9.1907 23.5477C8.04338 23.5477 7.0618 22.8381 6.66086 21.8338C6.18493 22.2411 5.56685 22.4871 4.89131 22.4871C3.38746 22.4871 2.16835 21.268 2.16835 19.7642C2.16835 17.0757 2.34375 14.2187 2.625 11.6987C2.80499 10.0859 3.01855 7.8208 4.6801 5.67602C6.34948 3.45728 9.02904 2.01843 12.0498 2.01843C15.1988 2.01843 17.9768 3.58174 19.6267 5.96293C20.23 6.79585 20.5185 7.4694 20.8051 8.13862C21.0247 8.65149 21.2433 9.16181 21.6016 9.73939C22.1681 10.6524 23.0011 11.3299 23.4665 11.7084C23.5015 11.7369 23.5344 11.7637 23.565 11.7888L23.5628 11.7892L26.4098 13.8812Z" fill="url(#paint2_radial_146_6247)"/>
<path d="M26.4098 13.8812C27.6495 14.7411 28.1115 16.477 27.2983 17.7291C26.4852 18.9813 24.8478 19.3239 23.5957 18.5107L20.9854 16.8156L20.9854 28.3935C20.9854 29.8499 19.8048 31.0305 18.3484 31.0305C16.8921 31.0305 15.7114 29.7492 15.7114 27.7336L15.7114 23.0614C15.2937 23.8534 14.4621 24.3932 13.5044 24.3932C12.4138 24.3932 11.4867 23.693 11.1481 22.7177C10.653 23.2295 9.95901 23.5477 9.1907 23.5477C8.04338 23.5477 7.0618 22.8381 6.66086 21.8338C6.18493 22.2411 5.56685 22.4871 4.89131 22.4871C3.38746 22.4871 2.16835 21.268 2.16835 19.7642C2.16835 17.0757 2.34375 14.2187 2.625 11.6987C2.80499 10.0859 3.01855 7.8208 4.6801 5.67602C6.34948 3.45728 9.02904 2.01843 12.0498 2.01843C15.1988 2.01843 17.9768 3.58174 19.6267 5.96293C20.23 6.79585 20.5185 7.4694 20.8051 8.13862C21.0247 8.65149 21.2433 9.16181 21.6016 9.73939C22.1681 10.6524 23.0011 11.3299 23.4665 11.7084C23.5015 11.7369 23.5344 11.7637 23.565 11.7888L23.5628 11.7892L26.4098 13.8812Z" fill="url(#paint3_radial_146_6247)"/>
<path d="M26.4098 13.8812C27.6495 14.7411 28.1115 16.477 27.2983 17.7291C26.4852 18.9813 24.8478 19.3239 23.5957 18.5107L20.9854 16.8156L20.9854 28.3935C20.9854 29.8499 19.8048 31.0305 18.3484 31.0305C16.8921 31.0305 15.7114 29.7492 15.7114 27.7336L15.7114 23.0614C15.2937 23.8534 14.4621 24.3932 13.5044 24.3932C12.4138 24.3932 11.4867 23.693 11.1481 22.7177C10.653 23.2295 9.95901 23.5477 9.1907 23.5477C8.04338 23.5477 7.0618 22.8381 6.66086 21.8338C6.18493 22.2411 5.56685 22.4871 4.89131 22.4871C3.38746 22.4871 2.16835 21.268 2.16835 19.7642C2.16835 17.0757 2.34375 14.2187 2.625 11.6987C2.80499 10.0859 3.01855 7.8208 4.6801 5.67602C6.34948 3.45728 9.02904 2.01843 12.0498 2.01843C15.1988 2.01843 17.9768 3.58174 19.6267 5.96293C20.23 6.79585 20.5185 7.4694 20.8051 8.13862C21.0247 8.65149 21.2433 9.16181 21.6016 9.73939C22.1681 10.6524 23.0011 11.3299 23.4665 11.7084C23.5015 11.7369 23.5344 11.7637 23.565 11.7888L23.5628 11.7892L26.4098 13.8812Z" fill="url(#paint4_radial_146_6247)"/>
<path d="M26.4098 13.8812C27.6495 14.7411 28.1115 16.477 27.2983 17.7291C26.4852 18.9813 24.8478 19.3239 23.5957 18.5107L20.9854 16.8156L20.9854 28.3935C20.9854 29.8499 19.8048 31.0305 18.3484 31.0305C16.8921 31.0305 15.7114 29.7492 15.7114 27.7336L15.7114 23.0614C15.2937 23.8534 14.4621 24.3932 13.5044 24.3932C12.4138 24.3932 11.4867 23.693 11.1481 22.7177C10.653 23.2295 9.95901 23.5477 9.1907 23.5477C8.04338 23.5477 7.0618 22.8381 6.66086 21.8338C6.18493 22.2411 5.56685 22.4871 4.89131 22.4871C3.38746 22.4871 2.16835 21.268 2.16835 19.7642C2.16835 17.0757 2.34375 14.2187 2.625 11.6987C2.80499 10.0859 3.01855 7.8208 4.6801 5.67602C6.34948 3.45728 9.02904 2.01843 12.0498 2.01843C15.1988 2.01843 17.9768 3.58174 19.6267 5.96293C20.23 6.79585 20.5185 7.4694 20.8051 8.13862C21.0247 8.65149 21.2433 9.16181 21.6016 9.73939C22.1681 10.6524 23.0011 11.3299 23.4665 11.7084C23.5015 11.7369 23.5344 11.7637 23.565 11.7888L23.5628 11.7892L26.4098 13.8812Z" fill="url(#paint5_radial_146_6247)"/>
<path d="M26.4098 13.8812C27.6495 14.7411 28.1115 16.477 27.2983 17.7291C26.4852 18.9813 24.8478 19.3239 23.5957 18.5107L20.9854 16.8156L20.9854 28.3935C20.9854 29.8499 19.8048 31.0305 18.3484 31.0305C16.8921 31.0305 15.7114 29.7492 15.7114 27.7336L15.7114 23.0614C15.2937 23.8534 14.4621 24.3932 13.5044 24.3932C12.4138 24.3932 11.4867 23.693 11.1481 22.7177C10.653 23.2295 9.95901 23.5477 9.1907 23.5477C8.04338 23.5477 7.0618 22.8381 6.66086 21.8338C6.18493 22.2411 5.56685 22.4871 4.89131 22.4871C3.38746 22.4871 2.16835 21.268 2.16835 19.7642C2.16835 17.0757 2.34375 14.2187 2.625 11.6987C2.80499 10.0859 3.01855 7.8208 4.6801 5.67602C6.34948 3.45728 9.02904 2.01843 12.0498 2.01843C15.1988 2.01843 17.9768 3.58174 19.6267 5.96293C20.23 6.79585 20.5185 7.4694 20.8051 8.13862C21.0247 8.65149 21.2433 9.16181 21.6016 9.73939C22.1681 10.6524 23.0011 11.3299 23.4665 11.7084C23.5015 11.7369 23.5344 11.7637 23.565 11.7888L23.5628 11.7892L26.4098 13.8812Z" fill="url(#paint6_radial_146_6247)"/>
<path d="M26.4098 13.8812C27.6495 14.7411 28.1115 16.477 27.2983 17.7291C26.4852 18.9813 24.8478 19.3239 23.5957 18.5107L20.9854 16.8156L20.9854 28.3935C20.9854 29.8499 19.8048 31.0305 18.3484 31.0305C16.8921 31.0305 15.7114 29.7492 15.7114 27.7336L15.7114 23.0614C15.2937 23.8534 14.4621 24.3932 13.5044 24.3932C12.4138 24.3932 11.4867 23.693 11.1481 22.7177C10.653 23.2295 9.95901 23.5477 9.1907 23.5477C8.04338 23.5477 7.0618 22.8381 6.66086 21.8338C6.18493 22.2411 5.56685 22.4871 4.89131 22.4871C3.38746 22.4871 2.16835 21.268 2.16835 19.7642C2.16835 17.0757 2.34375 14.2187 2.625 11.6987C2.80499 10.0859 3.01855 7.8208 4.6801 5.67602C6.34948 3.45728 9.02904 2.01843 12.0498 2.01843C15.1988 2.01843 17.9768 3.58174 19.6267 5.96293C20.23 6.79585 20.5185 7.4694 20.8051 8.13862C21.0247 8.65149 21.2433 9.16181 21.6016 9.73939C22.1681 10.6524 23.0011 11.3299 23.4665 11.7084C23.5015 11.7369 23.5344 11.7637 23.565 11.7888L23.5628 11.7892L26.4098 13.8812Z" fill="url(#paint7_radial_146_6247)"/>
<path d="M26.4098 13.8812C27.6495 14.7411 28.1115 16.477 27.2983 17.7291C26.4852 18.9813 24.8478 19.3239 23.5957 18.5107L20.9854 16.8156L20.9854 28.3935C20.9854 29.8499 19.8048 31.0305 18.3484 31.0305C16.8921 31.0305 15.7114 29.7492 15.7114 27.7336L15.7114 23.0614C15.2937 23.8534 14.4621 24.3932 13.5044 24.3932C12.4138 24.3932 11.4867 23.693 11.1481 22.7177C10.653 23.2295 9.95901 23.5477 9.1907 23.5477C8.04338 23.5477 7.0618 22.8381 6.66086 21.8338C6.18493 22.2411 5.56685 22.4871 4.89131 22.4871C3.38746 22.4871 2.16835 21.268 2.16835 19.7642C2.16835 17.0757 2.34375 14.2187 2.625 11.6987C2.80499 10.0859 3.01855 7.8208 4.6801 5.67602C6.34948 3.45728 9.02904 2.01843 12.0498 2.01843C15.1988 2.01843 17.9768 3.58174 19.6267 5.96293C20.23 6.79585 20.5185 7.4694 20.8051 8.13862C21.0247 8.65149 21.2433 9.16181 21.6016 9.73939C22.1681 10.6524 23.0011 11.3299 23.4665 11.7084C23.5015 11.7369 23.5344 11.7637 23.565 11.7888L23.5628 11.7892L26.4098 13.8812Z" fill="url(#paint8_radial_146_6247)"/>
<path d="M26.4098 13.8812C27.6495 14.7411 28.1115 16.477 27.2983 17.7291C26.4852 18.9813 24.8478 19.3239 23.5957 18.5107L20.9854 16.8156L20.9854 28.3935C20.9854 29.8499 19.8048 31.0305 18.3484 31.0305C16.8921 31.0305 15.7114 29.7492 15.7114 27.7336L15.7114 23.0614C15.2937 23.8534 14.4621 24.3932 13.5044 24.3932C12.4138 24.3932 11.4867 23.693 11.1481 22.7177C10.653 23.2295 9.95901 23.5477 9.1907 23.5477C8.04338 23.5477 7.0618 22.8381 6.66086 21.8338C6.18493 22.2411 5.56685 22.4871 4.89131 22.4871C3.38746 22.4871 2.16835 21.268 2.16835 19.7642C2.16835 17.0757 2.34375 14.2187 2.625 11.6987C2.80499 10.0859 3.01855 7.8208 4.6801 5.67602C6.34948 3.45728 9.02904 2.01843 12.0498 2.01843C15.1988 2.01843 17.9768 3.58174 19.6267 5.96293C20.23 6.79585 20.5185 7.4694 20.8051 8.13862C21.0247 8.65149 21.2433 9.16181 21.6016 9.73939C22.1681 10.6524 23.0011 11.3299 23.4665 11.7084C23.5015 11.7369 23.5344 11.7637 23.565 11.7888L23.5628 11.7892L26.4098 13.8812Z" fill="url(#paint9_radial_146_6247)"/>
<path d="M26.4098 13.8812C27.6495 14.7411 28.1115 16.477 27.2983 17.7291C26.4852 18.9813 24.8478 19.3239 23.5957 18.5107L20.9854 16.8156L20.9854 28.3935C20.9854 29.8499 19.8048 31.0305 18.3484 31.0305C16.8921 31.0305 15.7114 29.7492 15.7114 27.7336L15.7114 23.0614C15.2937 23.8534 14.4621 24.3932 13.5044 24.3932C12.4138 24.3932 11.4867 23.693 11.1481 22.7177C10.653 23.2295 9.95901 23.5477 9.1907 23.5477C8.04338 23.5477 7.0618 22.8381 6.66086 21.8338C6.18493 22.2411 5.56685 22.4871 4.89131 22.4871C3.38746 22.4871 2.16835 21.268 2.16835 19.7642C2.16835 17.0757 2.34375 14.2187 2.625 11.6987C2.80499 10.0859 3.01855 7.8208 4.6801 5.67602C6.34948 3.45728 9.02904 2.01843 12.0498 2.01843C15.1988 2.01843 17.9768 3.58174 19.6267 5.96293C20.23 6.79585 20.5185 7.4694 20.8051 8.13862C21.0247 8.65149 21.2433 9.16181 21.6016 9.73939C22.1681 10.6524 23.0011 11.3299 23.4665 11.7084C23.5015 11.7369 23.5344 11.7637 23.565 11.7888L23.5628 11.7892L26.4098 13.8812Z" fill="url(#paint10_radial_146_6247)"/>
<path d="M26.4098 13.8812C27.6495 14.7411 28.1115 16.477 27.2983 17.7291C26.4852 18.9813 24.8478 19.3239 23.5957 18.5107L20.9854 16.8156L20.9854 28.3935C20.9854 29.8499 19.8048 31.0305 18.3484 31.0305C16.8921 31.0305 15.7114 29.7492 15.7114 27.7336L15.7114 23.0614C15.2937 23.8534 14.4621 24.3932 13.5044 24.3932C12.4138 24.3932 11.4867 23.693 11.1481 22.7177C10.653 23.2295 9.95901 23.5477 9.1907 23.5477C8.04338 23.5477 7.0618 22.8381 6.66086 21.8338C6.18493 22.2411 5.56685 22.4871 4.89131 22.4871C3.38746 22.4871 2.16835 21.268 2.16835 19.7642C2.16835 17.0757 2.34375 14.2187 2.625 11.6987C2.80499 10.0859 3.01855 7.8208 4.6801 5.67602C6.34948 3.45728 9.02904 2.01843 12.0498 2.01843C15.1988 2.01843 17.9768 3.58174 19.6267 5.96293C20.23 6.79585 20.5185 7.4694 20.8051 8.13862C21.0247 8.65149 21.2433 9.16181 21.6016 9.73939C22.1681 10.6524 23.0011 11.3299 23.4665 11.7084C23.5015 11.7369 23.5344 11.7637 23.565 11.7888L23.5628 11.7892L26.4098 13.8812Z" fill="url(#paint11_radial_146_6247)"/>
<path d="M26.4098 13.8812C27.6495 14.7411 28.1115 16.477 27.2983 17.7291C26.4852 18.9813 24.8478 19.3239 23.5957 18.5107L20.9854 16.8156L20.9854 28.3935C20.9854 29.8499 19.8048 31.0305 18.3484 31.0305C16.8921 31.0305 15.7114 29.7492 15.7114 27.7336L15.7114 23.0614C15.2937 23.8534 14.4621 24.3932 13.5044 24.3932C12.4138 24.3932 11.4867 23.693 11.1481 22.7177C10.653 23.2295 9.95901 23.5477 9.1907 23.5477C8.04338 23.5477 7.0618 22.8381 6.66086 21.8338C6.18493 22.2411 5.56685 22.4871 4.89131 22.4871C3.38746 22.4871 2.16835 21.268 2.16835 19.7642C2.16835 17.0757 2.34375 14.2187 2.625 11.6987C2.80499 10.0859 3.01855 7.8208 4.6801 5.67602C6.34948 3.45728 9.02904 2.01843 12.0498 2.01843C15.1988 2.01843 17.9768 3.58174 19.6267 5.96293C20.23 6.79585 20.5185 7.4694 20.8051 8.13862C21.0247 8.65149 21.2433 9.16181 21.6016 9.73939C22.1681 10.6524 23.0011 11.3299 23.4665 11.7084C23.5015 11.7369 23.5344 11.7637 23.565 11.7888L23.5628 11.7892L26.4098 13.8812Z" fill="url(#paint12_radial_146_6247)"/>
<path d="M26.4098 13.8812C27.6495 14.7411 28.1115 16.477 27.2983 17.7291C26.4852 18.9813 24.8478 19.3239 23.5957 18.5107L20.9854 16.8156L20.9854 28.3935C20.9854 29.8499 19.8048 31.0305 18.3484 31.0305C16.8921 31.0305 15.7114 29.7492 15.7114 27.7336L15.7114 23.0614C15.2937 23.8534 14.4621 24.3932 13.5044 24.3932C12.4138 24.3932 11.4867 23.693 11.1481 22.7177C10.653 23.2295 9.95901 23.5477 9.1907 23.5477C8.04338 23.5477 7.0618 22.8381 6.66086 21.8338C6.18493 22.2411 5.56685 22.4871 4.89131 22.4871C3.38746 22.4871 2.16835 21.268 2.16835 19.7642C2.16835 17.0757 2.34375 14.2187 2.625 11.6987C2.80499 10.0859 3.01855 7.8208 4.6801 5.67602C6.34948 3.45728 9.02904 2.01843 12.0498 2.01843C15.1988 2.01843 17.9768 3.58174 19.6267 5.96293C20.23 6.79585 20.5185 7.4694 20.8051 8.13862C21.0247 8.65149 21.2433 9.16181 21.6016 9.73939C22.1681 10.6524 23.0011 11.3299 23.4665 11.7084C23.5015 11.7369 23.5344 11.7637 23.565 11.7888L23.5628 11.7892L26.4098 13.8812Z" fill="url(#paint13_radial_146_6247)"/>
<path d="M26.4098 13.8812C27.6495 14.7411 28.1115 16.477 27.2983 17.7291C26.4852 18.9813 24.8478 19.3239 23.5957 18.5107L20.9854 16.8156L20.9854 28.3935C20.9854 29.8499 19.8048 31.0305 18.3484 31.0305C16.8921 31.0305 15.7114 29.7492 15.7114 27.7336L15.7114 23.0614C15.2937 23.8534 14.4621 24.3932 13.5044 24.3932C12.4138 24.3932 11.4867 23.693 11.1481 22.7177C10.653 23.2295 9.95901 23.5477 9.1907 23.5477C8.04338 23.5477 7.0618 22.8381 6.66086 21.8338C6.18493 22.2411 5.56685 22.4871 4.89131 22.4871C3.38746 22.4871 2.16835 21.268 2.16835 19.7642C2.16835 17.0757 2.34375 14.2187 2.625 11.6987C2.80499 10.0859 3.01855 7.8208 4.6801 5.67602C6.34948 3.45728 9.02904 2.01843 12.0498 2.01843C15.1988 2.01843 17.9768 3.58174 19.6267 5.96293C20.23 6.79585 20.5185 7.4694 20.8051 8.13862C21.0247 8.65149 21.2433 9.16181 21.6016 9.73939C22.1681 10.6524 23.0011 11.3299 23.4665 11.7084C23.5015 11.7369 23.5344 11.7637 23.565 11.7888L23.5628 11.7892L26.4098 13.8812Z" fill="url(#paint14_radial_146_6247)"/>
<path d="M26.4098 13.8812C27.6495 14.7411 28.1115 16.477 27.2983 17.7291C26.4852 18.9813 24.8478 19.3239 23.5957 18.5107L20.9854 16.8156L20.9854 28.3935C20.9854 29.8499 19.8048 31.0305 18.3484 31.0305C16.8921 31.0305 15.7114 29.7492 15.7114 27.7336L15.7114 23.0614C15.2937 23.8534 14.4621 24.3932 13.5044 24.3932C12.4138 24.3932 11.4867 23.693 11.1481 22.7177C10.653 23.2295 9.95901 23.5477 9.1907 23.5477C8.04338 23.5477 7.0618 22.8381 6.66086 21.8338C6.18493 22.2411 5.56685 22.4871 4.89131 22.4871C3.38746 22.4871 2.16835 21.268 2.16835 19.7642C2.16835 17.0757 2.34375 14.2187 2.625 11.6987C2.80499 10.0859 3.01855 7.8208 4.6801 5.67602C6.34948 3.45728 9.02904 2.01843 12.0498 2.01843C15.1988 2.01843 17.9768 3.58174 19.6267 5.96293C20.23 6.79585 20.5185 7.4694 20.8051 8.13862C21.0247 8.65149 21.2433 9.16181 21.6016 9.73939C22.1681 10.6524 23.0011 11.3299 23.4665 11.7084C23.5015 11.7369 23.5344 11.7637 23.565 11.7888L23.5628 11.7892L26.4098 13.8812Z" fill="url(#paint15_radial_146_6247)"/>
<path d="M26.4098 13.8812C27.6495 14.7411 28.1115 16.477 27.2983 17.7291C26.4852 18.9813 24.8478 19.3239 23.5957 18.5107L20.9854 16.8156L20.9854 28.3935C20.9854 29.8499 19.8048 31.0305 18.3484 31.0305C16.8921 31.0305 15.7114 29.7492 15.7114 27.7336L15.7114 23.0614C15.2937 23.8534 14.4621 24.3932 13.5044 24.3932C12.4138 24.3932 11.4867 23.693 11.1481 22.7177C10.653 23.2295 9.95901 23.5477 9.1907 23.5477C8.04338 23.5477 7.0618 22.8381 6.66086 21.8338C6.18493 22.2411 5.56685 22.4871 4.89131 22.4871C3.38746 22.4871 2.16835 21.268 2.16835 19.7642C2.16835 17.0757 2.34375 14.2187 2.625 11.6987C2.80499 10.0859 3.01855 7.8208 4.6801 5.67602C6.34948 3.45728 9.02904 2.01843 12.0498 2.01843C15.1988 2.01843 17.9768 3.58174 19.6267 5.96293C20.23 6.79585 20.5185 7.4694 20.8051 8.13862C21.0247 8.65149 21.2433 9.16181 21.6016 9.73939C22.1681 10.6524 23.0011 11.3299 23.4665 11.7084C23.5015 11.7369 23.5344 11.7637 23.565 11.7888L23.5628 11.7892L26.4098 13.8812Z" fill="url(#paint16_radial_146_6247)"/>
<path d="M26.4098 13.8812C27.6495 14.7411 28.1115 16.477 27.2983 17.7291C26.4852 18.9813 24.8478 19.3239 23.5957 18.5107L20.9854 16.8156L20.9854 28.3935C20.9854 29.8499 19.8048 31.0305 18.3484 31.0305C16.8921 31.0305 15.7114 29.7492 15.7114 27.7336L15.7114 23.0614C15.2937 23.8534 14.4621 24.3932 13.5044 24.3932C12.4138 24.3932 11.4867 23.693 11.1481 22.7177C10.653 23.2295 9.95901 23.5477 9.1907 23.5477C8.04338 23.5477 7.0618 22.8381 6.66086 21.8338C6.18493 22.2411 5.56685 22.4871 4.89131 22.4871C3.38746 22.4871 2.16835 21.268 2.16835 19.7642C2.16835 17.0757 2.34375 14.2187 2.625 11.6987C2.80499 10.0859 3.01855 7.8208 4.6801 5.67602C6.34948 3.45728 9.02904 2.01843 12.0498 2.01843C15.1988 2.01843 17.9768 3.58174 19.6267 5.96293C20.23 6.79585 20.5185 7.4694 20.8051 8.13862C21.0247 8.65149 21.2433 9.16181 21.6016 9.73939C22.1681 10.6524 23.0011 11.3299 23.4665 11.7084C23.5015 11.7369 23.5344 11.7637 23.565 11.7888L23.5628 11.7892L26.4098 13.8812Z" fill="url(#paint17_radial_146_6247)"/>
<path d="M26.4098 13.8812C27.6495 14.7411 28.1115 16.477 27.2983 17.7291C26.4852 18.9813 24.8478 19.3239 23.5957 18.5107L20.9854 16.8156L20.9854 28.3935C20.9854 29.8499 19.8048 31.0305 18.3484 31.0305C16.8921 31.0305 15.7114 29.7492 15.7114 27.7336L15.7114 23.0614C15.2937 23.8534 14.4621 24.3932 13.5044 24.3932C12.4138 24.3932 11.4867 23.693 11.1481 22.7177C10.653 23.2295 9.95901 23.5477 9.1907 23.5477C8.04338 23.5477 7.0618 22.8381 6.66086 21.8338C6.18493 22.2411 5.56685 22.4871 4.89131 22.4871C3.38746 22.4871 2.16835 21.268 2.16835 19.7642C2.16835 17.0757 2.34375 14.2187 2.625 11.6987C2.80499 10.0859 3.01855 7.8208 4.6801 5.67602C6.34948 3.45728 9.02904 2.01843 12.0498 2.01843C15.1988 2.01843 17.9768 3.58174 19.6267 5.96293C20.23 6.79585 20.5185 7.4694 20.8051 8.13862C21.0247 8.65149 21.2433 9.16181 21.6016 9.73939C22.1681 10.6524 23.0011 11.3299 23.4665 11.7084C23.5015 11.7369 23.5344 11.7637 23.565 11.7888L23.5628 11.7892L26.4098 13.8812Z" fill="url(#paint18_radial_146_6247)"/>
<path d="M4.89133 22.4879C5.56688 22.4879 6.18496 22.2419 6.66089 21.8346C6.66089 19.5309 6.45774 17.6246 4.89133 17.4059C3.64803 17.2323 2.62161 18.8849 2.16838 19.765C2.16838 21.2688 3.38749 22.4879 4.89133 22.4879Z" fill="#D9D9D9"/>
<path d="M4.89133 22.4879C5.56688 22.4879 6.18496 22.2419 6.66089 21.8346C6.66089 19.5309 6.45774 17.6246 4.89133 17.4059C3.64803 17.2323 2.62161 18.8849 2.16838 19.765C2.16838 21.2688 3.38749 22.4879 4.89133 22.4879Z" fill="url(#paint19_radial_146_6247)"/>
<path d="M4.89133 22.4879C5.56688 22.4879 6.18496 22.2419 6.66089 21.8346C6.66089 19.5309 6.45774 17.6246 4.89133 17.4059C3.64803 17.2323 2.62161 18.8849 2.16838 19.765C2.16838 21.2688 3.38749 22.4879 4.89133 22.4879Z" fill="url(#paint20_radial_146_6247)"/>
<path d="M4.89133 22.4879C5.56688 22.4879 6.18496 22.2419 6.66089 21.8346C6.66089 19.5309 6.45774 17.6246 4.89133 17.4059C3.64803 17.2323 2.62161 18.8849 2.16838 19.765C2.16838 21.2688 3.38749 22.4879 4.89133 22.4879Z" fill="url(#paint21_radial_146_6247)"/>
<path d="M4.89133 22.4879C5.56688 22.4879 6.18496 22.2419 6.66089 21.8346C6.66089 19.5309 6.45774 17.6246 4.89133 17.4059C3.64803 17.2323 2.62161 18.8849 2.16838 19.765C2.16838 21.2688 3.38749 22.4879 4.89133 22.4879Z" fill="url(#paint22_radial_146_6247)"/>
<path d="M4.89133 22.4879C5.56688 22.4879 6.18496 22.2419 6.66089 21.8346C6.66089 19.5309 6.45774 17.6246 4.89133 17.4059C3.64803 17.2323 2.62161 18.8849 2.16838 19.765C2.16838 21.2688 3.38749 22.4879 4.89133 22.4879Z" fill="url(#paint23_radial_146_6247)"/>
<path d="M4.89133 22.4879C5.56688 22.4879 6.18496 22.2419 6.66089 21.8346C6.66089 19.5309 6.45774 17.6246 4.89133 17.4059C3.64803 17.2323 2.62161 18.8849 2.16838 19.765C2.16838 21.2688 3.38749 22.4879 4.89133 22.4879Z" fill="url(#paint24_radial_146_6247)"/>
<path d="M4.89133 22.4879C5.56688 22.4879 6.18496 22.2419 6.66089 21.8346C6.66089 19.5309 6.45774 17.6246 4.89133 17.4059C3.64803 17.2323 2.62161 18.8849 2.16838 19.765C2.16838 21.2688 3.38749 22.4879 4.89133 22.4879Z" fill="url(#paint25_radial_146_6247)"/>
<path d="M4.89133 22.4879C5.56688 22.4879 6.18496 22.2419 6.66089 21.8346C6.66089 19.5309 6.45774 17.6246 4.89133 17.4059C3.64803 17.2323 2.62161 18.8849 2.16838 19.765C2.16838 21.2688 3.38749 22.4879 4.89133 22.4879Z" fill="url(#paint26_radial_146_6247)"/>
<path d="M4.89133 22.4879C5.56688 22.4879 6.18496 22.2419 6.66089 21.8346C6.66089 19.5309 6.45774 17.6246 4.89133 17.4059C3.64803 17.2323 2.62161 18.8849 2.16838 19.765C2.16838 21.2688 3.38749 22.4879 4.89133 22.4879Z" fill="url(#paint27_radial_146_6247)"/>
<path d="M13.5045 24.394C14.4621 24.394 15.2937 23.8541 15.7115 23.0622L15.7115 20.2182C15.787 19.2807 15.2906 17.1245 14.0156 16.9995C12.7406 16.8745 11.4695 19.7026 11.1481 22.7184C11.4867 23.6938 12.4138 24.394 13.5045 24.394Z" fill="url(#paint28_radial_146_6247)"/>
<path d="M13.5045 24.394C14.4621 24.394 15.2937 23.8541 15.7115 23.0622L15.7115 20.2182C15.787 19.2807 15.2906 17.1245 14.0156 16.9995C12.7406 16.8745 11.4695 19.7026 11.1481 22.7184C11.4867 23.6938 12.4138 24.394 13.5045 24.394Z" fill="url(#paint29_radial_146_6247)"/>
<path d="M13.5045 24.394C14.4621 24.394 15.2937 23.8541 15.7115 23.0622L15.7115 20.2182C15.787 19.2807 15.2906 17.1245 14.0156 16.9995C12.7406 16.8745 11.4695 19.7026 11.1481 22.7184C11.4867 23.6938 12.4138 24.394 13.5045 24.394Z" fill="url(#paint30_radial_146_6247)"/>
<path d="M13.5045 24.394C14.4621 24.394 15.2937 23.8541 15.7115 23.0622L15.7115 20.2182C15.787 19.2807 15.2906 17.1245 14.0156 16.9995C12.7406 16.8745 11.4695 19.7026 11.1481 22.7184C11.4867 23.6938 12.4138 24.394 13.5045 24.394Z" fill="url(#paint31_radial_146_6247)"/>
<path d="M13.5045 24.394C14.4621 24.394 15.2937 23.8541 15.7115 23.0622L15.7115 20.2182C15.787 19.2807 15.2906 17.1245 14.0156 16.9995C12.7406 16.8745 11.4695 19.7026 11.1481 22.7184C11.4867 23.6938 12.4138 24.394 13.5045 24.394Z" fill="url(#paint32_radial_146_6247)"/>
<path d="M13.5045 24.394C14.4621 24.394 15.2937 23.8541 15.7115 23.0622L15.7115 20.2182C15.787 19.2807 15.2906 17.1245 14.0156 16.9995C12.7406 16.8745 11.4695 19.7026 11.1481 22.7184C11.4867 23.6938 12.4138 24.394 13.5045 24.394Z" fill="url(#paint33_radial_146_6247)"/>
<path d="M13.5045 24.394C14.4621 24.394 15.2937 23.8541 15.7115 23.0622L15.7115 20.2182C15.787 19.2807 15.2906 17.1245 14.0156 16.9995C12.7406 16.8745 11.4695 19.7026 11.1481 22.7184C11.4867 23.6938 12.4138 24.394 13.5045 24.394Z" fill="url(#paint34_radial_146_6247)"/>
<path d="M13.5045 24.394C14.4621 24.394 15.2937 23.8541 15.7115 23.0622L15.7115 20.2182C15.787 19.2807 15.2906 17.1245 14.0156 16.9995C12.7406 16.8745 11.4695 19.7026 11.1481 22.7184C11.4867 23.6938 12.4138 24.394 13.5045 24.394Z" fill="url(#paint35_radial_146_6247)"/>
<path d="M13.5045 24.394C14.4621 24.394 15.2937 23.8541 15.7115 23.0622L15.7115 20.2182C15.787 19.2807 15.2906 17.1245 14.0156 16.9995C12.7406 16.8745 11.4695 19.7026 11.1481 22.7184C11.4867 23.6938 12.4138 24.394 13.5045 24.394Z" fill="url(#paint36_radial_146_6247)"/>
<path d="M13.5045 24.394C14.4621 24.394 15.2937 23.8541 15.7115 23.0622L15.7115 20.2182C15.787 19.2807 15.2906 17.1245 14.0156 16.9995C12.7406 16.8745 11.4695 19.7026 11.1481 22.7184C11.4867 23.6938 12.4138 24.394 13.5045 24.394Z" fill="url(#paint37_radial_146_6247)"/>
<path d="M18.3494 31.0313C19.8057 31.0313 20.9863 29.8506 20.9863 28.3943L20.9863 17.7551C20.9863 16.2987 20.25 15.3447 19.1406 15.3447C17.0938 15.3447 15.7124 20.6852 15.7124 22.1415L15.7124 28.1415C15.7124 29.5979 16.893 31.0313 18.3494 31.0313Z" fill="url(#paint38_radial_146_6247)"/>
<path d="M18.3494 31.0313C19.8057 31.0313 20.9863 29.8506 20.9863 28.3943L20.9863 17.7551C20.9863 16.2987 20.25 15.3447 19.1406 15.3447C17.0938 15.3447 15.7124 20.6852 15.7124 22.1415L15.7124 28.1415C15.7124 29.5979 16.893 31.0313 18.3494 31.0313Z" fill="url(#paint39_linear_146_6247)"/>
<path d="M18.3494 31.0313C19.8057 31.0313 20.9863 29.8506 20.9863 28.3943L20.9863 17.7551C20.9863 16.2987 20.25 15.3447 19.1406 15.3447C17.0938 15.3447 15.7124 20.6852 15.7124 22.1415L15.7124 28.1415C15.7124 29.5979 16.893 31.0313 18.3494 31.0313Z" fill="url(#paint40_radial_146_6247)"/>
<path d="M18.3494 31.0313C19.8057 31.0313 20.9863 29.8506 20.9863 28.3943L20.9863 17.7551C20.9863 16.2987 20.25 15.3447 19.1406 15.3447C17.0938 15.3447 15.7124 20.6852 15.7124 22.1415L15.7124 28.1415C15.7124 29.5979 16.893 31.0313 18.3494 31.0313Z" fill="url(#paint41_radial_146_6247)"/>
<path d="M18.3494 31.0313C19.8057 31.0313 20.9863 29.8506 20.9863 28.3943L20.9863 17.7551C20.9863 16.2987 20.25 15.3447 19.1406 15.3447C17.0938 15.3447 15.7124 20.6852 15.7124 22.1415L15.7124 28.1415C15.7124 29.5979 16.893 31.0313 18.3494 31.0313Z" fill="url(#paint42_radial_146_6247)"/>
<path d="M18.3494 31.0313C19.8057 31.0313 20.9863 29.8506 20.9863 28.3943L20.9863 17.7551C20.9863 16.2987 20.25 15.3447 19.1406 15.3447C17.0938 15.3447 15.7124 20.6852 15.7124 22.1415L15.7124 28.1415C15.7124 29.5979 16.893 31.0313 18.3494 31.0313Z" fill="url(#paint43_radial_146_6247)"/>
<path d="M27.2983 17.7291C28.1115 16.4769 27.6495 14.7411 26.4098 13.8812L23.5628 11.7892L23.565 11.7888C23.5356 11.7646 23.504 11.739 23.4705 11.7117L23.4665 11.7084C23.0011 11.3299 22.1681 10.6524 21.6016 9.73938C21.34 9.31763 21.1528 8.93173 20.9854 8.55454C20.9854 8.55454 19.9375 14.5937 20.9854 16.8156L23.5957 18.5107C24.8478 19.3239 26.4852 18.9813 27.2983 17.7291Z" fill="url(#paint44_radial_146_6247)"/>
<path d="M27.2983 17.7291C28.1115 16.4769 27.6495 14.7411 26.4098 13.8812L23.5628 11.7892L23.565 11.7888C23.5356 11.7646 23.504 11.739 23.4705 11.7117L23.4665 11.7084C23.0011 11.3299 22.1681 10.6524 21.6016 9.73938C21.34 9.31763 21.1528 8.93173 20.9854 8.55454C20.9854 8.55454 19.9375 14.5937 20.9854 16.8156L23.5957 18.5107C24.8478 19.3239 26.4852 18.9813 27.2983 17.7291Z" fill="url(#paint45_radial_146_6247)"/>
<path d="M27.2983 17.7291C28.1115 16.4769 27.6495 14.7411 26.4098 13.8812L23.5628 11.7892L23.565 11.7888C23.5356 11.7646 23.504 11.739 23.4705 11.7117L23.4665 11.7084C23.0011 11.3299 22.1681 10.6524 21.6016 9.73938C21.34 9.31763 21.1528 8.93173 20.9854 8.55454C20.9854 8.55454 19.9375 14.5937 20.9854 16.8156L23.5957 18.5107C24.8478 19.3239 26.4852 18.9813 27.2983 17.7291Z" fill="url(#paint46_radial_146_6247)"/>
<path d="M27.2983 17.7291C28.1115 16.4769 27.6495 14.7411 26.4098 13.8812L23.5628 11.7892L23.565 11.7888C23.5356 11.7646 23.504 11.739 23.4705 11.7117L23.4665 11.7084C23.0011 11.3299 22.1681 10.6524 21.6016 9.73938C21.34 9.31763 21.1528 8.93173 20.9854 8.55454C20.9854 8.55454 19.9375 14.5937 20.9854 16.8156L23.5957 18.5107C24.8478 19.3239 26.4852 18.9813 27.2983 17.7291Z" fill="url(#paint47_radial_146_6247)"/>
<path d="M27.2983 17.7291C28.1115 16.4769 27.6495 14.7411 26.4098 13.8812L23.5628 11.7892L23.565 11.7888C23.5356 11.7646 23.504 11.739 23.4705 11.7117L23.4665 11.7084C23.0011 11.3299 22.1681 10.6524 21.6016 9.73938C21.34 9.31763 21.1528 8.93173 20.9854 8.55454C20.9854 8.55454 19.9375 14.5937 20.9854 16.8156L23.5957 18.5107C24.8478 19.3239 26.4852 18.9813 27.2983 17.7291Z" fill="url(#paint48_radial_146_6247)"/>
<path d="M27.2983 17.7291C28.1115 16.4769 27.6495 14.7411 26.4098 13.8812L23.5628 11.7892L23.565 11.7888C23.5356 11.7646 23.504 11.739 23.4705 11.7117L23.4665 11.7084C23.0011 11.3299 22.1681 10.6524 21.6016 9.73938C21.34 9.31763 21.1528 8.93173 20.9854 8.55454C20.9854 8.55454 19.9375 14.5937 20.9854 16.8156L23.5957 18.5107C24.8478 19.3239 26.4852 18.9813 27.2983 17.7291Z" fill="url(#paint49_radial_146_6247)"/>
<path d="M26.4098 13.882C27.6495 14.7418 28.1115 16.4777 27.2983 17.7299C26.4852 18.982 24.8478 19.3247 23.5957 18.5115L20.9854 16.8164L20.9854 28.3943C20.9854 29.8506 19.8048 31.0312 18.3484 31.0312C16.8921 31.0312 15.7114 29.75 15.7114 27.7344L15.7114 23.0621C15.2937 23.8541 14.4621 24.394 13.5044 24.394C12.4138 24.394 11.4867 23.6938 11.1481 22.7184C10.653 23.2302 9.95901 23.5484 9.1907 23.5484C8.04338 23.5484 7.0618 22.8388 6.66086 21.8346C6.18493 22.2419 5.56685 22.4879 4.89131 22.4879C3.38746 22.4879 2.16835 21.2688 2.16835 19.765C2.16835 17.0765 2.34375 14.2195 2.625 11.6995C2.80499 10.0867 3.01855 7.82156 4.6801 5.67678C6.34948 3.45804 9.02904 2.01919 12.0498 2.01919C15.1988 2.01919 17.9768 3.5825 19.6267 5.96369C20.23 6.79662 20.5185 7.47016 20.8051 8.13939C21.0247 8.65225 21.2433 9.16257 21.6016 9.74015C22.1681 10.6532 23.0011 11.3307 23.4665 11.7092C23.5015 11.7377 23.5344 11.7645 23.565 11.7895L23.5628 11.79L26.4098 13.882Z" fill="url(#paint50_radial_146_6247)"/>
<path d="M26.4098 13.882C27.6495 14.7418 28.1115 16.4777 27.2983 17.7299C26.4852 18.982 24.8478 19.3247 23.5957 18.5115L20.9854 16.8164L20.9854 28.3943C20.9854 29.8506 19.8048 31.0312 18.3484 31.0312C16.8921 31.0312 15.7114 29.75 15.7114 27.7344L15.7114 23.0621C15.2937 23.8541 14.4621 24.394 13.5044 24.394C12.4138 24.394 11.4867 23.6938 11.1481 22.7184C10.653 23.2302 9.95901 23.5484 9.1907 23.5484C8.04338 23.5484 7.0618 22.8388 6.66086 21.8346C6.18493 22.2419 5.56685 22.4879 4.89131 22.4879C3.38746 22.4879 2.16835 21.2688 2.16835 19.765C2.16835 17.0765 2.34375 14.2195 2.625 11.6995C2.80499 10.0867 3.01855 7.82156 4.6801 5.67678C6.34948 3.45804 9.02904 2.01919 12.0498 2.01919C15.1988 2.01919 17.9768 3.5825 19.6267 5.96369C20.23 6.79662 20.5185 7.47016 20.8051 8.13939C21.0247 8.65225 21.2433 9.16257 21.6016 9.74015C22.1681 10.6532 23.0011 11.3307 23.4665 11.7092C23.5015 11.7377 23.5344 11.7645 23.565 11.7895L23.5628 11.79L26.4098 13.882Z" fill="url(#paint51_radial_146_6247)"/>
</g>
<defs>
<radialGradient id="paint0_radial_146_6247" cx="0" cy="0" r="1" gradientUnits="userSpaceOnUse" gradientTransform="translate(11.6875 25.4993) rotate(-90) scale(25.75 38.2634)">
<stop offset="0.281553" stop-color="#FFCA52"/>
<stop offset="0.572815" stop-color="#FFC047"/>
<stop offset="0.92233" stop-color="#F6A826"/>
</radialGradient>
<radialGradient id="paint1_radial_146_6247" cx="0" cy="0" r="1" gradientUnits="userSpaceOnUse" gradientTransform="translate(12.1875 31.3743) rotate(-90) scale(35.75 17.6196)">
<stop offset="0.796429" stop-color="#DA8D3C" stop-opacity="0"/>
<stop offset="0.877863" stop-color="#DA8D3C"/>
</radialGradient>
<radialGradient id="paint2_radial_146_6247" cx="0" cy="0" r="1" gradientUnits="userSpaceOnUse" gradientTransform="translate(20.9687 8.62423) rotate(-117.588) scale(3.91374 1.2693)">
<stop stop-color="#ECAB32"/>
<stop offset="1" stop-color="#ECAB32" stop-opacity="0"/>
</radialGradient>
<radialGradient id="paint3_radial_146_6247" cx="0" cy="0" r="1" gradientUnits="userSpaceOnUse" gradientTransform="translate(17.75 16.5246) rotate(92.4127) scale(35.6312 23.7711)">
<stop offset="0.345884" stop-color="#FFAD5E" stop-opacity="0"/>
<stop offset="0.609334" stop-color="#FFAD5E"/>
<stop offset="0.644976" stop-color="#F57E80"/>
</radialGradient>
<radialGradient id="paint4_radial_146_6247" cx="0" cy="0" r="1" gradientUnits="userSpaceOnUse" gradientTransform="translate(38.625 35.1242) rotate(-140.304) scale(58.3209 37.0881)">
<stop offset="0.710164" stop-color="#EE9832" stop-opacity="0"/>
<stop offset="0.776843" stop-color="#DC7F5A"/>
</radialGradient>
<radialGradient id="paint5_radial_146_6247" cx="0" cy="0" r="1" gradientUnits="userSpaceOnUse" gradientTransform="translate(17.375 15.8742) rotate(144.09) scale(8.95126 6.20589)">
<stop stop-color="#FFCF42"/>
<stop offset="1" stop-color="#FFCF42" stop-opacity="0"/>
</radialGradient>
<radialGradient id="paint6_radial_146_6247" cx="0" cy="0" r="1" gradientUnits="userSpaceOnUse" gradientTransform="translate(14.4375 21.6867) rotate(-85.8105) scale(6.83075 2.34897)">
<stop offset="0.104622" stop-color="#FFDF62"/>
<stop offset="0.594015" stop-color="#FFC83D"/>
<stop offset="1" stop-color="#FFC83D" stop-opacity="0"/>
</radialGradient>
<radialGradient id="paint7_radial_146_6247" cx="0" cy="0" r="1" gradientUnits="userSpaceOnUse" gradientTransform="translate(10.0625 21.5617) rotate(-86.8636) scale(4.56934 2.38255)">
<stop offset="0.104622" stop-color="#FFE966"/>
<stop offset="0.594015" stop-color="#FFD43B"/>
<stop offset="1" stop-color="#FFD43B" stop-opacity="0"/>
</radialGradient>
<radialGradient id="paint8_radial_146_6247" cx="0" cy="0" r="1" gradientUnits="userSpaceOnUse" gradientTransform="translate(5.5625 21.1867) rotate(-88.4641) scale(4.66378 2.56828)">
<stop offset="0.104622" stop-color="#FFE667"/>
<stop offset="0.594015" stop-color="#FFC955"/>
<stop offset="1" stop-color="#FFC955" stop-opacity="0"/>
</radialGradient>
<radialGradient id="paint9_radial_146_6247" cx="0" cy="0" r="1" gradientUnits="userSpaceOnUse" gradientTransform="translate(15.7188 21.0305) rotate(-180) scale(1.25 3.5625)">
<stop offset="0.45" stop-color="#FFD364"/>
<stop offset="1" stop-color="#FFE267" stop-opacity="0"/>
</radialGradient>
<radialGradient id="paint10_radial_146_6247" cx="0" cy="0" r="1" gradientUnits="userSpaceOnUse" gradientTransform="translate(15.8125 21.7805) rotate(-178.025) scale(0.453394 1.96973)">
<stop offset="0.463579" stop-color="#762A07"/>
<stop offset="1" stop-color="#CB7C18" stop-opacity="0"/>
</radialGradient>
<radialGradient id="paint11_radial_146_6247" cx="0" cy="0" r="1" gradientUnits="userSpaceOnUse" gradientTransform="translate(11.5 22.6555) rotate(-9.46229) scale(1.14052 2.75368)">
<stop stop-color="#E3930D"/>
<stop offset="1" stop-color="#E3930D" stop-opacity="0"/>
</radialGradient>
<radialGradient id="paint12_radial_146_6247" cx="0" cy="0" r="1" gradientUnits="userSpaceOnUse" gradientTransform="translate(11.4688 22.6555) rotate(-7.12503) scale(0.755836 2.25201)">
<stop stop-color="#E1910E"/>
<stop offset="1" stop-color="#E3930D" stop-opacity="0"/>
</radialGradient>
<radialGradient id="paint13_radial_146_6247" cx="0" cy="0" r="1" gradientUnits="userSpaceOnUse" gradientTransform="translate(11.2344 22.093) rotate(-173.29) scale(0.267457 1.9151)">
<stop offset="0.221154" stop-color="#B55B14"/>
<stop offset="1" stop-color="#B55B14" stop-opacity="0"/>
</radialGradient>
<radialGradient id="paint14_radial_146_6247" cx="0" cy="0" r="1" gradientUnits="userSpaceOnUse" gradientTransform="translate(6.90625 21.6555) rotate(-177.563) scale(1.47008 4.50257)">
<stop stop-color="#FFB152"/>
<stop offset="1" stop-color="#FFB152" stop-opacity="0"/>
</radialGradient>
<radialGradient id="paint15_radial_146_6247" cx="0" cy="0" r="1" gradientUnits="userSpaceOnUse" gradientTransform="translate(6.625 20.2805) rotate(-2.86231) scale(0.625782 1.59488)">
<stop stop-color="#E1910E"/>
<stop offset="1" stop-color="#E3930D" stop-opacity="0"/>
</radialGradient>
<radialGradient id="paint16_radial_146_6247" cx="0" cy="0" r="1" gradientUnits="userSpaceOnUse" gradientTransform="translate(6.5 19.1242) rotate(176.186) scale(0.46979 1.3389)">
<stop offset="0.45" stop-color="#FFC460"/>
<stop offset="1" stop-color="#FFC460" stop-opacity="0"/>
</radialGradient>
<radialGradient id="paint17_radial_146_6247" cx="0" cy="0" r="1" gradientUnits="userSpaceOnUse" gradientTransform="translate(6.52344 20.0852) scale(0.179687 0.718748)">
<stop offset="0.221154" stop-color="#B55B14"/>
<stop offset="1" stop-color="#B55B14" stop-opacity="0"/>
</radialGradient>
<radialGradient id="paint18_radial_146_6247" cx="0" cy="0" r="1" gradientUnits="userSpaceOnUse" gradientTransform="translate(7.03125 23.0305) rotate(162.801) scale(1.37393 3.37056)">
<stop stop-color="#F6AB9F"/>
<stop offset="1" stop-color="#F6AB9F" stop-opacity="0"/>
</radialGradient>
<radialGradient id="paint19_radial_146_6247" cx="0" cy="0" r="1" gradientUnits="userSpaceOnUse" gradientTransform="translate(4.68823 22.2809) rotate(-90) scale(20.2812 28.1328)">
<stop offset="0.281553" stop-color="#FFCA52"/>
<stop offset="0.572815" stop-color="#FFC047"/>
<stop offset="0.92233" stop-color="#F6A826"/>
</radialGradient>
<radialGradient id="paint20_radial_146_6247" cx="0" cy="0" r="1" gradientUnits="userSpaceOnUse" gradientTransform="translate(7.62573 18.6871) rotate(90.2274) scale(15.7501 9.811)">
<stop stop-color="#FFAD5E" stop-opacity="0"/>
<stop offset="0.428754" stop-color="#FFAD5E"/>
<stop offset="0.539957" stop-color="#F57E80"/>
</radialGradient>
<radialGradient id="paint21_radial_146_6247" cx="0" cy="0" r="1" gradientUnits="userSpaceOnUse" gradientTransform="translate(5.43823 21.1871) rotate(-88.6028) scale(5.12652 1.93845)">
<stop offset="0.104622" stop-color="#FFE667"/>
<stop offset="0.594015" stop-color="#FFC955"/>
<stop offset="1" stop-color="#FFC955" stop-opacity="0"/>
</radialGradient>
<radialGradient id="paint22_radial_146_6247" cx="0" cy="0" r="1" gradientUnits="userSpaceOnUse" gradientTransform="translate(6.66089 20.5934) rotate(170.064) scale(0.543306 1.39964)">
<stop stop-color="#E3930D"/>
<stop offset="1" stop-color="#E3930D" stop-opacity="0"/>
</radialGradient>
<radialGradient id="paint23_radial_146_6247" cx="0" cy="0" r="1" gradientUnits="userSpaceOnUse" gradientTransform="translate(6.84448 20.7653) rotate(166.551) scale(0.739015 2.01207)">
<stop offset="0.377358" stop-color="#E1910E"/>
<stop offset="1" stop-color="#E3930D" stop-opacity="0"/>
</radialGradient>
<radialGradient id="paint24_radial_146_6247" cx="0" cy="0" r="1" gradientUnits="userSpaceOnUse" gradientTransform="translate(4.41479 16.6559) rotate(168.077) scale(2.7228 4.0842)">
<stop stop-color="#FFAF5D"/>
<stop offset="1" stop-color="#FFB958" stop-opacity="0"/>
</radialGradient>
<radialGradient id="paint25_radial_146_6247" cx="0" cy="0" r="1" gradientUnits="userSpaceOnUse" gradientTransform="translate(6.66089 20.1012) rotate(178.586) scale(0.316503 0.900348)">
<stop offset="0.221154" stop-color="#B55B14"/>
<stop offset="1" stop-color="#B55B14" stop-opacity="0"/>
</radialGradient>
<radialGradient id="paint26_radial_146_6247" cx="0" cy="0" r="1" gradientUnits="userSpaceOnUse" gradientTransform="translate(6.66089 21.484) rotate(175.84) scale(0.215411 1.56431)">
<stop offset="0.221154" stop-color="#D77A18"/>
<stop offset="1" stop-color="#D77A18" stop-opacity="0"/>
</radialGradient>
<radialGradient id="paint27_radial_146_6247" cx="0" cy="0" r="1" gradientUnits="userSpaceOnUse" gradientTransform="translate(2.90698 23.2809) rotate(-145.222) scale(2.73933 2.84787)">
<stop stop-color="#F6AB9F"/>
<stop offset="1" stop-color="#F6AB9F" stop-opacity="0"/>
</radialGradient>
<radialGradient id="paint28_radial_146_6247" cx="0" cy="0" r="1" gradientUnits="userSpaceOnUse" gradientTransform="translate(12.8507 22.9834) rotate(-90) scale(6.5666 6.84667)">
<stop offset="0.281553" stop-color="#FFCA52"/>
<stop offset="0.572815" stop-color="#FFC047"/>
<stop offset="0.92233" stop-color="#F6A826"/>
</radialGradient>
<radialGradient id="paint29_radial_146_6247" cx="0" cy="0" r="1" gradientUnits="userSpaceOnUse" gradientTransform="translate(14.2813 16.9955) rotate(156.511) scale(8.79098 6.41184)">
<stop stop-color="#FFCF42"/>
<stop offset="1" stop-color="#FFCF42" stop-opacity="0"/>
</radialGradient>
<radialGradient id="paint30_radial_146_6247" cx="0" cy="0" r="1" gradientUnits="userSpaceOnUse" gradientTransform="translate(14.3125 22.312) rotate(-87.9975) scale(8.94296 3.6718)">
<stop offset="0.104622" stop-color="#FFDF62"/>
<stop offset="0.520741" stop-color="#FFCA43"/>
<stop offset="1" stop-color="#FFCA43" stop-opacity="0"/>
</radialGradient>
<radialGradient id="paint31_radial_146_6247" cx="0" cy="0" r="1" gradientUnits="userSpaceOnUse" gradientTransform="translate(15.7168 22.562) rotate(-165.703) scale(1.77167 6.41541)">
<stop stop-color="#BC7002"/>
<stop offset="1" stop-color="#FEBD24" stop-opacity="0"/>
</radialGradient>
<radialGradient id="paint32_radial_146_6247" cx="0" cy="0" r="1" gradientUnits="userSpaceOnUse" gradientTransform="translate(15.7168 23.2182) rotate(-159.734) scale(0.947314 4.49883)">
<stop stop-color="#A77B5C"/>
<stop offset="1" stop-color="#A77B5C" stop-opacity="0"/>
</radialGradient>
<radialGradient id="paint33_radial_146_6247" cx="0" cy="0" r="1" gradientUnits="userSpaceOnUse" gradientTransform="translate(15.8437 21.4526) rotate(-167.471) scale(0.432166 1.44564)">
<stop offset="0.221154" stop-color="#762A07"/>
<stop offset="1" stop-color="#762A07" stop-opacity="0"/>
</radialGradient>
<radialGradient id="paint34_radial_146_6247" cx="0" cy="0" r="1" gradientUnits="userSpaceOnUse" gradientTransform="translate(13.9063 18.2182) rotate(-180) scale(4.5625 6.84375)">
<stop offset="0.80137" stop-color="#EFBE5C" stop-opacity="0"/>
<stop offset="1" stop-color="#EFBE5C"/>
</radialGradient>
<radialGradient id="paint35_radial_146_6247" cx="0" cy="0" r="1" gradientUnits="userSpaceOnUse" gradientTransform="translate(10.9375 23.1557) rotate(174.382) scale(1.91545 5.07918)">
<stop stop-color="#F3A989"/>
<stop offset="0.365717" stop-color="#FFBA49"/>
<stop offset="1" stop-color="#FFBA49" stop-opacity="0"/>
</radialGradient>
<radialGradient id="paint36_radial_146_6247" cx="0" cy="0" r="1" gradientUnits="userSpaceOnUse" gradientTransform="translate(11.1484 21.812) rotate(4.15964) scale(0.430822 2.67328)">
<stop offset="0.385729" stop-color="#B55B14"/>
<stop offset="1" stop-color="#B55B14" stop-opacity="0"/>
</radialGradient>
<radialGradient id="paint37_radial_146_6247" cx="0" cy="0" r="1" gradientUnits="userSpaceOnUse" gradientTransform="translate(11.4062 23.5307) rotate(138.013) scale(0.840851 2.27169)">
<stop stop-color="#EAA39D"/>
<stop offset="1" stop-color="#EAA39D" stop-opacity="0"/>
</radialGradient>
<radialGradient id="paint38_radial_146_6247" cx="0" cy="0" r="1" gradientUnits="userSpaceOnUse" gradientTransform="translate(13.7812 25.8134) rotate(0.242781) scale(7.37507 26.5047)">
<stop offset="0.208198" stop-color="#EC8798"/>
<stop offset="0.341373" stop-color="#FDAB58"/>
<stop offset="0.65916" stop-color="#FFC942"/>
<stop offset="0.931612" stop-color="#FBCA2F"/>
<stop offset="1" stop-color="#DFBD61"/>
</radialGradient>
<linearGradient id="paint39_linear_146_6247" x1="15.375" y1="18.8134" x2="19.5625" y2="25.0009" gradientUnits="userSpaceOnUse">
<stop offset="0.121134" stop-color="#FFCE43"/>
<stop offset="0.451994" stop-color="#FDBF38" stop-opacity="0"/>
</linearGradient>
<radialGradient id="paint40_radial_146_6247" cx="0" cy="0" r="1" gradientUnits="userSpaceOnUse" gradientTransform="translate(19.1875 29.5634) rotate(-180) scale(2.875 3.33845)">
<stop stop-color="#FFEA63"/>
<stop offset="1" stop-color="#FFCC30" stop-opacity="0"/>
</radialGradient>
<radialGradient id="paint41_radial_146_6247" cx="0" cy="0" r="1" gradientUnits="userSpaceOnUse" gradientTransform="translate(15.375 22.1572) rotate(-170.538) scale(1.14052 2.7619)">
<stop offset="0.432432" stop-color="#E8921E"/>
<stop offset="1" stop-color="#E8921E" stop-opacity="0"/>
</radialGradient>
<radialGradient id="paint42_radial_146_6247" cx="0" cy="0" r="1" gradientUnits="userSpaceOnUse" gradientTransform="translate(18.8125 15.3447) rotate(-180) scale(2.1875 5.90625)">
<stop stop-color="#FFD045"/>
<stop offset="1" stop-color="#FFD045" stop-opacity="0"/>
</radialGradient>
<radialGradient id="paint43_radial_146_6247" cx="0" cy="0" r="1" gradientUnits="userSpaceOnUse" gradientTransform="translate(15.7129 21.4697) rotate(5.34545) scale(0.335443 1.72626)">
<stop offset="0.221154" stop-color="#762A07"/>
<stop offset="1" stop-color="#762A07" stop-opacity="0"/>
</radialGradient>
<radialGradient id="paint44_radial_146_6247" cx="0" cy="0" r="1" gradientUnits="userSpaceOnUse" gradientTransform="translate(24.75 16.875) rotate(-143.162) scale(22.4125 6.31222)">
<stop stop-color="#FFD656"/>
<stop offset="0.55379" stop-color="#F8B825"/>
<stop offset="1" stop-color="#DF9F3C"/>
</radialGradient>
<radialGradient id="paint45_radial_146_6247" cx="0" cy="0" r="1" gradientUnits="userSpaceOnUse" gradientTransform="translate(29.0625 11.4375) rotate(-148.335) scale(12.2631 4.73268)">
<stop offset="0.758028" stop-color="#DD9E42"/>
<stop offset="1" stop-color="#F9B925" stop-opacity="0"/>
</radialGradient>
<radialGradient id="paint46_radial_146_6247" cx="0" cy="0" r="1" gradientUnits="userSpaceOnUse" gradientTransform="translate(20.8125 10.6562) rotate(-131.362) scale(3.83052 1.25635)">
<stop offset="0.161254" stop-color="#FEBC42"/>
<stop offset="1" stop-color="#FEBC42" stop-opacity="0"/>
</radialGradient>
<radialGradient id="paint47_radial_146_6247" cx="0" cy="0" r="1" gradientUnits="userSpaceOnUse" gradientTransform="translate(20.7188 16.6875) rotate(-170.538) scale(0.760346 2.77819)">
<stop offset="0.378378" stop-color="#FFE267"/>
<stop offset="1" stop-color="#FFE267" stop-opacity="0"/>
</radialGradient>
<radialGradient id="paint48_radial_146_6247" cx="0" cy="0" r="1" gradientUnits="userSpaceOnUse" gradientTransform="translate(24.9375 17.0625) rotate(-147.614) scale(12.9521 1.54062)">
<stop stop-color="#FFE267"/>
<stop offset="1" stop-color="#FFD657" stop-opacity="0"/>
</radialGradient>
<radialGradient id="paint49_radial_146_6247" cx="0" cy="0" r="1" gradientUnits="userSpaceOnUse" gradientTransform="translate(25.5625 17.6875) rotate(-147.119) scale(1.72684 1.4758)">
<stop stop-color="#FFEB60"/>
<stop offset="1" stop-color="#FFE966" stop-opacity="0"/>
</radialGradient>
<radialGradient id="paint50_radial_146_6247" cx="0" cy="0" r="1" gradientUnits="userSpaceOnUse" gradientTransform="translate(16.2188 17.2187) rotate(-141.34) scale(3.20156 3.95803)">
<stop stop-color="#FFD85B"/>
<stop offset="1" stop-color="#FFD85B" stop-opacity="0"/>
</radialGradient>
<radialGradient id="paint51_radial_146_6247" cx="0" cy="0" r="1" gradientUnits="userSpaceOnUse" gradientTransform="translate(5.125 18.2812) rotate(-90) scale(2.71875 1.51424)">
<stop stop-color="#FFCA52"/>
<stop offset="1" stop-color="#FFCA52" stop-opacity="0"/>
</radialGradient>
<clipPath id="clip0_146_6247">
<rect width="32" height="32" fill="white" transform="translate(32) rotate(90)"/>
</clipPath>
</defs>
</svg>
