<?xml version="1.0" encoding="UTF-8"?>
<svg id="Layer_1" data-name="Layer 1" xmlns="http://www.w3.org/2000/svg" xmlns:xlink="http://www.w3.org/1999/xlink" viewBox="0 0 1683.54 249.4">
  <defs>
    <style>
      .cls-1 {
        fill: url(#linear-gradient);
      }

      .cls-2 {
        fill: url(#linear-gradient-2);
      }
    </style>
    <linearGradient id="linear-gradient" x1="0" y1="124.7" x2="1156.89" y2="124.7" gradientUnits="userSpaceOnUse">
      <stop offset="0" stop-color="#cfff93"/>
      <stop offset=".99" stop-color="#cfff93" stop-opacity=".3"/>
    </linearGradient>
    <linearGradient id="linear-gradient-2" x1="552.59" y1="118.67" x2="3114.18" y2="118.67" gradientUnits="userSpaceOnUse">
      <stop offset="0" stop-color="#fff"/>
      <stop offset="1" stop-color="#fff" stop-opacity="0"/>
    </linearGradient>
  </defs>
  <path class="cls-1" d="m40.4,123.08l109.62-35.82-10.77-32.86L0,105.85v34.47l139.25,54.67,10.77-32.86-109.62-39.05ZM298.06,54.41l-10.77,32.86,109.62,39.05-109.62,35.82,10.77,32.86,139.25-51.44v-34.47l-139.25-54.67ZM256.9,0l-110.7,234.05,34.21,15.35L291.1,15.08,256.9,0Z"/>
  <path class="cls-2" d="m834.58,125c0,38.51-14.81,49.29-37.44,49.29-20.47,0-27.2-8.89-27.2-33.4v-64.91h-46.33v72.18c0,42.82,21.28,66.79,56.56,66.79,29.63,0,47.4-14.81,54.41-34.74v32.05h46.06V75.98h-46.06v49.02Zm-156.48-102.62h-106.93v42.82h82.95v61.68c0,22.09-1.89,42.29-33.67,42.29h-67.87v43.09h83.22c43.63,0,67.06-26.39,67.06-67.06V47.17c0-16.16-8.62-24.78-24.78-24.78Zm985.78,149.21v-37.44c0-43.9-32.05-60.87-69.76-60.87s-69.49,18.58-70.3,54.41h43.36c.54-12.12,8.35-19.12,25.05-19.12,18.31,0,25.32,5.66,25.32,19.93l-41.48,4.58c-41.75,4.31-55.48,18.31-55.48,42.02,0,14,7.27,39.86,50.36,39.86,39.59,0,54.14-16.97,60.33-37.17v13.74c0,13.2,7.81,20.74,21.01,20.74h31.24v-40.67h-19.66Zm-81.07,6.73c-8.89,0-16.97-2.16-16.97-11.04,0-7.54,6.73-8.89,18.85-10.77l32.86-4.85c0,16.43-15.62,26.66-34.74,26.66Zm-202.54,19.39l-27.74-175.34h-92.92v189.88h49.02V40.43l30.7,171.83h81.07l30.7-171.83v171.83h48.75V22.39h-91.84l-27.74,175.34Zm-199.31-124.43c-29.36,0-47.13,14.81-54.14,34.74v-32.05h-46.06v136.28h46.06v-49.02c0-38.51,14.81-49.29,37.44-49.29,20.47,0,26.93,8.89,26.93,33.4v64.91h46.59v-72.18c0-42.82-21.28-66.79-56.83-66.79Zm-136.82,60.87c0-43.9-32.05-60.87-69.76-60.87s-69.49,18.58-70.3,54.41h43.36c.54-12.12,8.35-19.12,25.05-19.12,18.31,0,25.32,5.66,25.32,19.93l-41.48,4.58c-41.75,4.31-55.48,18.31-55.48,42.02,0,14,7.27,39.86,50.37,39.86,39.59,0,54.14-16.97,60.33-37.17v13.74c0,13.2,7.81,20.74,21.01,20.74h31.24v-40.67h-19.66v-37.44Zm-81.07,44.17c-8.89,0-16.97-2.16-16.97-11.04,0-7.54,6.73-8.89,18.85-10.77l32.86-4.85c0,16.43-15.62,26.66-34.74,26.66Z"/>
</svg>