<svg width="45" height="45" viewBox="0 0 45 45" fill="none" xmlns="http://www.w3.org/2000/svg">
<g clip-path="url(#clip0_303_28)">
<path d="M30.1923 8.09C22.4537 3.62206 12.558 6.2736 8.09005 14.0123C3.62212 21.751 6.27365 31.6466 14.0123 36.1146C21.751 40.5825 31.6467 37.931 36.1146 30.1923C40.5826 22.4536 37.931 12.5579 30.1923 8.09ZM13.7262 12.2975C13.2396 10.9732 13.9193 9.50547 15.2436 9.0189C16.8458 8.43057 18.1301 8.96585 18.8975 9.28578C19.1017 9.37089 19.2947 9.45154 19.4865 9.51301C19.6843 9.57644 19.8738 9.62583 20.0745 9.67808C20.9648 9.90946 22.0729 10.1973 23.327 11.541C24.2896 12.5723 24.2335 14.1887 23.202 15.1516C22.1704 16.114 20.554 16.0579 19.5914 15.0267C19.4311 14.8548 19.1641 14.7202 18.7903 14.6231C18.5533 14.5617 18.259 14.4851 17.9219 14.3767C17.5265 14.2495 17.1966 14.1119 16.9315 14.0014C16.8601 13.9714 16.7748 13.9361 16.6998 13.9061C16.0535 14.0562 15.3932 13.9443 14.8465 13.6287C14.3467 13.3401 13.9416 12.8815 13.7272 12.2976L13.7262 12.2975ZM22.676 34.64C21.8521 35.1324 20.8626 35.1064 20.0866 34.6584C19.7219 34.4478 19.4043 34.1439 19.1732 33.7571C18.6711 32.9162 18.4184 32.7888 17.4787 32.316C17.135 32.1427 16.7453 31.947 16.2998 31.6897C15.7873 31.3939 15.3537 31.0928 15.0056 30.8507C14.7186 30.6512 14.3275 30.3797 14.187 30.3371C14.1798 30.337 14.1658 30.3382 14.1439 30.3414C12.747 30.5378 11.4552 29.5642 11.2588 28.1673C11.0624 26.7705 12.036 25.4786 13.4329 25.2822C15.5227 24.9883 16.9095 25.9521 17.9215 26.6559C18.2332 26.8723 18.5278 27.0772 18.8544 27.2658C19.1811 27.4544 19.4802 27.6045 19.7764 27.7535C20.9572 28.348 22.2955 29.0217 23.5595 31.1381C24.2828 32.3492 23.8877 33.9176 22.6763 34.6413L22.676 34.64ZM24.8457 29.1546C22.7339 27.9354 22.0103 25.2348 23.2295 23.1229C23.7824 22.1653 24.6398 21.4933 25.6083 21.1583C25.3306 20.1946 24.6947 19.3324 23.7594 18.7924C22.9156 18.3053 21.9671 18.1604 21.0748 18.3136C21.3516 19.3927 21.2226 20.5766 20.6218 21.6173C19.4025 23.7292 16.7019 24.4528 14.5901 23.2335C12.4782 22.0143 11.7546 19.3137 12.9739 17.2018C14.1931 15.09 16.8937 14.3664 19.0056 15.5856C19.8243 16.0583 20.4344 16.7538 20.8031 17.5509C21.9124 17.3275 23.1041 17.4902 24.159 18.0993C25.2902 18.7524 26.0556 19.7981 26.3844 20.9657C27.3426 20.8182 28.3556 20.9839 29.2605 21.5063C31.3723 22.7256 32.0959 25.4262 30.8767 27.538C29.6574 29.6499 26.9568 30.3735 24.845 29.1542L24.8457 29.1546ZM33.0667 24.1481C32.5858 23.8704 32.192 23.4348 31.971 22.8784C31.8842 22.6596 31.6845 22.4369 31.3718 22.2102C31.1736 22.0666 30.9274 21.888 30.6532 21.6645C30.3314 21.4018 30.074 21.1537 29.8676 20.954C29.8116 20.9001 29.7456 20.8358 29.6866 20.7807C28.4295 20.5972 27.4768 19.5018 27.5046 18.199C27.5346 16.7886 28.702 15.6693 30.1124 15.6992C31.8188 15.7353 32.8196 16.702 33.4173 17.2795C33.5766 17.4335 33.7268 17.5787 33.8831 17.7059C34.0442 17.8374 34.2027 17.952 34.3704 18.0739C35.115 18.6136 36.0418 19.2857 36.7199 20.9945C37.24 22.3059 36.5988 23.7907 35.2874 24.3108C34.5322 24.6104 33.7192 24.5248 33.0663 24.1479L33.0667 24.1481Z" fill="#CFFF93"/>
</g>
<defs>
<clipPath id="clip0_303_28">
<rect width="32.36" height="32.36" fill="white" transform="translate(16.1801) rotate(30)"/>
</clipPath>
</defs>
</svg>
